<svg width="255" height="67" viewBox="0 0 255 67" fill="none" xmlns="http://www.w3.org/2000/svg">
<g clip-path="url(#clip0_912_14068)">
<path d="M35.1877 15.0965C34.773 15.0358 34.3557 15.0029 33.9461 15.0029C27.7785 15.0029 23.3658 21.7673 21.755 24.6779C21.4111 25.2974 21.4693 26.0586 21.8992 26.6174C22.2633 27.0877 22.8298 27.3431 23.424 27.2976C24.0208 27.2521 24.5493 26.9133 24.8426 26.3898C26.4585 23.4995 29.7888 18.6494 33.9638 18.6494C34.1914 18.6494 34.4215 18.6671 34.6465 18.7025C38.0527 19.2133 39.9114 25.3277 39.2716 33.9153C38.4118 45.459 33.2633 57.8169 26.9693 57.8169C17.8583 57.8169 6.60035 43.7774 4.11713 32.7116C3.32058 29.1613 3.13092 24.5717 6.76219 22.8546C7.2654 22.6169 7.82425 22.4981 8.41851 22.4981C12.7249 22.4981 18.1845 28.385 20.9737 34.0746C22.85 37.9006 22.6957 40.045 22.2026 40.2953C22.1141 40.3408 22.0029 40.3636 21.8714 40.3636C20.5185 40.3636 17.479 38.022 14.801 34.9142C14.1638 34.1758 13.0638 34.0645 12.2976 34.6664C11.9006 34.9749 11.6578 35.4199 11.6072 35.9206C11.5567 36.4213 11.7109 36.9093 12.0397 37.2912C14.1891 39.7921 18.3337 43.9873 21.9548 43.9873C22.635 43.9873 23.2748 43.8381 23.8539 43.5422C26.7721 42.0604 26.9187 37.9208 24.2458 32.4689C21.0091 25.8664 14.3509 18.8466 8.39322 18.8466C7.27805 18.8466 6.20586 19.0868 5.20449 19.5597C0.672995 21.7015 -0.975739 26.6553 0.561731 33.5082C3.3838 46.0912 16.1261 61.4583 26.9693 61.4583C36.5582 61.4583 42.0608 45.5096 42.9054 34.1834C43.7323 23.0797 40.847 15.9436 35.1877 15.094V15.0965Z" fill="#0B236D"/>
<path d="M32.3784 10.5096C32.7779 10.5981 33.1825 10.6411 33.5795 10.6411C34.9906 10.6411 36.3434 10.0949 37.3549 9.08597C38.6496 7.79125 39.1832 5.93011 38.7786 4.10689C38.3462 2.16229 36.7506 0.564135 34.806 0.131722C32.9853 -0.272876 31.1241 0.260687 29.8269 1.5554C28.5322 2.85011 27.9986 4.71126 28.4032 6.53447C28.8356 8.47907 30.4312 10.0772 32.3784 10.5071V10.5096Z" fill="#0B236D"/>
<path d="M5.08581 14.6923C5.48788 14.7808 5.88994 14.8238 6.28696 14.8238C7.69799 14.8238 9.05339 14.2775 10.0624 13.2661C11.3571 11.9713 11.8906 10.1102 11.486 8.28951C11.0536 6.34491 9.45799 4.74675 7.51339 4.31434C5.6927 3.90974 3.83156 4.4433 2.53684 5.73802C1.24213 7.03273 0.70857 8.89387 1.11317 10.7146C1.54558 12.6592 3.14121 14.2573 5.08581 14.6897V14.6923Z" fill="#0B236D"/>
<path d="M54.5498 20.8037C52.6229 20.8037 51.0576 22.3715 51.0576 24.2959C51.0576 26.2203 52.5926 27.8386 54.5498 27.8386C56.507 27.8386 58.042 26.2835 58.042 24.2959C58.042 22.3083 56.4742 20.8037 54.5498 20.8037Z" fill="white"/>
<path d="M57.7466 31.3076H51.3564V56.6152H57.7466V31.3076Z" fill="white"/>
<path d="M90.6952 30.8604C86.945 30.8604 84.0977 32.15 82.2315 34.6914C80.3653 32.1475 77.5179 30.8604 73.7678 30.8604C65.2738 30.8604 62.1104 37.4325 62.1104 41.5721V56.6155H68.5005V41.7213C68.5005 38.0925 71.2214 36.8003 73.7703 36.8003C76.3193 36.8003 79.0402 38.0925 79.0402 41.7213V56.6155H85.4303V41.7213C85.4303 38.0925 88.1512 36.8003 90.7002 36.8003C93.2492 36.8003 95.9701 38.0925 95.9701 41.7213V56.6155H102.36V41.5721C102.36 37.43 99.1942 30.8604 90.7027 30.8604H90.6952Z" fill="white"/>
<path d="M119.971 30.9111C112.198 30.9111 106.769 36.2569 106.769 43.9139V66.5739H113.159V54.527C114.661 56.0923 117.265 57.0152 120.269 57.0152C127.719 57.0152 132.923 51.6265 132.923 43.9139C132.923 36.2012 127.719 30.9111 119.971 30.9111ZM126.533 43.9619C126.533 48.3771 123.961 51.1233 119.819 51.1233C115.677 51.1233 113.156 48.3796 113.156 43.9619C113.156 39.5442 115.71 36.8006 119.819 36.8006C123.929 36.8006 126.533 39.5442 126.533 43.9619Z" fill="white"/>
<path d="M149.592 30.959C141.786 30.959 136.539 36.1833 136.539 43.9617C136.539 51.7401 141.723 57.0631 149.142 57.0631C152.177 57.0631 154.799 56.1426 156.304 54.5748V56.6155H162.691V44.0629C162.691 36.2263 157.426 30.9615 149.59 30.9615L149.592 30.959ZM149.643 51.1737C145.503 51.1737 142.929 48.43 142.929 44.0123C142.929 39.5946 145.501 36.8509 149.643 36.8509C153.785 36.8509 156.306 39.5946 156.306 44.0123C156.306 48.43 153.752 51.1737 149.643 51.1737Z" fill="white"/>
<path d="M185.745 47.3203C184.721 49.806 182.544 51.1741 179.616 51.1741C175.507 51.1741 172.953 48.4304 172.953 44.0127C172.953 39.595 175.507 36.8513 179.616 36.8513C182.514 36.8513 184.673 38.1688 185.697 40.5585L185.751 40.6849H192.371L192.313 40.432C190.98 34.5906 186.132 30.9619 179.664 30.9619C171.827 30.9619 166.562 36.1863 166.562 43.9647C166.562 51.743 171.827 57.066 179.664 57.066C186.213 57.066 190.96 53.4702 192.361 47.4467L192.419 47.1913H185.796L185.743 47.3203H185.745Z" fill="white"/>
<path d="M202.524 44.9077V37.2001H208.198V31.3082H202.524V21.3525H196.134V44.9583C196.134 52.8125 200.526 56.9647 208.838 56.9647H209.046V51.0727H208.838C204.294 51.0727 202.524 49.3431 202.524 44.9077Z" fill="white"/>
<path d="M224.521 30.959C216.715 30.959 211.468 36.1833 211.468 43.9617C211.468 51.7401 216.652 57.0631 224.071 57.0631C227.105 57.0631 229.728 56.1426 231.232 54.5748V56.6155H237.62V44.0629C237.62 36.2263 232.355 30.9615 224.519 30.9615L224.521 30.959ZM224.572 51.1737C220.432 51.1737 217.858 48.43 217.858 44.0123C217.858 39.5946 220.43 36.8509 224.572 36.8509C228.714 36.8509 231.235 39.5946 231.235 44.0123C231.235 48.43 228.681 51.1737 224.572 51.1737Z" fill="white"/>
<path d="M254.792 30.8604C246.814 30.8604 242.237 35.0909 242.237 42.4698V56.6155H248.627V42.4698C248.627 38.7298 250.759 36.7523 254.792 36.7523H255V30.8604H254.792Z" fill="white"/>
<path d="M97.566 21.2587C96.643 18.7502 94.3191 17.4277 90.655 17.324C89.3931 17.2936 89.2262 17.1217 89.2237 17.147C89.2237 17.1368 89.2161 17.0483 89.3198 16.6893C89.4007 16.4111 89.5145 16.1001 89.6561 15.7713C90.8623 13.1617 91.229 10.5975 90.7435 8.1472L90.6525 7.6895C90.4906 6.95364 90.3313 6.4049 90.1771 6.05594C90.0203 5.70697 89.7598 5.30743 89.4083 4.87502C88.3058 3.38812 86.695 2.37157 84.6265 1.85318C83.5265 1.54973 82.5276 1.38789 81.6578 1.36766C80.7803 1.34743 79.7511 1.45364 78.6005 1.68123L78.4817 1.70399C76.3069 2.13387 74.1247 3.02651 71.9955 4.35916C68.5867 6.42007 67.0948 7.86398 67.3021 8.90329C67.3729 9.26237 67.598 9.65432 67.9874 10.0994C68.3693 10.5369 68.7435 10.8327 69.095 10.9819C69.4895 11.1387 69.8941 11.1817 70.2987 11.1008C70.7437 11.0123 71.1913 10.7821 71.6237 10.418C72.2407 9.92237 73.1258 9.31295 74.2536 8.60743C75.389 7.89938 76.3449 7.34053 77.0858 6.95364C78.3072 6.38973 79.5437 5.98007 80.7601 5.73984L81.0863 5.67663C82.4113 5.46421 83.5695 5.48697 84.5329 5.7449C85.3446 5.95479 85.8656 6.23295 86.078 6.57433C86.3056 6.94099 86.4548 7.30007 86.523 7.63892C86.604 8.04858 86.6267 8.53409 86.5913 9.09294C86.5534 11.2778 85.5722 13.718 83.6732 16.3479C82.8538 17.4883 82.0446 18.4745 81.2658 19.2812C80.3529 20.2244 79.9635 20.4672 79.7612 20.5279C79.7561 20.5203 79.746 20.5127 79.7359 20.4975C79.7132 20.4672 79.6702 20.3863 79.6348 20.1966L79.4097 19.0587C79.3313 18.5782 79.2276 17.9309 79.1012 17.1141L78.5929 14.029C78.421 12.9923 78.2819 12.1982 78.1757 11.6647L77.7812 9.66697L76.9644 9.16628C76.3651 8.82237 75.8265 8.69593 75.3637 8.78444C75.1968 8.81731 75.0401 8.878 74.9086 8.96145C74.3421 9.29777 74.0488 9.95777 74.0437 10.9313C74.1095 13.0201 74.5621 16.2189 75.3966 20.4368C75.5635 21.2814 75.7481 22.1716 75.9479 23.1047C76.5042 25.7598 76.9847 27.8132 77.3741 29.2065C77.7635 30.5973 78.2237 31.9097 78.7421 33.1033C78.9166 33.5028 79.038 33.8063 79.1012 34.001C79.1619 34.1932 79.2049 34.3499 79.2302 34.4713L79.2605 34.618C79.2706 34.7394 79.2555 34.8759 79.2074 35.0479C79.1771 35.2426 79.1568 35.4423 79.1467 35.6497C79.1366 35.8697 79.1417 36.0391 79.167 36.1681C79.2428 36.5474 79.4906 36.9444 79.9256 37.3869C80.1683 37.6322 80.4187 37.8345 80.6715 37.9938L81.2405 38.2821C81.4909 38.3428 81.764 38.3731 82.0522 38.3731C82.3405 38.3731 82.6743 38.3403 83.0132 38.2745C83.9513 38.0899 85.0538 37.6525 86.2955 36.9722C87.3676 36.3451 88.5966 35.4904 89.9469 34.4309C91.2998 33.3713 92.5338 32.3067 93.6212 31.2623C95.7504 29.0826 97.1159 27.0621 97.6849 25.2516C97.8593 24.5916 97.9403 23.972 97.9226 23.4132C97.9049 22.8543 97.8669 22.4194 97.8012 22.0906C97.743 21.7948 97.6621 21.5141 97.5584 21.2587H97.566ZM80.9143 26.0506C80.9345 25.8256 81.0433 25.507 81.7412 25.3679C81.8171 25.3527 81.9561 25.3122 82.3127 25.1226C82.558 24.9911 82.8159 24.8394 83.0764 24.6649C84.0879 23.9644 85.2435 23.3651 86.5154 22.8872C87.7925 22.4067 88.9481 22.0628 89.9469 21.8681C90.2605 21.8049 90.569 21.7543 90.8699 21.7088C91.3883 21.6355 91.8207 21.5975 92.1596 21.5975C92.3872 21.5975 92.5718 21.6152 92.7159 21.6481C93.0219 21.7214 93.1964 21.8883 93.2697 22.1893C93.4518 23.1047 92.7892 24.4727 91.2998 26.2529C89.7826 28.0686 87.7191 29.9272 85.1727 31.7706C84.2219 32.461 83.8577 32.6683 83.7161 32.724C83.4405 32.8302 83.3368 32.858 83.2964 32.8656C83.0663 32.9136 82.9853 32.8428 82.9702 32.8276C82.9246 32.7821 82.7856 32.5849 82.4821 31.7555C82.252 31.1258 82.0067 30.3899 81.7538 29.5681C81.5035 28.7513 81.3189 28.1065 81.2051 27.6564C81.0913 27.2063 81.018 26.8927 80.9851 26.7207C80.9017 26.2959 80.9067 26.1265 80.9194 26.0506H80.9143Z" fill="#0B236D"/>
<path d="M116.719 18.0876C116.547 17.2228 116.342 16.4743 116.102 15.8623C115.75 15.0253 115.179 14.0947 114.4 13.0984C112.941 11.1513 111.302 10.0133 109.535 9.71748C109.054 9.62392 108.604 9.58852 108.197 9.62139C107.8 9.64921 107.223 9.73771 106.488 9.88185C105.939 9.99059 105.512 10.0841 105.218 10.1575C104.917 10.2333 104.654 10.3396 104.437 10.4736C104.227 10.6025 103.977 10.7897 103.688 11.0299C101.094 13.2223 100.067 16.5678 100.634 20.9729C100.674 21.2662 100.722 21.5494 100.775 21.8225C101.299 24.4726 102.399 26.703 104.047 28.4503C105.876 30.4051 108.136 31.5152 110.759 31.7503C110.974 31.7756 111.183 31.7883 111.393 31.7883C111.712 31.7883 112.026 31.7579 112.326 31.6998C113.672 31.4342 114.767 30.5441 115.578 29.0598C117.131 26.5765 117.579 23.2589 116.911 19.1952C116.85 18.8083 116.787 18.4366 116.716 18.0851L116.719 18.0876ZM112.789 22.0046C112.726 22.9807 112.529 23.9315 112.205 24.8267C111.886 25.7092 111.492 26.3945 111.044 26.8522C110.766 27.1025 110.435 27.2644 110.058 27.3402C109.722 27.406 109.348 27.3933 108.948 27.3048C108.081 27.1025 107.315 26.6069 106.685 25.8483C105.982 24.8823 105.486 23.6938 105.213 22.3131C105.13 21.8959 105.066 21.4483 105.023 20.9855C104.846 19.0258 105.117 17.3947 105.823 16.143C106.338 15.3136 106.88 14.7572 107.428 14.4867C107.995 14.206 108.45 14.0315 108.781 13.9658C109.006 13.9228 109.229 13.9 109.446 13.9C109.676 13.9 109.901 13.9253 110.114 13.9708C110.883 14.2313 111.593 15.129 112.218 16.626C112.321 16.9092 112.415 17.2556 112.493 17.6526C112.574 18.0623 112.64 18.5251 112.693 19.0333C112.809 20.0347 112.842 21.0336 112.789 22.0021V22.0046Z" fill="#0B236D"/>
<path d="M134.772 5.74725C133.434 4.25024 131.679 3.7015 129.56 4.11874C129.221 4.18449 128.872 4.27805 128.521 4.39943C127.069 4.89001 125.84 5.92932 124.867 7.48955C124.606 7.89667 124.371 8.22794 124.171 8.46817C124.032 8.61989 123.949 8.69575 123.906 8.73115C123.885 8.71345 123.858 8.68564 123.825 8.64518C123.744 8.54655 123.668 8.43529 123.61 8.33414C123.319 7.66656 122.881 7.1861 122.305 6.90541C121.792 6.66771 121.286 6.59184 120.8 6.69047C120.767 6.69805 120.616 6.74104 120.348 6.8169C120.011 6.91552 119.764 7.28219 119.587 7.96495C119.518 8.49851 119.632 9.51253 119.938 11.0601C119.986 11.2978 120.128 11.9755 120.365 13.0957C120.601 14.2134 121.058 15.9507 121.718 18.2594C122.381 20.5757 123.053 22.6013 123.713 24.2803C124.518 26.2856 125.516 27.4084 126.682 27.6183H126.687C126.781 27.6334 126.877 27.641 126.97 27.641C127.084 27.641 127.195 27.6309 127.304 27.6081C127.641 27.5424 127.934 27.3502 128.161 27.0518C128.258 26.9456 128.295 26.7686 128.288 26.4576C128.28 26.2072 128.232 25.8127 128.144 25.2792C128.055 24.7507 127.919 24.0148 127.734 23.0741C127.529 22.0348 127.378 21.2105 127.287 20.6187C127.195 20.0396 127.14 19.5187 127.117 19.0762C127.094 18.6413 127.104 18.1077 127.147 17.4882C127.228 13.9479 127.772 11.4875 128.768 10.1599C129.471 9.09023 130.311 8.44793 131.264 8.24311L131.431 8.21023C131.676 8.15966 131.896 8.15207 132.084 8.17989C132.273 8.21023 132.554 8.3215 132.921 8.51368C133.555 8.83736 134.069 8.95368 134.483 8.87023C134.794 8.80954 135.045 8.62747 135.227 8.33414C135.432 8.00793 135.485 7.59575 135.391 7.11529C135.298 6.64242 135.093 6.18725 134.769 5.74219L134.772 5.74725Z" fill="#0B236D"/>
<path d="M157.735 20.1309C157.687 19.8882 157.593 19.6353 157.452 19.3799C157.148 18.8261 156.698 18.381 156.109 18.0599L156.086 18.0498C155.765 17.9208 155.517 17.716 155.325 17.4201C155.125 17.1116 154.915 16.5047 154.7 15.6171C154.48 14.7144 154.174 13.2603 153.788 11.2955L152.753 6.0484L151.684 4.63231C149.967 2.37668 148.004 1.4461 145.845 1.87346C145.68 1.90633 145.509 1.94932 145.326 2.00243C143.711 2.50817 142.459 3.52219 141.609 5.01162C140.772 6.47828 140.216 8.00817 139.955 9.55322C139.584 11.2829 139.389 12.8912 139.374 14.33C139.359 15.7688 139.442 16.9548 139.619 17.8551C139.796 18.7553 140.074 19.6403 140.446 20.4976C140.975 21.5571 141.68 22.4725 142.545 23.2185C143.415 23.9746 144.317 24.4323 145.223 24.5815C145.423 24.6144 145.622 24.6295 145.82 24.6295C146.05 24.6295 146.28 24.6068 146.507 24.5638C148.141 24.2401 149.635 22.7431 150.948 20.1157C151.11 19.8148 151.269 19.5468 151.421 19.3192C151.512 19.1826 151.57 19.1093 151.6 19.0739C151.646 19.1068 151.727 19.1751 151.863 19.3091C152.088 19.5367 152.341 19.8199 152.609 20.1436C153.679 21.5015 154.723 22.2171 155.707 22.2652C155.894 22.2803 156.081 22.2753 156.258 22.2399C156.506 22.1918 156.739 22.0983 156.943 21.9693C157.325 21.7468 157.583 21.456 157.71 21.0944C157.796 20.7859 157.806 20.4596 157.74 20.1259L157.735 20.1309ZM144.874 19.9539C144.8 19.9691 144.74 19.9539 144.679 19.916C144.538 19.8224 144.335 19.5367 144.173 18.7174L144.151 18.6036C143.969 17.5187 143.923 16.1937 144.012 14.6638C144.1 13.1289 144.343 11.6369 144.73 10.2335C145.256 8.56702 145.815 7.44426 146.391 6.89805C147.104 6.22035 147.468 6.03575 147.65 6.00035C147.703 5.99024 147.757 5.98518 147.805 5.98518C148.05 5.98518 148.257 6.11162 148.434 6.36449C148.51 6.50863 148.586 6.66794 148.659 6.83736C148.73 6.9992 148.776 7.1307 148.793 7.22426C148.824 7.37093 148.826 7.82863 148.677 9.16633C148.556 10.2512 148.396 11.4017 148.202 12.5801C148.007 13.756 147.832 14.6638 147.678 15.2783C147.425 16.1355 147.069 17.0079 146.614 17.8652C146.166 18.7148 145.741 19.3091 145.359 19.6302C145.251 19.7137 145.139 19.7895 145.028 19.8603C144.907 19.9337 144.869 19.9514 144.871 19.9514L144.874 19.9539Z" fill="#0B236D"/>
</g>
<defs>
<clipPath id="clip0_912_14068">
<rect width="255" height="66.574" fill="white"/>
</clipPath>
</defs>
</svg>
