<svg width="256" height="67" viewBox="0 0 256 67" fill="none" xmlns="http://www.w3.org/2000/svg">
<g clip-path="url(#clip0_107_11750)">
<path d="M35.6474 15.1884C35.2324 15.1276 34.8148 15.0947 34.4049 15.0947C28.2325 15.0947 23.8165 21.8643 22.2044 24.7771C21.8603 25.3971 21.9185 26.1589 22.3487 26.7182C22.7131 27.1889 23.28 27.4445 23.8747 27.3989C24.4719 27.3534 25.0008 27.0142 25.2944 26.4904C26.9115 23.5978 30.2444 18.744 34.4226 18.744C34.6503 18.744 34.8806 18.7617 35.1058 18.7971C38.5147 19.3083 40.3747 25.4275 39.7345 34.0217C38.874 45.5743 33.7216 57.9417 27.4227 57.9417C18.3046 57.9417 7.03805 43.8914 4.55292 32.8171C3.75576 29.264 3.56595 24.6708 7.20001 22.9525C7.70362 22.7146 8.2629 22.5957 8.85761 22.5957C13.1674 22.5957 18.6311 28.4871 21.4224 34.1811C23.3002 38.0101 23.1458 40.1561 22.6524 40.4066C22.5638 40.4522 22.4524 40.4749 22.3208 40.4749C20.9669 40.4749 17.925 38.1315 15.2451 35.0213C14.6073 34.2824 13.5065 34.171 12.7397 34.7733C12.3424 35.0821 12.0994 35.5275 12.0488 36.0285C11.9982 36.5296 12.1526 37.018 12.4815 37.4002C14.6326 39.903 18.7804 44.1014 22.4044 44.1014C23.0851 44.1014 23.7254 43.9521 24.3049 43.656C27.2253 42.173 27.3721 38.0303 24.6971 32.5741C21.4579 25.9665 14.7946 18.9414 8.8323 18.9414C7.71627 18.9414 6.64326 19.1818 5.64111 19.655C1.10613 21.7985 -0.543874 26.7561 0.994781 33.6143C3.81902 46.2069 16.5711 61.5859 27.4227 61.5859C37.019 61.5859 42.5258 45.6249 43.3711 34.2899C44.1986 23.1777 41.3111 16.0361 35.6474 15.1858V15.1884Z" fill="#009FE3"/>
<path d="M32.8356 10.5978C33.2355 10.6864 33.6404 10.7294 34.0377 10.7294C35.4498 10.7294 36.8038 10.1828 37.816 9.17305C39.1117 7.87734 39.6457 6.01476 39.2408 4.19013C38.8081 2.24404 37.2112 0.644649 35.2651 0.211902C33.443 -0.193007 31.5804 0.340967 30.2822 1.63668C28.9865 2.93239 28.4525 4.79497 28.8574 6.61959C29.2902 8.56568 30.887 10.1651 32.8356 10.5953V10.5978Z" fill="#009FE3"/>
<path d="M5.52208 14.7839C5.92446 14.8724 6.32683 14.9155 6.72415 14.9155C8.13627 14.9155 9.49272 14.3688 10.5025 13.3566C11.7982 12.0608 12.3321 10.1983 11.9272 8.37617C11.4945 6.43007 9.89763 4.83068 7.95153 4.39794C6.12944 3.99303 4.26686 4.527 2.97115 5.82271C1.67544 7.11842 1.14147 8.981 1.54637 10.8031C1.97912 12.7492 3.57598 14.3486 5.52208 14.7813V14.7839Z" fill="#009FE3"/>
<path d="M55.0247 20.8999C53.0963 20.8999 51.5298 22.4689 51.5298 24.3948C51.5298 26.3206 53.0659 27.9403 55.0247 27.9403C56.9834 27.9403 58.5195 26.3839 58.5195 24.3948C58.5195 22.4057 56.9505 20.8999 55.0247 20.8999Z" fill="#0B236D"/>
<path d="M58.2232 31.4121H51.8281V56.7392H58.2232V31.4121Z" fill="#0B236D"/>
<path d="M91.1981 30.9644C87.4451 30.9644 84.5956 32.255 82.728 34.7983C80.8603 32.2525 78.0108 30.9644 74.2578 30.9644C65.7572 30.9644 62.5913 37.5416 62.5913 41.6843V56.7394H68.9863V41.8336C68.9863 38.2021 71.7094 36.9089 74.2603 36.9089C76.8112 36.9089 79.5342 38.2021 79.5342 41.8336V56.7394H85.9293V41.8336C85.9293 38.2021 88.6523 36.9089 91.2032 36.9089C93.7541 36.9089 96.4771 38.2021 96.4771 41.8336V56.7394H102.872V41.6843C102.872 37.5391 99.7038 30.9644 91.2057 30.9644H91.1981Z" fill="#0B236D"/>
<path d="M120.496 31.0151C112.717 31.0151 107.283 36.365 107.283 44.0279V66.7053H113.678V54.6492C115.181 56.2157 117.788 57.1394 120.795 57.1394C128.25 57.1394 133.458 51.7465 133.458 44.0279C133.458 36.3093 128.25 31.0151 120.496 31.0151ZM127.063 44.076C127.063 48.4946 124.489 51.2429 120.344 51.2429C116.199 51.2429 113.676 48.4971 113.676 44.076C113.676 39.6549 116.232 36.9091 120.344 36.9091C124.456 36.9091 127.063 39.6549 127.063 44.076Z" fill="#0B236D"/>
<path d="M150.14 31.063C142.328 31.063 137.077 36.2914 137.077 44.0758C137.077 51.8601 142.265 57.1872 149.69 57.1872C152.726 57.1872 155.351 56.2661 156.856 54.697V56.7393H163.249V44.177C163.249 36.3344 157.98 31.0655 150.138 31.0655L150.14 31.063ZM150.191 51.2933C146.048 51.2933 143.472 48.5475 143.472 44.1264C143.472 39.7053 146.045 36.9595 150.191 36.9595C154.336 36.9595 156.859 39.7053 156.859 44.1264C156.859 48.5475 154.303 51.2933 150.191 51.2933Z" fill="#0B236D"/>
<path d="M186.321 47.4364C185.296 49.9241 183.117 51.2932 180.187 51.2932C176.075 51.2932 173.519 48.5474 173.519 44.1263C173.519 39.7052 176.075 36.9594 180.187 36.9594C183.087 36.9594 185.248 38.2779 186.273 40.6694L186.326 40.7959H192.952L192.893 40.5428C191.56 34.697 186.708 31.0654 180.235 31.0654C172.392 31.0654 167.124 36.2938 167.124 44.0782C167.124 51.8626 172.392 57.1897 180.235 57.1897C186.789 57.1897 191.54 53.591 192.942 47.5629L193 47.3073H186.372L186.319 47.4364H186.321Z" fill="#0B236D"/>
<path d="M203.112 45.0225V37.309H208.791V31.4125H203.112V21.4492H196.717V45.0731C196.717 52.9334 201.113 57.0888 209.431 57.0888H209.639V51.1923H209.431C204.884 51.1923 203.112 49.4613 203.112 45.0225Z" fill="#0B236D"/>
<path d="M225.127 31.063C217.315 31.063 212.063 36.2914 212.063 44.0758C212.063 51.8601 217.251 57.1872 224.676 57.1872C227.713 57.1872 230.338 56.2661 231.843 54.697V56.7393H238.236V44.177C238.236 36.3344 232.967 31.0655 225.124 31.0655L225.127 31.063ZM225.177 51.2933C221.035 51.2933 218.459 48.5475 218.459 44.1264C218.459 39.7053 221.032 36.9595 225.177 36.9595C229.323 36.9595 231.846 39.7053 231.846 44.1264C231.846 48.5475 229.29 51.2933 225.177 51.2933Z" fill="#0B236D"/>
<path d="M255.422 30.9644C247.437 30.9644 242.857 35.1982 242.857 42.5827V56.7394H249.252V42.5827C249.252 38.8398 251.385 36.8608 255.422 36.8608H255.629V30.9644H255.422Z" fill="#0B236D"/>
<path d="M98.0742 21.3556C97.1505 18.8451 94.8248 17.5216 91.1579 17.4178C89.8951 17.3874 89.728 17.2154 89.7255 17.2407C89.7255 17.2305 89.7179 17.142 89.8217 16.7826C89.9026 16.5042 90.0165 16.193 90.1582 15.864C91.3654 13.2523 91.7323 10.6862 91.2464 8.23397L91.1553 7.77591C90.9934 7.03949 90.8339 6.49033 90.6796 6.14109C90.5227 5.79186 90.262 5.39201 89.9102 4.95927C88.8069 3.47122 87.1948 2.45389 85.1247 1.9351C84.0239 1.63142 83.0243 1.46945 82.1537 1.44921C81.2756 1.42896 80.2456 1.53525 79.0941 1.76301L78.9752 1.78579C76.7988 2.21601 74.6148 3.10934 72.484 4.44301C69.0726 6.50551 67.5795 7.95053 67.787 8.99064C67.8579 9.35 68.0831 9.74225 68.4728 10.1877C68.855 10.6255 69.2295 10.9216 69.5813 11.0709C69.976 11.2278 70.381 11.2708 70.7859 11.1898C71.2313 11.1012 71.6792 10.8709 72.1119 10.5065C72.7294 10.0105 73.6152 9.40061 74.7439 8.69455C75.8801 7.98596 76.8367 7.42668 77.5782 7.03949C78.8005 6.47514 80.038 6.06517 81.2553 5.82476L81.5818 5.76149C82.9078 5.54891 84.0669 5.57169 85.0311 5.82982C85.8434 6.03987 86.3647 6.31824 86.5773 6.65988C86.8051 7.02683 86.9544 7.38619 87.0227 7.7253C87.1037 8.13527 87.1265 8.62116 87.0911 9.18044C87.0531 11.367 86.0712 13.8091 84.1707 16.441C83.3507 17.5823 82.5409 18.5693 81.7614 19.3766C80.8479 20.3205 80.4581 20.5635 80.2557 20.6242C80.2506 20.6166 80.2405 20.609 80.2304 20.5938C80.2076 20.5634 80.1646 20.4825 80.1292 20.2927L79.9039 19.1539C79.8255 18.673 79.7217 18.0252 79.5952 17.2078L79.0865 14.1203C78.9144 13.0828 78.7752 12.2881 78.6689 11.7541L78.2742 9.75491L77.4567 9.25383C76.857 8.90966 76.3179 8.78313 75.8548 8.8717C75.6878 8.9046 75.5309 8.96533 75.3993 9.04885C74.8324 9.38543 74.5389 10.0459 74.5338 11.0202C74.5996 13.1106 75.0526 16.3119 75.8877 20.5331C76.0548 21.3783 76.2395 22.2691 76.4394 23.203C76.9962 25.8602 77.477 27.9151 77.8667 29.3095C78.2564 30.7014 78.717 32.0148 79.2358 33.2093C79.4104 33.6091 79.5319 33.9128 79.5952 34.1077C79.6559 34.3 79.6989 34.4569 79.7242 34.5784L79.7546 34.7251C79.7647 34.8466 79.7495 34.9833 79.7015 35.1554C79.6711 35.3502 79.6508 35.5501 79.6407 35.7577C79.6306 35.9778 79.6357 36.1474 79.661 36.2765C79.7369 36.6561 79.9849 37.0534 80.4202 37.4962C80.6631 37.7417 80.9137 37.9442 81.1667 38.1036L81.7361 38.3921C81.9867 38.4528 82.26 38.4832 82.5485 38.4832C82.837 38.4832 83.171 38.4503 83.5101 38.3845C84.449 38.1998 85.5524 37.762 86.795 37.0812C87.868 36.4536 89.0979 35.5982 90.4493 34.5379C91.8032 33.4775 93.0382 32.4121 94.1264 31.3669C96.2572 29.1855 97.6238 27.1635 98.1932 25.3515C98.3678 24.691 98.4488 24.071 98.431 23.5117C98.4133 22.9524 98.3754 22.5171 98.3096 22.1881C98.2514 21.8921 98.1704 21.6112 98.0666 21.3556H98.0742ZM81.4097 26.1512C81.4299 25.926 81.5387 25.6071 82.2372 25.4679C82.3131 25.4527 82.4523 25.4122 82.8091 25.2224C83.0546 25.0908 83.3127 24.939 83.5734 24.7644C84.5857 24.0634 85.7422 23.4636 87.0151 22.9853C88.2931 22.5045 89.4497 22.1603 90.4493 21.9655C90.7631 21.9022 91.0718 21.8516 91.373 21.806C91.8918 21.7326 92.3245 21.6947 92.6636 21.6947C92.8914 21.6947 93.0761 21.7124 93.2204 21.7453C93.5266 21.8187 93.7012 21.9857 93.7746 22.2868C93.9568 23.203 93.2938 24.5721 91.8032 26.3537C90.2848 28.1707 88.2197 30.0307 85.6713 31.8756C84.7198 32.5665 84.3554 32.774 84.2137 32.8297C83.9378 32.936 83.8341 32.9638 83.7936 32.9714C83.5633 33.0195 83.4823 32.9486 83.4671 32.9334C83.4216 32.8879 83.2824 32.6905 82.9787 31.8604C82.7484 31.2303 82.5029 30.4938 82.2499 29.6714C81.9993 28.854 81.8146 28.2086 81.7007 27.7582C81.5868 27.3077 81.5134 26.9939 81.4805 26.8218C81.397 26.3967 81.4021 26.2271 81.4147 26.1512H81.4097Z" fill="#009FE3"/>
<path d="M117.242 18.182C117.07 17.3165 116.865 16.5674 116.624 15.955C116.272 15.1174 115.7 14.1861 114.921 13.189C113.461 11.2404 111.821 10.1015 110.052 9.80546C109.571 9.71182 109.121 9.67639 108.713 9.70929C108.316 9.73713 107.739 9.8257 107.003 9.96995C106.453 10.0788 106.026 10.1724 105.732 10.2458C105.431 10.3217 105.168 10.428 104.95 10.5621C104.74 10.6912 104.49 10.8785 104.201 11.1189C101.605 13.313 100.577 16.6611 101.144 21.0695C101.184 21.3631 101.233 21.6465 101.286 21.9198C101.81 24.572 102.91 26.8041 104.56 28.5528C106.39 30.509 108.653 31.6199 111.277 31.8553C111.492 31.8806 111.702 31.8933 111.912 31.8933C112.231 31.8933 112.545 31.8629 112.846 31.8047C114.192 31.539 115.288 30.6482 116.1 29.1626C117.654 26.6775 118.102 23.3573 117.434 19.2905C117.373 18.9033 117.31 18.5312 117.239 18.1795L117.242 18.182ZM113.309 22.102C113.246 23.0789 113.048 24.0304 112.724 24.9263C112.406 25.8095 112.011 26.4953 111.563 26.9534C111.284 27.2039 110.953 27.3659 110.576 27.4418C110.239 27.5076 109.865 27.4949 109.465 27.4064C108.597 27.2039 107.83 26.7079 107.2 25.9487C106.496 24.982 106 23.7925 105.727 22.4108C105.644 21.9932 105.58 21.5453 105.537 21.0822C105.36 19.1209 105.631 17.4886 106.337 16.2359C106.853 15.4059 107.395 14.8491 107.944 14.5783C108.511 14.2974 108.966 14.1228 109.298 14.057C109.523 14.014 109.746 13.9912 109.963 13.9912C110.194 13.9912 110.419 14.0165 110.632 14.0621C111.401 14.3227 112.112 15.2211 112.737 16.7193C112.841 17.0027 112.934 17.3494 113.013 17.7467C113.094 18.1567 113.16 18.6198 113.213 19.1285C113.329 20.1306 113.362 21.1303 113.309 22.0995V22.102Z" fill="#009FE3"/>
<path d="M135.308 5.83259C133.969 4.33443 132.213 3.78527 130.092 4.20283C129.753 4.26863 129.404 4.36227 129.052 4.48374C127.6 4.97469 126.37 6.0148 125.396 7.57623C125.135 7.98367 124.899 8.31519 124.7 8.55561C124.56 8.70745 124.477 8.78337 124.434 8.8188C124.414 8.80108 124.386 8.77324 124.353 8.73275C124.272 8.63406 124.196 8.52271 124.138 8.42148C123.847 7.75338 123.409 7.27255 122.832 6.99164C122.318 6.75376 121.812 6.67784 121.326 6.77654C121.293 6.78413 121.141 6.82715 120.873 6.90307C120.537 7.00177 120.289 7.36872 120.111 8.052C120.043 8.58597 120.157 9.60078 120.463 11.1496C120.511 11.3874 120.653 12.0657 120.891 13.1868C121.126 14.3053 121.584 16.0439 122.245 18.3544C122.908 20.6725 123.581 22.6996 124.242 24.38C125.046 26.3868 126.046 27.5104 127.213 27.7205H127.218C127.311 27.7356 127.407 27.7432 127.501 27.7432C127.615 27.7432 127.726 27.7331 127.835 27.7103C128.172 27.6445 128.465 27.4522 128.693 27.1536C128.789 27.0473 128.827 26.8702 128.82 26.5589C128.812 26.3083 128.764 25.9136 128.675 25.3796C128.587 24.8507 128.45 24.1142 128.265 23.1728C128.06 22.1327 127.908 21.3077 127.817 20.7155C127.726 20.136 127.671 19.6147 127.648 19.1718C127.625 18.7365 127.635 18.2026 127.678 17.5825C127.759 14.0396 128.303 11.5772 129.3 10.2486C130.004 9.17815 130.844 8.53536 131.798 8.33037L131.965 8.29748C132.211 8.24686 132.431 8.23927 132.618 8.26711C132.808 8.29748 133.089 8.40882 133.456 8.60116C134.091 8.92508 134.605 9.0415 135.02 8.95798C135.331 8.89725 135.581 8.71504 135.764 8.42148C135.969 8.09502 136.022 7.68252 135.928 7.20169C135.835 6.72845 135.63 6.27293 135.306 5.82753L135.308 5.83259Z" fill="#009FE3"/>
<path d="M158.289 20.2271C158.241 19.9841 158.147 19.7311 158.006 19.4755C157.702 18.9213 157.252 18.4759 156.662 18.1545L156.639 18.1443C156.318 18.0153 156.07 17.8103 155.877 17.5142C155.677 17.2055 155.467 16.5981 155.252 15.7098C155.032 14.8064 154.726 13.3512 154.339 11.3849L153.304 6.13373L152.233 4.71654C150.515 2.45917 148.551 1.52788 146.39 1.95557C146.225 1.98847 146.053 2.03149 145.871 2.08463C144.254 2.59077 143.001 3.60557 142.151 5.09615C141.313 6.56394 140.757 8.095 140.496 9.64125C140.124 11.3722 139.929 12.9818 139.914 14.4217C139.899 15.8617 139.982 17.0486 140.159 17.9495C140.336 18.8504 140.615 19.7361 140.987 20.594C141.516 21.6544 142.222 22.5705 143.087 23.3171C143.958 24.0737 144.861 24.5318 145.767 24.6811C145.967 24.714 146.167 24.7292 146.365 24.7292C146.595 24.7292 146.825 24.7064 147.053 24.6634C148.688 24.3395 150.183 22.8413 151.497 20.2119C151.659 19.9108 151.818 19.6425 151.97 19.4147C152.061 19.2781 152.119 19.2047 152.15 19.1693C152.195 19.2022 152.276 19.2705 152.413 19.4046C152.638 19.6324 152.891 19.9158 153.159 20.2397C154.23 21.5987 155.275 22.3149 156.26 22.363C156.447 22.3782 156.634 22.3731 156.811 22.3377C157.059 22.2896 157.292 22.196 157.497 22.0669C157.879 21.8442 158.137 21.5532 158.264 21.1913C158.35 20.8825 158.36 20.5561 158.294 20.222L158.289 20.2271ZM145.418 20.0499C145.345 20.0651 145.284 20.0499 145.223 20.012C145.082 19.9184 144.879 19.6324 144.717 18.8124L144.694 18.6986C144.512 17.6129 144.467 16.2868 144.555 14.7558C144.644 13.2196 144.887 11.7265 145.274 10.322C145.8 8.65428 146.36 7.53066 146.937 6.98403C147.65 6.30581 148.015 6.12107 148.197 6.08564C148.25 6.07552 148.303 6.07046 148.351 6.07046C148.597 6.07046 148.804 6.19699 148.981 6.45006C149.057 6.59431 149.133 6.75374 149.207 6.9233C149.277 7.08526 149.323 7.21686 149.341 7.31049C149.371 7.45727 149.374 7.91533 149.224 9.25406C149.103 10.3397 148.943 11.4912 148.748 12.6705C148.554 13.8472 148.379 14.7558 148.225 15.3707C147.972 16.2286 147.615 17.1017 147.159 17.9596C146.711 18.8099 146.286 19.4046 145.904 19.726C145.795 19.8095 145.684 19.8855 145.572 19.9563C145.451 20.0297 145.413 20.0474 145.416 20.0474L145.418 20.0499Z" fill="#009FE3"/>
</g>
<defs>
<clipPath id="clip0_107_11750">
<rect width="255.197" height="66.6253" fill="white" transform="translate(0.433105 0.0800781)"/>
</clipPath>
</defs>
</svg>
