<svg width="255" height="67" viewBox="0 0 255 67" fill="none" xmlns="http://www.w3.org/2000/svg">
<g clip-path="url(#clip0_912_13694)">
<path d="M35.1867 15.0965C34.772 15.0358 34.3547 15.0029 33.9451 15.0029C27.7775 15.0029 23.3649 21.7673 21.7541 24.6779C21.4102 25.2974 21.4683 26.0586 21.8982 26.6174C22.2623 27.0877 22.8288 27.3431 23.423 27.2976C24.0198 27.2521 24.5483 26.9133 24.8417 26.3898C26.4575 23.4995 29.7879 18.6494 33.9628 18.6494C34.1904 18.6494 34.4205 18.6671 34.6455 18.7025C38.0518 19.2133 39.9104 25.3277 39.2706 33.9153C38.4108 45.459 33.2623 57.8169 26.9683 57.8169C17.8573 57.8169 6.59937 43.7774 4.11615 32.7116C3.3196 29.1613 3.12995 24.5717 6.76121 22.8546C7.26443 22.6169 7.82328 22.4981 8.41753 22.4981C12.724 22.4981 18.1835 28.385 20.9727 34.0746C22.849 37.9006 22.6948 40.045 22.2017 40.2953C22.1131 40.3408 22.0019 40.3636 21.8704 40.3636C20.5175 40.3636 17.478 38.022 14.8001 34.9142C14.1628 34.1758 13.0628 34.0645 12.2966 34.6664C11.8996 34.9749 11.6568 35.4199 11.6063 35.9206C11.5557 36.4213 11.7099 36.9093 12.0387 37.2912C14.1881 39.7921 18.3327 43.9873 21.9538 43.9873C22.6341 43.9873 23.2738 43.8381 23.8529 43.5422C26.7711 42.0604 26.9177 37.9208 24.2449 32.4689C21.0081 25.8664 14.3499 18.8466 8.39224 18.8466C7.27707 18.8466 6.20489 19.0868 5.20351 19.5597C0.672019 21.7015 -0.976715 26.6553 0.560755 33.5082C3.38282 46.0912 16.1251 61.4583 26.9683 61.4583C36.5573 61.4583 42.0598 45.5096 42.9044 34.1834C43.7313 23.0797 40.846 15.9436 35.1867 15.094V15.0965Z" fill="#009FE3"/>
<path d="M32.3774 10.5096C32.7769 10.5981 33.1815 10.6411 33.5785 10.6411C34.9896 10.6411 36.3425 10.0949 37.3539 9.08597C38.6487 7.79125 39.1822 5.93011 38.7776 4.10689C38.3452 2.16229 36.7496 0.564135 34.805 0.131722C32.9843 -0.272876 31.1231 0.260687 29.8259 1.5554C28.5312 2.85011 27.9976 4.71126 28.4022 6.53447C28.8346 8.47907 30.4303 10.0772 32.3774 10.5071V10.5096Z" fill="#009FE3"/>
<path d="M5.08385 14.6923C5.48592 14.7808 5.88799 14.8238 6.285 14.8238C7.69604 14.8238 9.05144 14.2775 10.0604 13.2661C11.3551 11.9713 11.8887 10.1102 11.4841 8.28951C11.0517 6.34491 9.45603 4.74675 7.51144 4.31434C5.69075 3.90974 3.8296 4.4433 2.53489 5.73802C1.24018 7.03273 0.706617 8.89387 1.11121 10.7146C1.54363 12.6592 3.13926 14.2573 5.08385 14.6897V14.6923Z" fill="#009FE3"/>
<path d="M54.5508 20.8037C52.6239 20.8037 51.0586 22.3715 51.0586 24.2959C51.0586 26.2203 52.5935 27.8386 54.5508 27.8386C56.508 27.8386 58.043 26.2835 58.043 24.2959C58.043 22.3083 56.4751 20.8037 54.5508 20.8037Z" fill="#0B236D"/>
<path d="M57.7475 31.3076H51.3574V56.6152H57.7475V31.3076Z" fill="#0B236D"/>
<path d="M90.6961 30.8604C86.946 30.8604 84.0987 32.15 82.2325 34.6914C80.3663 32.1475 77.5189 30.8604 73.7688 30.8604C65.2748 30.8604 62.1113 37.4325 62.1113 41.5721V56.6155H68.5014V41.7213C68.5014 38.0925 71.2224 36.8003 73.7713 36.8003C76.3203 36.8003 79.0412 38.0925 79.0412 41.7213V56.6155H85.4313V41.7213C85.4313 38.0925 88.1522 36.8003 90.7012 36.8003C93.2502 36.8003 95.9711 38.0925 95.9711 41.7213V56.6155H102.361V41.5721C102.361 37.43 99.1952 30.8604 90.7037 30.8604H90.6961Z" fill="#0B236D"/>
<path d="M119.972 30.9111C112.199 30.9111 106.77 36.2569 106.77 43.9139V66.5739H113.16V54.527C114.662 56.0923 117.266 57.0152 120.27 57.0152C127.72 57.0152 132.924 51.6265 132.924 43.9139C132.924 36.2012 127.72 30.9111 119.972 30.9111ZM126.534 43.9619C126.534 48.3771 123.962 51.1233 119.82 51.1233C115.678 51.1233 113.157 48.3796 113.157 43.9619C113.157 39.5442 115.711 36.8006 119.82 36.8006C123.93 36.8006 126.534 39.5442 126.534 43.9619Z" fill="#0B236D"/>
<path d="M149.592 30.959C141.786 30.959 136.539 36.1833 136.539 43.9617C136.539 51.7401 141.723 57.0631 149.142 57.0631C152.177 57.0631 154.799 56.1426 156.304 54.5748V56.6155H162.691V44.0629C162.691 36.2263 157.426 30.9615 149.59 30.9615L149.592 30.959ZM149.643 51.1737C145.503 51.1737 142.929 48.43 142.929 44.0123C142.929 39.5946 145.501 36.8509 149.643 36.8509C153.785 36.8509 156.306 39.5946 156.306 44.0123C156.306 48.43 153.752 51.1737 149.643 51.1737Z" fill="#0B236D"/>
<path d="M185.747 47.3203C184.723 49.806 182.546 51.1741 179.618 51.1741C175.509 51.1741 172.955 48.4304 172.955 44.0127C172.955 39.595 175.509 36.8513 179.618 36.8513C182.516 36.8513 184.675 38.1688 185.699 40.5585L185.752 40.6849H192.373L192.315 40.432C190.982 34.5906 186.134 30.9619 179.666 30.9619C171.829 30.9619 166.564 36.1863 166.564 43.9647C166.564 51.743 171.829 57.066 179.666 57.066C186.215 57.066 190.962 53.4702 192.363 47.4467L192.421 47.1913H185.798L185.745 47.3203H185.747Z" fill="#0B236D"/>
<path d="M202.525 44.9077V37.2001H208.199V31.3082H202.525V21.3525H196.135V44.9583C196.135 52.8125 200.527 56.9647 208.839 56.9647H209.046V51.0727H208.839C204.295 51.0727 202.525 49.3431 202.525 44.9077Z" fill="#0B236D"/>
<path d="M224.522 30.959C216.716 30.959 211.469 36.1833 211.469 43.9617C211.469 51.7401 216.653 57.0631 224.072 57.0631C227.106 57.0631 229.729 56.1426 231.233 54.5748V56.6155H237.621V44.0629C237.621 36.2263 232.356 30.9615 224.52 30.9615L224.522 30.959ZM224.573 51.1737C220.433 51.1737 217.859 48.43 217.859 44.0123C217.859 39.5946 220.431 36.8509 224.573 36.8509C228.715 36.8509 231.236 39.5946 231.236 44.0123C231.236 48.43 228.682 51.1737 224.573 51.1737Z" fill="#0B236D"/>
<path d="M254.793 30.8604C246.815 30.8604 242.238 35.0909 242.238 42.4698V56.6155H248.628V42.4698C248.628 38.7298 250.76 36.7523 254.793 36.7523H255.001V30.8604H254.793Z" fill="#0B236D"/>
<path d="M97.566 21.2587C96.643 18.7502 94.3191 17.4277 90.655 17.324C89.3931 17.2936 89.2262 17.1217 89.2237 17.147C89.2237 17.1368 89.2161 17.0483 89.3198 16.6893C89.4007 16.4111 89.5145 16.1001 89.6561 15.7713C90.8623 13.1617 91.229 10.5975 90.7435 8.1472L90.6525 7.6895C90.4906 6.95364 90.3313 6.4049 90.1771 6.05594C90.0203 5.70697 89.7598 5.30743 89.4083 4.87502C88.3058 3.38812 86.695 2.37157 84.6265 1.85318C83.5265 1.54973 82.5276 1.38789 81.6578 1.36766C80.7803 1.34743 79.7511 1.45364 78.6005 1.68123L78.4817 1.70399C76.3069 2.13387 74.1247 3.02651 71.9955 4.35916C68.5867 6.42007 67.0948 7.86398 67.3021 8.90329C67.3729 9.26237 67.598 9.65432 67.9874 10.0994C68.3693 10.5369 68.7435 10.8327 69.095 10.9819C69.4895 11.1387 69.8941 11.1817 70.2987 11.1008C70.7437 11.0123 71.1913 10.7821 71.6237 10.418C72.2407 9.92237 73.1258 9.31295 74.2536 8.60743C75.389 7.89938 76.3449 7.34053 77.0858 6.95364C78.3072 6.38973 79.5437 5.98007 80.7601 5.73984L81.0863 5.67663C82.4113 5.46421 83.5695 5.48697 84.5329 5.7449C85.3446 5.95479 85.8656 6.23295 86.078 6.57433C86.3056 6.94099 86.4548 7.30007 86.523 7.63892C86.604 8.04858 86.6267 8.53409 86.5913 9.09294C86.5534 11.2778 85.5722 13.718 83.6732 16.3479C82.8538 17.4883 82.0446 18.4745 81.2658 19.2812C80.3529 20.2244 79.9635 20.4672 79.7612 20.5279C79.7561 20.5203 79.746 20.5127 79.7359 20.4975C79.7132 20.4672 79.6702 20.3863 79.6348 20.1966L79.4097 19.0587C79.3313 18.5782 79.2276 17.9309 79.1012 17.1141L78.5929 14.029C78.421 12.9923 78.2819 12.1982 78.1757 11.6647L77.7812 9.66697L76.9644 9.16628C76.3651 8.82237 75.8265 8.69593 75.3637 8.78444C75.1968 8.81731 75.0401 8.878 74.9086 8.96145C74.3421 9.29777 74.0488 9.95777 74.0437 10.9313C74.1095 13.0201 74.5621 16.2189 75.3966 20.4368C75.5635 21.2814 75.7481 22.1716 75.9479 23.1047C76.5042 25.7598 76.9847 27.8132 77.3741 29.2065C77.7635 30.5973 78.2237 31.9097 78.7421 33.1033C78.9166 33.5028 79.038 33.8063 79.1012 34.001C79.1619 34.1932 79.2049 34.3499 79.2302 34.4713L79.2605 34.618C79.2706 34.7394 79.2555 34.8759 79.2074 35.0479C79.1771 35.2426 79.1568 35.4423 79.1467 35.6497C79.1366 35.8697 79.1417 36.0391 79.167 36.1681C79.2428 36.5474 79.4906 36.9444 79.9256 37.3869C80.1683 37.6322 80.4187 37.8345 80.6715 37.9938L81.2405 38.2821C81.4909 38.3428 81.764 38.3731 82.0522 38.3731C82.3405 38.3731 82.6743 38.3403 83.0132 38.2745C83.9513 38.0899 85.0538 37.6525 86.2955 36.9722C87.3676 36.3451 88.5966 35.4904 89.9469 34.4309C91.2998 33.3713 92.5338 32.3067 93.6212 31.2623C95.7504 29.0826 97.1159 27.0621 97.6849 25.2516C97.8593 24.5916 97.9403 23.972 97.9226 23.4132C97.9049 22.8543 97.8669 22.4194 97.8012 22.0906C97.743 21.7948 97.6621 21.5141 97.5584 21.2587H97.566ZM80.9143 26.0506C80.9345 25.8256 81.0433 25.507 81.7412 25.3679C81.8171 25.3527 81.9561 25.3122 82.3127 25.1226C82.558 24.9911 82.8159 24.8394 83.0764 24.6649C84.0879 23.9644 85.2435 23.3651 86.5154 22.8872C87.7925 22.4067 88.9481 22.0628 89.9469 21.8681C90.2605 21.8049 90.569 21.7543 90.8699 21.7088C91.3883 21.6355 91.8207 21.5975 92.1596 21.5975C92.3872 21.5975 92.5718 21.6152 92.7159 21.6481C93.0219 21.7214 93.1964 21.8883 93.2697 22.1893C93.4518 23.1047 92.7892 24.4727 91.2998 26.2529C89.7826 28.0686 87.7191 29.9272 85.1727 31.7706C84.2219 32.461 83.8577 32.6683 83.7161 32.724C83.4405 32.8302 83.3368 32.858 83.2964 32.8656C83.0663 32.9136 82.9853 32.8428 82.9702 32.8276C82.9246 32.7821 82.7856 32.5849 82.4821 31.7555C82.252 31.1258 82.0067 30.3899 81.7538 29.5681C81.5035 28.7513 81.3189 28.1065 81.2051 27.6564C81.0913 27.2063 81.018 26.8927 80.9851 26.7207C80.9017 26.2959 80.9067 26.1265 80.9194 26.0506H80.9143Z" fill="#009FE3"/>
<path d="M116.719 18.0876C116.547 17.2228 116.342 16.4743 116.102 15.8623C115.75 15.0253 115.179 14.0947 114.4 13.0984C112.941 11.1513 111.302 10.0133 109.535 9.71748C109.054 9.62392 108.604 9.58852 108.197 9.62139C107.8 9.64921 107.223 9.73771 106.488 9.88185C105.939 9.99059 105.512 10.0841 105.218 10.1575C104.917 10.2333 104.654 10.3396 104.437 10.4736C104.227 10.6025 103.977 10.7897 103.688 11.0299C101.094 13.2223 100.067 16.5678 100.634 20.9729C100.674 21.2662 100.722 21.5494 100.775 21.8225C101.299 24.4726 102.399 26.703 104.047 28.4503C105.876 30.4051 108.136 31.5152 110.759 31.7503C110.974 31.7756 111.183 31.7883 111.393 31.7883C111.712 31.7883 112.026 31.7579 112.326 31.6998C113.672 31.4342 114.767 30.5441 115.578 29.0598C117.131 26.5765 117.579 23.2589 116.911 19.1952C116.85 18.8083 116.787 18.4366 116.716 18.0851L116.719 18.0876ZM112.789 22.0046C112.726 22.9807 112.529 23.9315 112.205 24.8267C111.886 25.7092 111.492 26.3945 111.044 26.8522C110.766 27.1025 110.435 27.2644 110.058 27.3402C109.722 27.406 109.348 27.3933 108.948 27.3048C108.081 27.1025 107.315 26.6069 106.685 25.8483C105.982 24.8823 105.486 23.6938 105.213 22.3131C105.13 21.8959 105.066 21.4483 105.023 20.9855C104.846 19.0258 105.117 17.3947 105.823 16.143C106.338 15.3136 106.88 14.7572 107.428 14.4867C107.995 14.206 108.45 14.0315 108.781 13.9658C109.006 13.9228 109.229 13.9 109.446 13.9C109.676 13.9 109.901 13.9253 110.114 13.9708C110.883 14.2313 111.593 15.129 112.218 16.626C112.321 16.9092 112.415 17.2556 112.493 17.6526C112.574 18.0623 112.64 18.5251 112.693 19.0333C112.809 20.0347 112.842 21.0336 112.789 22.0021V22.0046Z" fill="#009FE3"/>
<path d="M134.771 5.74725C133.433 4.25024 131.678 3.7015 129.559 4.11874C129.22 4.18449 128.871 4.27805 128.52 4.39943C127.068 4.89001 125.839 5.92932 124.866 7.48955C124.605 7.89667 124.37 8.22794 124.17 8.46817C124.031 8.61989 123.948 8.69575 123.905 8.73115C123.884 8.71345 123.857 8.68564 123.824 8.64518C123.743 8.54655 123.667 8.43529 123.609 8.33414C123.318 7.66656 122.88 7.1861 122.304 6.90541C121.791 6.66771 121.285 6.59184 120.799 6.69047C120.766 6.69805 120.615 6.74104 120.347 6.8169C120.01 6.91552 119.763 7.28219 119.586 7.96495C119.517 8.49851 119.631 9.51253 119.937 11.0601C119.985 11.2978 120.127 11.9755 120.364 13.0957C120.6 14.2134 121.057 15.9507 121.717 18.2594C122.38 20.5757 123.052 22.6013 123.712 24.2803C124.517 26.2856 125.515 27.4084 126.681 27.6183H126.686C126.78 27.6334 126.876 27.641 126.969 27.641C127.083 27.641 127.194 27.6309 127.303 27.6081C127.64 27.5424 127.933 27.3502 128.16 27.0518C128.257 26.9456 128.295 26.7686 128.287 26.4576C128.279 26.2072 128.231 25.8127 128.143 25.2792C128.054 24.7507 127.918 24.0148 127.733 23.0741C127.528 22.0348 127.377 21.2105 127.286 20.6187C127.194 20.0396 127.139 19.5187 127.116 19.0762C127.093 18.6413 127.103 18.1077 127.146 17.4882C127.227 13.9479 127.771 11.4875 128.767 10.1599C129.47 9.09023 130.31 8.44793 131.263 8.24311L131.43 8.21023C131.675 8.15966 131.895 8.15207 132.083 8.17989C132.272 8.21023 132.553 8.3215 132.92 8.51368C133.554 8.83736 134.068 8.95368 134.482 8.87023C134.793 8.80954 135.044 8.62747 135.226 8.33414C135.431 8.00793 135.484 7.59575 135.39 7.11529C135.297 6.64242 135.092 6.18725 134.768 5.74219L134.771 5.74725Z" fill="#009FE3"/>
<path d="M157.734 20.1309C157.686 19.8882 157.592 19.6353 157.451 19.3799C157.147 18.8261 156.697 18.381 156.108 18.0599L156.085 18.0498C155.764 17.9208 155.516 17.716 155.324 17.4201C155.124 17.1116 154.914 16.5047 154.7 15.6171C154.48 14.7144 154.174 13.2603 153.787 11.2955L152.752 6.0484L151.683 4.63231C149.966 2.37668 148.003 1.4461 145.844 1.87346C145.68 1.90633 145.508 1.94932 145.325 2.00243C143.71 2.50817 142.458 3.52219 141.608 5.01162C140.771 6.47828 140.215 8.00817 139.954 9.55322C139.583 11.2829 139.388 12.8912 139.373 14.33C139.358 15.7688 139.441 16.9548 139.618 17.8551C139.795 18.7553 140.073 19.6403 140.445 20.4976C140.974 21.5571 141.679 22.4725 142.544 23.2185C143.414 23.9746 144.317 24.4323 145.222 24.5815C145.422 24.6144 145.621 24.6295 145.819 24.6295C146.049 24.6295 146.279 24.6068 146.506 24.5638C148.14 24.2401 149.634 22.7431 150.947 20.1157C151.109 19.8148 151.268 19.5468 151.42 19.3192C151.511 19.1826 151.569 19.1093 151.599 19.0739C151.645 19.1068 151.726 19.1751 151.862 19.3091C152.087 19.5367 152.34 19.8199 152.608 20.1436C153.678 21.5015 154.722 22.2171 155.706 22.2652C155.893 22.2803 156.08 22.2753 156.257 22.2399C156.505 22.1918 156.738 22.0983 156.942 21.9693C157.324 21.7468 157.582 21.456 157.709 21.0944C157.795 20.7859 157.805 20.4596 157.739 20.1259L157.734 20.1309ZM144.873 19.9539C144.8 19.9691 144.739 19.9539 144.678 19.916C144.537 19.8224 144.334 19.5367 144.172 18.7174L144.15 18.6036C143.968 17.5187 143.922 16.1937 144.011 14.6638C144.099 13.1289 144.342 11.6369 144.729 10.2335C145.255 8.56702 145.814 7.44426 146.39 6.89805C147.103 6.22035 147.467 6.03575 147.649 6.00035C147.703 5.99024 147.756 5.98518 147.804 5.98518C148.049 5.98518 148.256 6.11162 148.433 6.36449C148.509 6.50863 148.585 6.66794 148.658 6.83736C148.729 6.9992 148.775 7.1307 148.792 7.22426C148.823 7.37093 148.825 7.82863 148.676 9.16633C148.555 10.2512 148.395 11.4017 148.201 12.5801C148.006 13.756 147.831 14.6638 147.677 15.2783C147.424 16.1355 147.068 17.0079 146.613 17.8652C146.165 18.7148 145.74 19.3091 145.358 19.6302C145.25 19.7137 145.138 19.7895 145.027 19.8603C144.906 19.9337 144.868 19.9514 144.87 19.9514L144.873 19.9539Z" fill="#009FE3"/>
</g>
<defs>
<clipPath id="clip0_912_13694">
<rect width="255" height="66.574" fill="white"/>
</clipPath>
</defs>
</svg>
