<svg width="258" height="74" viewBox="0 0 258 74" fill="none" xmlns="http://www.w3.org/2000/svg">
<g clip-path="url(#clip0_607_3257)">
<path d="M35.7254 16.7808C35.3079 16.7133 34.8878 16.6768 34.4753 16.6768C28.2651 16.6768 23.822 24.1957 22.2001 27.4309C21.8538 28.1195 21.9124 28.9656 22.3452 29.5868C22.7119 30.1096 23.2822 30.3935 23.8806 30.3429C24.4815 30.2923 25.0136 29.9156 25.309 29.3338C26.936 26.1211 30.2893 20.7299 34.4931 20.7299C34.7223 20.7299 34.954 20.7496 35.1806 20.789C38.6103 21.3567 40.4817 28.1533 39.8375 37.6987C38.9718 50.5301 33.7878 64.2665 27.4503 64.2665C18.2764 64.2665 6.94082 48.6609 4.44046 36.3608C3.63841 32.4144 3.44745 27.3128 7.10377 25.4043C7.61046 25.1401 8.17317 25.008 8.77152 25.008C13.1077 25.008 18.6049 31.5515 21.4133 37.8758C23.3026 42.1286 23.1473 44.5121 22.6508 44.7904C22.5617 44.841 22.4496 44.8663 22.3172 44.8663C20.955 44.8663 17.8945 42.2635 15.1981 38.809C14.5565 37.9883 13.4489 37.8646 12.6774 38.5336C12.2776 38.8765 12.0332 39.3712 11.9823 39.9277C11.9313 40.4843 12.0867 41.0267 12.4177 41.4512C14.5819 44.2311 18.7551 48.8942 22.4013 48.8942C23.0862 48.8942 23.7304 48.7283 24.3134 48.3995C27.2517 46.7523 27.3994 42.1511 24.7081 36.091C21.449 28.752 14.7449 20.9492 8.74606 20.9492C7.62319 20.9492 6.54361 21.2162 5.53532 21.7418C0.972555 24.1226 -0.687558 29.6289 0.860523 37.2462C3.70207 51.2328 16.5323 68.314 27.4503 68.314C37.1055 68.314 42.646 50.5863 43.4964 37.9967C44.329 25.6545 41.4238 17.7224 35.7254 16.7779V16.7808Z" fill="#00A2E7"/>
<path d="M32.896 11.6821C33.2983 11.7804 33.7057 11.8282 34.1054 11.8282C35.5262 11.8282 36.8884 11.2211 37.9069 10.0996C39.2105 8.66044 39.7478 6.59169 39.3404 4.56511C38.905 2.4036 37.2983 0.627171 35.3403 0.146524C33.5071 -0.303205 31.6331 0.289875 30.3269 1.72901C29.0232 3.16814 28.486 5.23689 28.8934 7.26348C29.3288 9.42498 30.9354 11.2014 32.896 11.6792V11.6821Z" fill="#00A2E7"/>
<path d="M5.4159 16.3315C5.82074 16.4298 6.22559 16.4776 6.62534 16.4776C8.04611 16.4776 9.41086 15.8705 10.4268 14.7462C11.7304 13.307 12.2677 11.2383 11.8603 9.21452C11.4249 7.05301 9.81825 5.27658 7.86024 4.79594C6.02698 4.34621 4.15299 4.93929 2.84934 6.37842C1.5457 7.81755 1.00845 9.8863 1.41584 11.9101C1.85124 14.0716 3.45788 15.848 5.4159 16.3287V16.3315Z" fill="#00A2E7"/>
<path d="M55.2214 23.124C53.2812 23.124 51.7051 24.8667 51.7051 27.0057C51.7051 29.1448 53.2506 30.9437 55.2214 30.9437C57.1921 30.9437 58.7376 29.215 58.7376 27.0057C58.7376 24.7965 57.159 23.124 55.2214 23.124Z" fill="white"/>
<path d="M58.4401 34.7998H52.0059V62.9303H58.4401V34.7998Z" fill="white"/>
<path d="M91.6161 34.3027C87.8401 34.3027 84.9731 35.7362 83.094 38.5611C81.2149 35.7334 78.3479 34.3027 74.5719 34.3027C66.0193 34.3027 62.834 41.608 62.834 46.2093V62.9308H69.2682V46.3751C69.2682 42.3416 72.0079 40.9053 74.5745 40.9053C77.141 40.9053 79.8807 42.3416 79.8807 46.3751V62.9308H86.3149V46.3751C86.3149 42.3416 89.0546 40.9053 91.6212 40.9053C94.1877 40.9053 96.9274 42.3416 96.9274 46.3751V62.9308H103.362V46.2093C103.362 41.6052 100.174 34.3027 91.6237 34.3027H91.6161Z" fill="white"/>
<path d="M121.093 34.3584C113.266 34.3584 107.8 40.3004 107.8 48.8115V73.9991H114.234V60.6085C115.746 62.3484 118.369 63.3743 121.394 63.3743C128.895 63.3743 134.135 57.3845 134.135 48.8115C134.135 40.2386 128.895 34.3584 121.093 34.3584ZM127.701 48.865C127.701 53.7726 125.111 56.8251 120.941 56.8251C116.77 56.8251 114.231 53.7754 114.231 48.865C114.231 43.9545 116.803 40.9048 120.941 40.9048C125.078 40.9048 127.701 43.9545 127.701 48.865Z" fill="white"/>
<path d="M150.92 34.4121C143.06 34.4121 137.776 40.2192 137.776 48.8653C137.776 57.5113 142.996 63.428 150.467 63.428C153.522 63.428 156.162 62.4049 157.677 60.6622V62.9305H164.109V48.9777C164.109 40.267 158.808 34.4149 150.917 34.4149L150.92 34.4121ZM150.971 56.8817C146.803 56.8817 144.211 53.8319 144.211 48.9215C144.211 44.011 146.8 40.9613 150.971 40.9613C155.141 40.9613 157.68 44.011 157.68 48.9215C157.68 53.8319 155.108 56.8817 150.971 56.8817Z" fill="white"/>
<path d="M187.322 52.5981C186.291 55.3611 184.099 56.8818 181.15 56.8818C177.013 56.8818 174.441 53.8321 174.441 48.9216C174.441 44.0111 177.013 40.9614 181.15 40.9614C184.068 40.9614 186.243 42.4258 187.274 45.082L187.327 45.2226H193.993L193.935 44.9415C192.593 38.4485 187.712 34.415 181.199 34.415C173.308 34.415 168.007 40.2222 168.007 48.8682C168.007 57.5142 173.308 63.431 181.199 63.431C187.793 63.431 192.572 59.434 193.983 52.7387L194.042 52.4548H187.373L187.32 52.5981H187.322Z" fill="white"/>
<path d="M204.216 49.917V41.3497H209.93V34.8005H204.216V23.7344H197.782V49.9732C197.782 58.7036 202.205 63.3189 210.574 63.3189H210.783V56.7697H210.574C205.999 56.7697 204.216 54.8471 204.216 49.917Z" fill="white"/>
<path d="M226.366 34.4121C218.506 34.4121 213.223 40.2192 213.223 48.8653C213.223 57.5113 218.442 63.428 225.913 63.428C228.968 63.428 231.609 62.4049 233.124 60.6622V62.9305H239.555V48.9777C239.555 40.267 234.254 34.4149 226.364 34.4149L226.366 34.4121ZM226.417 56.8817C222.249 56.8817 219.657 53.8319 219.657 48.9215C219.657 44.011 222.246 40.9613 226.417 40.9613C230.588 40.9613 233.126 44.011 233.126 48.9215C233.126 53.8319 230.555 56.8817 226.417 56.8817Z" fill="white"/>
<path d="M256.846 34.3027C248.813 34.3027 244.204 39.0052 244.204 47.2071V62.9308H250.638V47.2071C250.638 43.05 252.785 40.8519 256.846 40.8519H257.055V34.3027H256.846Z" fill="white"/>
<path d="M98.5348 23.6301C97.6054 20.8417 95.2655 19.3717 91.5761 19.2564C90.3055 19.2227 90.1375 19.0316 90.1349 19.0597C90.1349 19.0484 90.1273 18.9501 90.2317 18.5509C90.3132 18.2417 90.4277 17.896 90.5703 17.5306C91.7848 14.6299 92.154 11.7797 91.6652 9.05604L91.5735 8.54729C91.4106 7.72934 91.2501 7.1194 91.0948 6.73151C90.937 6.34362 90.6747 5.89951 90.3208 5.41886C89.2107 3.76611 87.5887 2.63617 85.506 2.05995C84.3984 1.72266 83.3926 1.54277 82.5167 1.52028C81.6332 1.49779 80.5969 1.61585 79.4384 1.86882L79.3187 1.89412C77.129 2.37195 74.9316 3.36417 72.7877 4.84546C69.3555 7.13626 67.8532 8.74123 68.062 9.89647C68.1333 10.2956 68.3599 10.7313 68.752 11.226C69.1365 11.7122 69.5134 12.0411 69.8673 12.207C70.2645 12.3812 70.6719 12.429 71.0793 12.3391C71.5274 12.2407 71.9781 11.9849 72.4135 11.5801C73.0347 11.0292 73.9259 10.3518 75.0615 9.56761C76.2047 8.78058 77.1672 8.1594 77.9132 7.72934C79.143 7.10253 80.3881 6.64718 81.6128 6.38016L81.9413 6.30989C83.2755 6.07378 84.4416 6.09908 85.4117 6.38578C86.2291 6.61908 86.7536 6.92826 86.9675 7.30772C87.1966 7.71529 87.3468 8.11442 87.4156 8.49107C87.4971 8.94642 87.52 9.48609 87.4843 10.1073C87.4461 12.5358 86.4582 15.2482 84.546 18.1715C83.7211 19.4391 82.9063 20.5354 82.1221 21.432C81.2029 22.4804 80.8108 22.7503 80.6071 22.8177C80.602 22.8093 80.5918 22.8009 80.5816 22.784C80.5587 22.7503 80.5154 22.6603 80.4798 22.4495L80.2532 21.1847C80.1742 20.6506 80.0698 19.931 79.9425 19.0231L79.4307 15.594C79.2576 14.4415 79.1176 13.5589 79.0106 12.9659L78.6134 10.7453L77.791 10.1888C77.1876 9.80653 76.6452 9.66599 76.1793 9.76436C76.0112 9.8009 75.8534 9.86836 75.721 9.96112C75.1506 10.335 74.8553 11.0686 74.8502 12.1507C74.9164 14.4725 75.3721 18.0281 76.2124 22.7165C76.3804 23.6553 76.5663 24.6448 76.7674 25.6819C77.3276 28.6333 77.8114 30.9157 78.2035 32.4644C78.5956 34.0103 79.059 35.4692 79.581 36.7959C79.7567 37.24 79.8789 37.5773 79.9425 37.7937C80.0036 38.0073 80.0469 38.1816 80.0724 38.3165L80.1029 38.4795C80.1131 38.6144 80.0979 38.7662 80.0495 38.9574C80.0189 39.1738 79.9985 39.3958 79.9884 39.6263C79.9782 39.8709 79.9833 40.0592 80.0087 40.2025C80.0851 40.6242 80.3346 41.0655 80.7726 41.5574C81.017 41.83 81.2691 42.0549 81.5237 42.2319L82.0966 42.5524C82.3487 42.6198 82.6237 42.6536 82.9139 42.6536C83.2042 42.6536 83.5403 42.617 83.8815 42.5439C84.8261 42.3388 85.9363 41.8525 87.1864 41.0964C88.266 40.3993 89.5035 39.4492 90.8631 38.2715C92.2253 37.0938 93.4679 35.9104 94.5627 34.7496C96.7066 32.3267 98.0816 30.0808 98.6545 28.0683C98.8301 27.3347 98.9116 26.646 98.8938 26.0249C98.876 25.4037 98.8378 24.9202 98.7716 24.5548C98.713 24.2259 98.6315 23.9139 98.5271 23.6301H98.5348ZM81.7682 28.9565C81.7885 28.7064 81.898 28.3522 82.6008 28.1976C82.6771 28.1807 82.8172 28.1358 83.1762 27.925C83.4232 27.7788 83.6829 27.6101 83.9451 27.4162C84.9636 26.6376 86.1272 25.9715 87.408 25.4402C88.6938 24.9062 89.8574 24.5239 90.8631 24.3075C91.1789 24.2372 91.4895 24.181 91.7925 24.1304C92.3145 24.0489 92.7499 24.0067 93.091 24.0067C93.3202 24.0067 93.5061 24.0264 93.6512 24.0629C93.9593 24.1444 94.135 24.3299 94.2088 24.6644C94.3921 25.6819 93.725 27.2026 92.2253 29.1814C90.6976 31.1995 88.6199 33.2655 86.0559 35.3146C85.0986 36.0819 84.7319 36.3124 84.5893 36.3742C84.3118 36.4923 84.2074 36.5232 84.1667 36.5316C83.935 36.585 83.8535 36.5063 83.8382 36.4895C83.7924 36.4389 83.6523 36.2196 83.3468 35.2977C83.1151 34.5978 82.8681 33.7799 82.6135 32.8663C82.3614 31.9585 82.1755 31.2417 82.061 30.7414C81.9464 30.2411 81.8725 29.8925 81.8394 29.7014C81.7554 29.2292 81.7605 29.0408 81.7732 28.9565H81.7682Z" fill="#00A2E7"/>
<path d="M117.819 20.1056C117.646 19.1443 117.44 18.3123 117.198 17.6321C116.844 16.7017 116.269 15.6673 115.484 14.5599C114.015 12.3955 112.365 11.1307 110.586 10.8018C110.102 10.6978 109.649 10.6585 109.239 10.695C108.839 10.7259 108.258 10.8243 107.517 10.9845C106.965 11.1054 106.535 11.2094 106.239 11.2909C105.936 11.3752 105.671 11.4933 105.452 11.6422C105.241 11.7856 104.989 11.9936 104.699 12.2606C102.086 14.6976 101.053 18.4163 101.623 23.3127C101.664 23.6387 101.712 23.9536 101.766 24.2571C102.293 27.2028 103.4 29.682 105.06 31.6242C106.901 33.797 109.177 35.0309 111.818 35.2923C112.034 35.3204 112.246 35.3345 112.457 35.3345C112.778 35.3345 113.094 35.3008 113.397 35.2361C114.751 34.941 115.854 33.9516 116.671 32.3016C118.234 29.5414 118.685 25.8537 118.013 21.3367C117.952 20.9066 117.888 20.4935 117.817 20.1028L117.819 20.1056ZM113.862 24.4595C113.799 25.5445 113.6 26.6013 113.274 27.5964C112.953 28.5773 112.556 29.3391 112.106 29.8478C111.826 30.1261 111.492 30.306 111.113 30.3903C110.774 30.4634 110.397 30.4493 109.995 30.3509C109.121 30.1261 108.35 29.5752 107.716 28.7319C107.008 27.6582 106.509 26.3371 106.234 24.8024C106.15 24.3386 106.086 23.8411 106.043 23.3267C105.865 21.1484 106.137 19.3354 106.848 17.9441C107.367 17.0221 107.912 16.4037 108.465 16.103C109.035 15.791 109.493 15.597 109.827 15.524C110.053 15.4762 110.277 15.4509 110.496 15.4509C110.728 15.4509 110.955 15.479 111.169 15.5296C111.943 15.8191 112.658 16.8169 113.287 18.4809C113.391 18.7957 113.486 19.1808 113.565 19.6221C113.646 20.0775 113.712 20.5918 113.766 21.1568C113.883 22.2699 113.916 23.3802 113.862 24.4567V24.4595Z" fill="#00A2E7"/>
<path d="M135.997 6.38833C134.65 4.72434 132.883 4.11439 130.749 4.57818C130.408 4.65126 130.056 4.75526 129.702 4.89018C128.241 5.43547 127.003 6.59071 126.023 8.32498C125.761 8.77752 125.524 9.14573 125.323 9.41276C125.183 9.58141 125.099 9.66573 125.056 9.70508C125.035 9.6854 125.007 9.65449 124.974 9.60951C124.893 9.49989 124.816 9.37622 124.758 9.26378C124.465 8.52173 124.024 7.98768 123.444 7.67568C122.927 7.41147 122.418 7.32714 121.929 7.43676C121.896 7.4452 121.743 7.49298 121.473 7.5773C121.135 7.68692 120.885 8.09449 120.707 8.85341C120.638 9.44649 120.753 10.5736 121.061 12.2938C121.109 12.558 121.252 13.3113 121.491 14.5565C121.728 15.7989 122.189 17.7299 122.853 20.2962C123.52 22.8709 124.198 25.1223 124.862 26.9887C125.672 29.2177 126.678 30.4657 127.851 30.699H127.856C127.951 30.7158 128.047 30.7243 128.142 30.7243C128.256 30.7243 128.368 30.713 128.478 30.6877C128.816 30.6146 129.112 30.401 129.341 30.0693C129.438 29.9513 129.476 29.7545 129.468 29.4088C129.461 29.1305 129.412 28.6921 129.323 28.099C129.234 27.5115 129.096 26.6936 128.911 25.648C128.704 24.4927 128.552 23.5764 128.46 22.9187C128.368 22.275 128.312 21.696 128.289 21.2041C128.266 20.7206 128.277 20.1275 128.32 19.4389C128.401 15.5038 128.949 12.7689 129.952 11.2932C130.66 10.1042 131.505 9.39027 132.465 9.1626L132.633 9.12606C132.88 9.06984 133.102 9.06141 133.29 9.09233C133.481 9.12605 133.764 9.24973 134.133 9.46335C134.772 9.82313 135.289 9.95243 135.706 9.85968C136.02 9.79222 136.272 9.58984 136.455 9.26378C136.661 8.90119 136.715 8.44303 136.62 7.90898C136.526 7.38336 136.32 6.87741 135.994 6.38271L135.997 6.38833Z" fill="#00A2E7"/>
<path d="M159.119 22.376C159.07 22.1061 158.976 21.8251 158.833 21.5412C158.528 20.9256 158.075 20.4309 157.481 20.0739L157.458 20.0627C157.135 19.9193 156.886 19.6917 156.692 19.3628C156.491 19.0199 156.28 18.3453 156.063 17.3587C155.842 16.3552 155.533 14.739 155.144 12.555L154.103 6.72263L153.026 5.14858C151.297 2.64134 149.321 1.60697 147.146 2.08199C146.981 2.11853 146.808 2.16632 146.624 2.22534C144.997 2.7875 143.737 3.91463 142.882 5.5702C142.039 7.20046 141.479 8.901 141.216 10.6184C140.842 12.541 140.646 14.3287 140.631 15.928C140.615 17.5274 140.699 18.8456 140.878 19.8463C141.056 20.8469 141.336 21.8307 141.71 22.7836C142.242 23.9613 142.953 24.9788 143.824 25.808C144.699 26.6484 145.608 27.1572 146.52 27.323C146.721 27.3595 146.922 27.3764 147.121 27.3764C147.353 27.3764 147.584 27.3511 147.813 27.3033C149.458 26.9435 150.963 25.2795 152.285 22.3591C152.448 22.0246 152.608 21.7267 152.761 21.4737C152.852 21.3219 152.911 21.2404 152.941 21.2011C152.987 21.2376 153.069 21.3135 153.206 21.4625C153.433 21.7154 153.688 22.0303 153.957 22.39C155.034 23.8994 156.086 24.6949 157.076 24.7483C157.265 24.7652 157.453 24.7595 157.632 24.7202C157.881 24.6668 158.115 24.5628 158.322 24.4194C158.706 24.1721 158.966 23.8488 159.093 23.4469C159.18 23.104 159.19 22.7414 159.124 22.3704L159.119 22.376ZM146.169 22.1792C146.095 22.1961 146.034 22.1792 145.973 22.1371C145.83 22.0331 145.626 21.7154 145.463 20.8047L145.44 20.6783C145.257 19.4724 145.211 17.9996 145.3 16.299C145.389 14.5929 145.634 12.9345 146.024 11.3745C146.553 9.52219 147.116 8.27419 147.696 7.66706C148.414 6.91376 148.781 6.70857 148.964 6.66922C149.018 6.65798 149.071 6.65236 149.12 6.65236C149.367 6.65236 149.575 6.7929 149.754 7.07398C149.83 7.23419 149.906 7.41127 149.98 7.5996C150.052 7.77949 150.097 7.92565 150.115 8.02965C150.146 8.19268 150.148 8.70143 149.998 10.1883C149.876 11.3942 149.715 12.6731 149.519 13.9829C149.323 15.29 149.148 16.299 148.992 16.9821C148.738 17.9349 148.379 18.9046 147.92 19.8575C147.47 20.8019 147.042 21.4625 146.658 21.8194C146.548 21.9122 146.436 21.9965 146.324 22.0752C146.202 22.1567 146.164 22.1764 146.166 22.1764L146.169 22.1792Z" fill="#00A2E7"/>
</g>
<defs>
<clipPath id="clip0_607_3257">
<rect width="256.76" height="74" fill="white" transform="translate(0.294922)"/>
</clipPath>
</defs>
</svg>
