<svg width="82" height="82" viewBox="0 0 82 82" fill="none" xmlns="http://www.w3.org/2000/svg">
<g clip-path="url(#clip0_129_12834)">
<path d="M64.9167 10.25H17.0833C13.2908 10.25 10.25 13.325 10.25 17.0833V64.9167C10.25 68.675 13.2908 71.75 17.0833 71.75H64.9167C68.675 71.75 71.75 68.675 71.75 64.9167V17.0833C71.75 13.325 68.7092 10.25 64.9167 10.25ZM64.9167 64.9167H17.0833V23.9167H64.9167V64.9167ZM54.6667 41H27.3333C25.4542 41 23.9167 39.4625 23.9167 37.5833C23.9167 35.7042 25.4542 34.1667 27.3333 34.1667H54.6667C56.5458 34.1667 58.0833 35.7042 58.0833 37.5833C58.0833 39.4625 56.5458 41 54.6667 41ZM41 54.6667H27.3333C25.4542 54.6667 23.9167 53.1292 23.9167 51.25C23.9167 49.3708 25.4542 47.8333 27.3333 47.8333H41C42.8792 47.8333 44.4167 49.3708 44.4167 51.25C44.4167 53.1292 42.8792 54.6667 41 54.6667Z" fill="#ffffff"/>
</g>
<defs>
<clipPath id="clip0_129_12834">
<rect width="82" height="82" fill="white"/>
</clipPath>
</defs>
</svg>
