<svg width="19" height="19" viewBox="0 0 19 19" fill="none" xmlns="http://www.w3.org/2000/svg">
<path d="M9.35156 0.878906C4.38356 0.878906 0.351562 4.91091 0.351562 9.87891C0.351562 14.8469 4.38356 18.8789 9.35156 18.8789C14.3196 18.8789 18.3516 14.8469 18.3516 9.87891C18.3516 4.91091 14.3196 0.878906 9.35156 0.878906ZM6.91256 13.7399L3.68156 10.5089C3.33056 10.1579 3.33056 9.59091 3.68156 9.23991C4.03256 8.88891 4.59956 8.88891 4.95056 9.23991L7.55156 11.8319L13.7436 5.63991C14.0946 5.28891 14.6616 5.28891 15.0126 5.63991C15.3636 5.99091 15.3636 6.55791 15.0126 6.90891L8.18156 13.7399C7.83956 14.0909 7.26356 14.0909 6.91256 13.7399Z" fill="#1474FF"/>
</svg>
