<svg width="252" height="58" viewBox="0 0 252 58" fill="none" xmlns="http://www.w3.org/2000/svg">
<g clip-path="url(#clip0_607_3250)">
<path d="M73.0282 56.3894C72.7144 56.5394 72.3319 56.8695 72.1848 57.1195C72.0377 57.3696 71.2727 57.5996 71.3904 57.4396C71.5081 57.2795 71.8906 56.7894 71.9592 56.6794C72.0279 56.5694 71.6062 56.2894 71.5277 56.1093L71.41 56.0293L71.1354 55.8293C70.9589 55.5592 70.7628 55.2492 70.6941 55.1492C70.6255 55.0491 70.2626 55.3792 70.1547 55.5492V55.7893C70.194 55.9093 70.1155 56.2294 69.988 56.4894C69.8605 56.7494 69.8213 57.5396 69.7723 57.5496C69.7232 57.5596 69.5467 57.5496 69.4977 57.4596C69.4486 57.3696 69.1642 57.0795 69.0367 56.9495C68.9092 56.8195 69.4879 56.5294 69.5565 56.4294C69.6252 56.3294 69.6154 56.1593 69.3996 56.2894C69.1838 56.4194 68.5464 56.0393 68.4091 56.0693C68.2718 56.0993 68.4287 56.5494 68.4777 56.6994L68.4974 56.8295L68.517 56.9695C68.517 57.1095 68.2031 57.1895 67.8305 57.1295H67.5265L67.4774 57.1495C67.4284 57.4596 67.3205 57.6796 67.2421 57.6296C67.1636 57.5796 66.7125 57.5996 66.4477 57.6796V57.6596L66.281 57.3696C66.5654 57.3295 66.7615 57.1995 66.7223 57.0795C66.6831 56.9595 66.4183 56.7094 66.2516 56.8795C66.0848 57.0495 65.4768 57.4796 65.2218 57.4796C64.9668 57.4796 64.2902 57.4596 64.2902 57.4396C64.2902 57.4196 64.4177 57.3495 64.5942 57.3295C64.7707 57.3095 65.2512 57.1095 65.2512 56.9195C65.2512 56.7294 65.9573 56.5094 66.0946 56.4794C66.2319 56.4494 66.6144 56.3094 66.6635 56.2394L66.6438 56.1893C66.6144 56.1293 66.4967 56.0293 66.4575 56.0393C65.7808 56.2193 65.1238 56.4394 64.3882 56.4194L63.8979 56.3994C63.6625 56.7094 63.3683 57.0195 63.2506 57.0795C63.1329 57.1395 62.8682 56.8195 62.8093 56.7694C62.7505 56.7194 62.4661 56.5994 62.3288 56.5394C62.1915 56.4794 61.8875 56.2894 61.9561 56.2294C62.0248 56.1693 62.319 56.0393 62.4268 56.0793L62.4563 56.1493L62.623 56.5094C62.9956 56.4494 63.3683 56.3594 63.4468 56.3194C63.5252 56.2794 63.6723 55.9993 63.6625 55.8693C63.6527 55.7393 63.1329 55.5092 62.9466 55.4792V55.4292C62.7799 54.6991 62.3092 55.1092 62.2209 55.3592C62.064 55.8093 61.554 55.8493 61.2402 56.0893L60.9656 56.3094C60.7793 56.5894 60.5929 56.6994 60.5537 56.5594L60.5341 56.4294L60.4949 56.1893C60.1614 56.0593 59.6711 55.8293 59.3965 55.6893L59.3474 55.5192C59.2298 55.0992 58.9061 55.0792 58.504 55.0792C58.3275 55.0792 58.1216 54.8891 57.9745 54.9291C57.8372 54.9691 57.7685 55.1792 57.6508 55.3092L57.6116 55.3492C57.4547 55.3692 57.4547 55.4492 57.6018 55.5292C57.7489 55.6092 58.0235 55.8993 57.896 55.9993C57.7685 56.0993 56.8467 55.7193 56.9545 55.5992L57.0036 55.4792C57.1605 55.1192 56.9447 54.8991 56.5034 55.0492C56.1504 55.1592 56.0523 54.9091 55.8365 54.8891L55.5619 54.8691C55.2383 54.8891 54.6205 54.9991 54.1988 55.1192L53.9634 55.0091L53.6692 54.8691C53.4044 54.8991 53.0023 54.9791 52.7768 55.0492C52.5512 55.1192 51.7666 54.8991 51.5901 54.8591C51.4136 54.8191 50.9723 54.8891 50.7565 54.8691C50.5408 54.8491 49.8641 54.8091 49.6679 54.9691C49.4718 55.1292 48.6971 55.2992 48.3636 54.9891L47.8733 55.1092L47.53 55.1992C47.177 55.1592 46.618 55.1292 46.2747 55.1292C45.9315 55.1292 44.9998 55.3392 44.6075 55.4392C44.2153 55.5392 42.9894 55.2992 42.5089 55.3692L42.0283 55.1392L41.6753 54.9691C41.0476 55.1192 40.4298 55.2592 40.3121 55.2992C40.1944 55.3392 39.6648 55.2992 39.3608 55.2992C39.0568 55.2992 38.2624 55.4292 38.2232 55.3592C38.184 55.2892 38.0173 55.1492 37.9094 55.2292C37.8015 55.3092 37.419 55.4192 37.2817 55.2992L37.1444 55.2092L37.0464 55.1492C36.9189 55.1192 36.7522 55.1492 36.6737 55.2192C36.5952 55.2892 36.3403 55.4092 36.252 55.3392C36.1637 55.2692 35.7911 55.3992 35.7126 55.4492C35.6342 55.4992 35.2125 55.5692 34.8006 55.6393L34.4377 55.5192C34.2514 55.4592 34.065 55.3792 33.8787 55.2992C33.6433 55.1992 33.4374 54.8891 33.1138 55.2092C33.0843 55.2392 32.898 55.2092 32.849 55.1492C32.4959 54.8191 32.3292 54.7191 31.9663 55.2292L31.7212 55.5692C31.5446 55.1592 31.3387 54.9091 31.2602 54.9991C31.1818 55.0892 30.8974 55.2992 30.8385 55.1892C30.7797 55.0792 30.4953 54.8191 30.3384 54.7791C30.1815 54.7391 29.7892 55.1092 29.6911 55.1992C29.593 55.2892 29.2694 55.1292 29.2204 55.2092C29.1713 55.2892 29.0733 55.3192 29.1027 55.1192C29.1321 54.9191 28.5241 55.2592 28.4849 55.2692H28.4456C28.0435 55.3892 28.0337 54.7591 27.5336 54.9691L27.2688 55.0792C26.8961 55.0792 26.5038 55.0592 26.396 55.0391C26.2881 55.0191 25.8958 55.0992 25.6408 55.1092C25.3859 55.1192 24.6405 54.9291 24.5032 55.1092L24.3365 55.1992L24.2384 55.2492C24.0521 55.2092 23.7383 55.0592 23.5519 54.9291C23.3656 54.7991 22.3653 55.1392 22.2672 55.0191C22.1692 54.8991 21.7769 54.7091 21.6592 54.8291C21.5415 54.9491 21.0904 54.6991 21.0217 54.7591L20.9629 54.8191C20.8943 54.8891 20.8158 55.0392 20.757 55.0291C20.5412 55.0091 20.1587 55.1792 20.1881 54.8091V54.7091C20.4529 54.5891 20.5706 54.449 20.4529 54.389C20.3353 54.329 19.9528 54.279 19.8645 54.389C19.7763 54.4991 19.3742 54.7891 19.384 54.5091V54.369C19.3644 54.309 19.3055 54.189 19.2859 54.189L19.0702 54.219C18.8348 54.259 18.6877 54.129 18.7465 53.919L18.364 54.009L18.2954 54.029C18.2268 54.099 17.9816 54.089 17.7364 54.009C17.4912 53.929 16.5596 53.929 16.285 53.939C16.0104 53.949 15.1572 53.6089 14.9316 53.6389C14.706 53.6689 14.1176 53.7689 14.0294 53.5489C13.9411 53.3289 12.9114 53.1988 12.8231 53.2188V53.1988L12.3328 52.5987C11.4894 52.5087 10.7244 52.4187 10.646 52.3887C10.5675 52.3587 10.185 52.3787 9.88101 52.3587C9.57699 52.3387 8.34131 52.4087 7.79212 52.4487L7.68424 51.8786C7.67444 51.8186 7.45868 51.7086 7.40965 51.7286L7.09582 51.8786C6.782 51.7586 6.45837 51.5886 6.37011 51.4885C6.28184 51.3885 5.74246 51.2085 5.58555 51.1385C5.42864 51.0685 4.93829 50.9384 4.86964 50.9584C4.80099 50.9785 4.57543 50.9184 4.52639 50.7684L4.42832 50.6684C4.36948 50.6184 4.17334 50.6084 4.08508 50.6484C3.73203 50.8084 3.33975 50.8284 3.09457 50.8484C2.55519 50.8784 2.81998 50.6884 2.8494 50.4684C2.86901 50.3583 2.52577 50.2183 2.95727 50.1683C3.15341 50.1483 3.34955 50.0683 3.53589 49.9983C3.74183 49.9083 3.70261 49.8182 3.54569 49.6882L3.37898 49.5382C3.54569 49.4082 3.88894 49.1381 4.12431 48.9481C4.35967 48.7581 4.65388 48.0079 4.3891 47.9679L4.19296 47.9879L3.96739 48.0079C3.72222 48.088 3.35936 48.0679 3.14361 47.9679C2.92785 47.8679 2.97689 46.9978 3.06515 46.6477C3.15341 46.2976 3.32994 45.3775 3.30052 45.3675C3.2711 45.3575 3.00631 45.5075 2.81998 45.7075L2.565 45.3775L2.4375 45.2075C2.48654 45.0474 2.63364 44.7674 2.77094 44.5773L2.53557 44.4873L2.40808 44.4373C2.11387 44.5673 1.93735 44.5373 2.0158 44.3673L2.03542 44.2273L2.08445 43.8272C1.87851 43.4371 1.68237 42.9671 1.66275 42.797C1.64314 42.627 1.90793 42.0469 2.30021 41.8869C2.69249 41.7269 2.69249 40.8167 2.40808 40.8867L2.24137 41.0067L2.06484 41.1268C1.85889 41.2368 1.46661 41.0567 1.18221 40.7067L1.32932 40.4166C1.37835 40.3266 1.36854 40.2066 1.42739 40.1266C1.57449 39.9165 1.74121 39.7165 1.88831 39.5165C2.06484 39.2864 2.26098 39.8165 2.46693 39.4965L2.52577 39.4065C2.77094 39.3664 2.74152 39.2664 2.46693 39.1864V39.1064C2.4375 38.9664 2.565 38.7963 2.68268 38.6663C2.74152 38.5963 2.91805 38.6063 3.01612 38.5463C3.25148 38.4063 3.32013 37.9962 3.09457 37.9362C2.80036 37.8562 2.72191 37.7662 2.61403 37.5461L2.55519 37.4361C2.1433 37.3961 2.18252 37.2461 2.64345 37.1061C3.10438 36.966 4.34006 36.3659 4.91867 36.686L5.61497 36.586C5.75227 36.566 6.04647 36.826 6.10532 36.996L6.25242 37.4161C6.58586 37.2961 6.76238 37.026 6.65451 36.826L6.67412 36.656C6.73296 36.1359 6.84084 35.6158 6.97814 35.1057L7.00756 34.9957C7.19389 34.9057 7.42926 34.7957 7.52733 34.7557C7.6254 34.7156 7.88038 34.4056 8.05691 34.4056C8.23343 34.4056 8.76301 34.3256 8.83166 34.2956C8.90031 34.2656 9.10625 34.0755 9.18471 34.0055C9.26317 33.9355 9.62603 34.2156 9.68487 34.2556C9.74371 34.2956 10.0477 34.3556 10.0771 34.1556C10.1066 33.9555 10.3419 33.5955 10.5675 33.7255C10.7931 33.8555 11.3913 33.5754 11.3521 33.5354C11.3128 33.4954 11.303 33.3254 11.4305 33.2554L11.509 33.2854C11.813 33.3954 12.1758 33.8155 12.2739 33.1454C12.372 33.1254 12.6073 33.1654 12.7937 33.2254C12.98 33.2854 13.5979 33.0654 13.7744 33.0554C13.9509 33.0454 14.5099 33.0954 14.7845 33.0854C15.0591 33.0754 15.52 32.6653 15.3239 32.5853C15.1277 32.5053 14.706 32.0652 14.8139 31.7851C14.9218 31.5051 13.843 30.715 13.9411 30.6849C14.0392 30.6549 14.1372 30.4149 13.8528 30.2249V30.0648L13.8725 29.7048C13.588 29.7048 13.2546 29.5948 13.1271 29.4847L13.0389 29.3647L12.8427 29.0947C12.9702 28.7846 12.98 28.2745 12.8525 27.9545L12.7741 27.6544L12.7545 27.5644C12.7937 27.4444 13.0683 27.4644 13.3527 27.6144C13.6371 27.7644 14.5197 27.4944 14.5491 27.4444C14.5786 27.3944 14.4805 27.1943 14.304 27.1143L14.2157 27.1543L14.0196 27.2544C13.7646 27.3844 13.5979 27.3844 13.6469 27.2544L13.6861 27.1343L13.7253 27.0143C13.7646 26.8743 13.7352 26.7843 13.6665 26.8043C13.5979 26.8243 13.2938 26.8543 13.1467 26.8143C12.9996 26.7743 13.2938 26.1742 13.4017 25.8741L13.8038 25.8041C13.8823 25.7941 14.0294 25.7541 14.0294 25.7441L13.9705 25.064C14.608 24.8039 14.9904 24.5139 14.8237 24.4239C14.657 24.3339 14.0097 24.4539 13.9117 24.4239C13.8136 24.3939 13.029 24.1638 12.4406 23.9438L11.813 24.0438C11.5286 24.0938 11.4992 23.9438 11.4207 23.7438L11.3128 23.4337C11.1363 23.6237 10.7832 23.7237 10.5283 23.6537C10.2733 23.5837 9.47892 23.2637 9.32201 23.1436L9.34162 23.1236L9.55738 22.8736C9.42008 22.6236 9.25336 22.3635 9.19452 22.3135C9.13568 22.2635 8.91992 22.1735 8.86108 22.2535L8.78262 22.3035L8.67475 22.3835C8.53745 22.4535 8.25305 22.5635 8.0471 22.6336C7.84115 22.7036 7.18409 22.8236 7.08602 22.7336C6.98795 22.6436 6.77219 22.2735 6.87026 22.1135C6.96833 21.9534 7.75289 22.2135 8.06671 22.2235L8.11575 22.0535C8.16478 21.8734 7.99807 21.4834 7.9098 21.4734L6.53682 21.4234C6.71335 20.6332 6.70354 19.9631 6.5074 19.9331C6.31126 19.9031 5.96802 20.2732 5.91898 20.2331C5.86995 20.1931 5.72284 20.0631 5.70323 20.0531C5.68362 20.0431 5.57574 19.8631 5.49728 19.7031C5.41883 19.543 5.69342 18.9829 5.78169 18.8429L5.81111 18.7129L5.84053 18.5929C5.8013 18.4528 5.664 18.3528 5.53651 18.3728L5.41883 18.3928L5.32076 18.4128C5.22269 18.4428 5.105 18.3928 5.06578 18.3028L5.105 18.2628L5.29134 18.0328C5.60516 17.6927 5.56593 17.5127 5.21288 17.6427H5.00693L4.62446 17.6827C4.18315 17.6727 3.80068 17.5427 3.77125 17.4027V17.3026L3.85952 16.2525C3.32994 15.8224 2.82978 15.4323 2.74152 15.3923L2.7121 15.3423L2.60422 15.1223C2.64345 14.8622 2.54538 14.4221 2.38847 14.1521L2.16291 14.0721C1.60391 13.8821 1.61372 13.542 1.64314 13.1519V13.0019C1.64314 12.7319 1.35874 12.6218 1.01549 12.7519L1.24105 12.4018C1.45681 12.0717 1.07433 12.0817 0.95665 11.9517C0.927229 11.9117 0.711475 12.3718 0.603598 11.9517L0.583984 11.8917C0.76051 11.7917 0.937036 11.7017 0.976264 11.6817C1.01549 11.6617 0.907615 11.3216 0.652633 10.9816L0.740896 10.5915C0.76051 10.4915 0.848773 10.3915 0.829159 10.3014V10.1914C0.740896 10.0814 0.76051 10.0014 0.85858 10.0214C0.95665 10.0414 1.40777 9.98138 1.5941 9.83136C1.78044 9.68133 1.50584 9.10123 1.64314 9.05122L1.67256 9.08123C2.02561 9.34127 2.32963 9.39128 2.63364 9.02122L2.89843 8.70116C3.18284 8.9212 3.42801 9.01122 3.45743 8.89119C3.48685 8.77117 3.92817 8.3611 4.36948 8.24108L4.6735 8.78117L4.83041 9.06122C5.26192 8.75117 5.54632 8.47112 5.45806 8.44112C5.36979 8.41111 5.15404 8.28109 5.18346 8.20108H5.20307C5.40902 8.20108 5.62477 8.23108 5.83072 8.25108H5.92879C6.02686 8.29109 6.15435 8.24108 6.20339 8.14107C6.25242 8.04105 6.60547 8.09106 6.6447 8.03105C6.68393 7.97104 6.88007 7.771 6.94872 7.89102C7.01737 8.01104 7.40965 8.15107 7.59598 7.83101L7.75289 7.68098L7.84115 7.60097C8.01768 7.58097 8.35112 7.64098 8.57668 7.73099C8.80224 7.82101 9.63583 7.61097 9.79274 7.71099C9.94966 7.81101 10.44 8.04105 10.6263 7.751L10.7832 7.55096L10.9402 7.35093C11.2246 7.33092 11.5874 7.38093 11.7443 7.46095C11.9012 7.54096 12.2151 7.14089 12.4112 7.15089C12.6073 7.1609 13.1369 7.27091 13.2056 7.32092C13.2742 7.37093 13.6077 7.45095 13.6861 7.29092C13.7646 7.13089 14.1274 6.72082 14.3138 6.78083C14.5001 6.84084 14.9414 6.75082 15.0787 6.70082C15.216 6.65081 15.6279 6.81084 15.7064 6.76083V6.71082L15.7554 6.52079C15.9221 6.55079 16.3732 6.70082 16.7459 6.87085L16.7949 6.35076V6.31075C16.8832 6.27074 17.2559 6.17072 17.6285 6.09071C18.0012 6.0107 19.2663 6.20073 19.5899 6.19073L19.8253 6.25074C20.0705 6.31075 20.2274 6.5908 20.247 6.13072C20.247 6.08071 20.5314 5.99069 20.5412 6.0007C20.8354 6.36076 21.2767 6.07071 21.365 5.97069C21.6298 5.67064 22.0122 6.08071 22.2966 5.79066L22.4045 5.68064C22.8655 5.82066 23.297 5.94069 23.3656 5.96069C23.4343 5.98069 23.7971 5.79066 24.0521 5.59062C24.3071 5.39059 25.1799 5.74065 25.2289 5.72065V5.70064L25.2093 5.16055C25.631 5.27057 26.2685 5.22056 26.6215 5.04053L26.9255 5.4506L27.0727 5.65064C27.3865 5.51061 27.8082 5.33058 27.9945 5.24056L28.2005 5.20056H28.2691C28.3378 5.17055 28.5535 5.16055 28.7693 5.18055C28.985 5.20056 29.7107 5.14055 29.9265 5.18055C30.1422 5.22056 30.6914 4.99052 30.7405 5.05053C30.7895 5.11054 31.0249 5.25057 31.0739 5.17055L31.1229 5.11054L31.1818 5.04053C31.2504 4.97052 31.3191 4.96052 31.3485 5.01053C31.3779 5.06053 31.4858 5.24056 31.5348 5.27057H31.5839L31.9761 5.16055C32.4175 5.08054 32.849 4.99052 32.9274 4.95051L32.9863 4.90051L33.3884 4.52044C33.6924 4.8705 33.9964 5.07054 34.0748 4.97052C34.1533 4.8705 34.4083 4.64046 34.4867 4.70047C34.5652 4.76048 34.7319 4.54044 34.7417 4.12037L35.3105 4.65046L35.4086 4.74048C35.7028 4.69047 36.0853 4.66046 36.2618 4.67047C36.4383 4.68047 36.8404 4.77048 36.8502 4.64046C36.86 4.51044 37.4583 4.49044 37.5465 4.58045C37.6348 4.67047 37.8015 4.51044 37.7819 4.12037L38.4095 4.61046C38.4684 4.66046 38.8214 4.47043 39.0274 4.38042L39.1352 4.33041C39.2431 4.2704 39.7041 4.12037 40.1454 4.00035C40.5867 3.88033 41.7537 4.43042 41.842 4.43042C41.9302 4.43042 42.4892 4.34041 42.8717 4.2704C43.2542 4.20039 44.6566 4.24039 44.941 4.2704L45.0587 4.18038L45.3529 3.96034C45.6079 4.08036 45.9707 4.20039 46.157 4.22039H46.6474C46.9612 4.09037 47.3633 3.94034 47.53 3.90033C47.6967 3.86033 48.5107 3.79031 48.952 3.79031H49.3541L49.4718 3.77031C49.5993 3.7203 49.717 3.75031 49.7366 3.85033C49.7562 3.95034 50.2269 3.89033 50.2956 3.82032C50.3642 3.75031 50.6486 3.58028 50.7565 3.67029C50.8644 3.76031 51.2273 3.90033 51.3744 3.83032C51.5215 3.76031 52.1687 3.55027 52.4629 3.53027L52.561 3.66029C52.7768 3.94034 53.0317 3.38024 53.2671 3.74031L53.3652 3.89033C53.7379 3.7303 54.1301 3.65029 54.2282 3.7303C54.3263 3.81032 54.6499 3.96034 54.6793 3.89033C54.7087 3.82032 54.846 3.65029 54.9147 3.6803C54.9833 3.7103 55.2089 3.6803 55.2579 3.56028C55.307 3.44025 56.1896 3.48026 56.6996 3.38024L57.2684 3.53027C57.7293 3.65029 58.3471 3.7003 58.8865 3.38024L59.1513 3.22022C59.6515 3.30023 60.1026 3.42025 60.1712 3.49026C60.2399 3.56028 60.5341 3.58028 60.6812 3.37024C60.8283 3.16021 61.5246 3.52027 61.5736 3.44025C61.6227 3.36024 61.8188 3.16021 61.8482 3.30023C61.8776 3.44025 62.0346 3.60028 62.1424 3.41025C62.2503 3.22022 63.0741 3.50026 63.4075 3.41025L63.8096 3.47026L64.3392 3.55027C64.9766 3.34024 65.5258 3.22022 65.5749 3.30023C65.6239 3.38024 65.7906 3.53027 65.8397 3.45026C65.8887 3.37024 66.1143 3.1402 66.2418 3.1302L66.2908 3.17021L66.6635 3.48026C67.1636 3.43025 67.8403 3.41025 68.1639 3.44025C68.4875 3.47026 69.5173 3.32023 69.7625 3.50026L70.0469 3.17021C70.0959 3.1102 70.449 3.27023 70.6549 3.26022L71.2727 3.24022C71.9494 3.20021 72.9007 3.09019 73.3714 3.01018L73.7343 3.36024L73.8029 3.43025C74.0383 3.39025 74.3914 3.36024 74.5973 3.36024C74.8033 3.36024 75.2838 3.46026 75.3132 3.35024C75.3426 3.24022 75.9899 3.30023 76.2155 3.53027L76.5685 3.24022L76.6862 3.1502C77.0098 3.21021 77.3825 3.27023 77.5296 3.29023C77.6767 3.31023 78.2063 3.37024 78.3926 3.37024H78.5691C78.7064 3.37024 78.8437 3.39025 78.9614 3.37024C79.0987 3.34024 79.2164 3.25022 79.3537 3.22022H79.4322C79.54 3.25022 79.7558 3.25022 79.9029 3.20021C80.05 3.1502 80.5207 3.31023 80.7561 3.47026V3.05019C80.8934 3.05019 81.4034 3.17021 81.8741 3.33024L82.3154 3.35024H82.6586C83.0411 3.21021 83.4334 3.04019 83.5217 3.01018C83.6099 2.98018 83.9237 3.16021 84.061 3.40025L84.4827 3.27023C84.6985 3.20021 85.0908 3.1402 85.1692 3.22022C85.5125 3.58028 85.6204 2.99018 85.9342 3.1402L86.2088 3.27023C86.6011 3.29023 87.1012 3.36024 87.317 3.42025L87.3856 3.36024L87.8073 3.01018C88.2584 3.18021 88.6899 3.27023 88.7782 3.20021C88.8665 3.1302 89.1999 3.00018 89.2882 3.1102C89.3764 3.22022 89.6412 3.53027 89.6608 3.52027C89.6804 3.51027 89.9452 3.40025 90.1806 3.30023C90.416 3.20021 91.4261 3.18021 91.7497 3.22022C92.0734 3.26022 92.9266 3.18021 93.1815 3.27023C93.4365 3.36024 94.0642 3.02018 94.2897 3.1402L94.8978 2.44008C95.7019 2.73013 96.5159 2.97017 96.7121 2.97017C96.9082 2.97017 97.2809 2.90016 97.2514 3.1002C97.222 3.30023 97.9968 2.92016 98.1929 2.84015C98.3891 2.76014 98.8206 2.82015 98.9677 2.84015C99.1148 2.86015 99.4874 2.77014 99.5267 2.84015C99.5659 2.91016 99.7424 3.08019 99.8111 3.00018C99.8797 2.92016 100.331 2.71013 100.674 2.71013L100.958 2.85015L101.802 3.1102L101.998 2.99018C102.253 2.83015 102.498 2.75014 102.537 2.81015C102.577 2.87016 102.92 3.1002 103.136 3.22022L103.587 2.85015L103.636 2.81015C103.744 2.81015 103.94 2.88016 104.067 2.95017C104.195 3.02018 104.97 3.00018 105.44 2.82015L105.48 2.79014L105.656 2.63012C105.882 2.71013 106.009 3.04019 105.94 3.36024L106.519 3.05019L106.96 2.81015C106.931 3.1102 106.941 3.18021 106.98 2.97017C107.019 2.76014 107.657 3.08019 107.686 3.07019C107.715 3.06019 108 3.02018 108.235 2.97017C108.471 2.92016 109.353 3.16021 109.598 3.22022C109.844 3.28023 110.422 2.99018 110.51 3.07019C110.599 3.1502 110.844 3.34024 110.864 3.34024C110.883 3.34024 111.001 3.27023 111.109 3.18021C111.217 3.09019 111.678 3.00018 111.854 3.06019H112.031C112.129 3.08019 112.315 2.92016 112.344 2.94017L112.639 3.17021C112.943 3.05019 113.502 3.06019 113.874 3.17021L114.218 3.27023L114.355 3.31023C114.531 3.31023 114.747 3.25022 114.855 3.18021C114.963 3.1102 115.385 3.09019 115.522 3.00018C115.659 2.91016 116.512 3.1002 116.924 3.1302L117.317 3.1502L117.65 3.17021C118.003 3.26022 118.336 3.29023 118.405 3.22022C118.474 3.1502 118.876 3.02018 119.15 3.07019L119.356 3.16021C119.582 3.25022 119.758 3.54027 119.778 3.07019C119.778 3.06019 119.945 3.03018 120.023 3.04019C120.533 3.07019 121.063 3.19021 121.553 3.1302L121.936 3.08019C122.23 3.20021 122.544 3.30023 122.632 3.31023C122.72 3.32023 123.083 3.25022 123.299 3.20021C123.515 3.1502 124.78 3.24022 125.133 3.34024C125.486 3.44025 126.466 2.94017 126.692 2.95017C126.918 2.96017 127.761 2.86015 128.045 2.73013C128.33 2.60011 128.997 3.1302 129.075 3.1202C129.154 3.1102 129.575 2.85015 129.762 3.05019L129.948 3.09019C130.144 3.1302 130.419 2.91016 130.595 2.96017L130.958 3.06019C131.154 2.87016 131.429 2.73013 131.576 2.74013L131.664 2.80014L131.831 2.90016C131.988 3.04019 132.194 3.1002 132.282 3.02018C132.37 2.94017 132.625 2.85015 132.645 2.97017C132.664 3.09019 133.223 3.1102 133.322 3.02018C133.42 2.93017 133.822 2.80014 133.91 2.91016C133.998 3.02018 134.283 3.32023 134.341 3.32023L134.361 3.28023C134.645 2.78014 135.067 3.20021 135.41 3.17021H135.577C135.822 3.08019 136.117 3.04019 136.224 3.06019C136.332 3.08019 136.636 3.1102 136.823 3.18021C137.009 3.25022 137.852 3.04019 138.205 3.1302L138.598 3.05019C138.813 3.00018 139.117 3.20021 139.314 3.1402L139.667 3.04019C140.01 3.1002 140.549 3.18021 140.853 3.20021L141.138 3.16021L141.638 3.08019C142.197 3.04019 142.736 3.00018 142.825 2.99018C142.913 2.98018 143.207 3.17021 143.354 3.33024C143.501 3.49026 144.119 3.24022 144.217 3.31023C144.315 3.38024 144.649 3.53027 144.717 3.46026V3.41025C144.668 3.26022 144.511 3.00018 144.541 2.99018L144.864 2.85015C144.933 3.08019 145.07 3.28023 145.159 3.31023C145.247 3.34024 145.492 3.26022 145.58 3.19021C145.669 3.1202 145.982 3.00018 146.08 3.08019C146.178 3.16021 146.463 3.09019 146.483 2.76014L146.992 2.98018H147.012C146.934 3.16021 147.14 3.25022 147.473 3.20021C147.806 3.1502 148.611 3.54027 148.679 3.48026V3.05019C148.973 3.1202 149.287 3.23022 149.366 3.30023C149.444 3.37024 149.699 3.51027 149.729 3.39025C149.758 3.27023 149.984 3.08019 150.19 3.23022C150.396 3.38024 151.268 3.1502 151.504 3.1402C151.739 3.1302 152.357 3.41025 152.406 3.50026C152.455 3.59028 153.092 3.42025 153.181 3.32023C153.269 3.22022 153.73 3.1302 153.877 3.48026L154.328 3.37024C154.809 3.26022 154.034 3.00018 154.377 2.95017L154.73 2.91016C155.142 2.91016 156.113 2.93017 156.888 2.93017H157.594C157.947 2.93017 158.3 2.92017 158.653 2.93017H158.947C159.261 2.99018 159.761 2.87016 160.065 2.66012L160.379 3.03018L160.565 3.25022C160.595 3.05019 160.761 2.76014 160.928 2.62011L161.075 2.78014L161.311 3.03018C161.595 2.95017 162.017 2.85015 162.242 2.80014C162.468 2.75014 163.213 2.62011 163.39 2.5201C163.566 2.42008 164.233 2.71013 164.459 2.72013C164.684 2.73013 165.381 2.83015 165.498 2.77014C165.616 2.71013 166.096 2.58011 166.41 2.51009L166.646 2.39007L167.087 2.16003C167.273 2.44008 167.45 2.5701 167.469 2.46009C167.489 2.35007 167.764 2.07002 168.028 2.16003C168.293 2.25005 169.166 2.48009 169.431 2.48009C169.696 2.48009 170.627 2.08002 171.137 2.07002L171.559 2.09002C171.99 2.11003 172.393 2.03001 172.804 2.04001H173.089C173.314 1.92999 173.717 1.89999 173.981 1.98L174.109 1.90999C174.521 1.69995 174.638 1.78997 174.687 2.15003V2.18004C174.923 2.18004 175.452 1.97 175.864 1.69995L176.482 2.12003L176.541 2.16003C176.61 2.21004 176.668 2.10002 176.678 1.90999C176.688 1.71996 177.482 1.94 177.669 1.99C177.855 2.04001 178.522 1.99 178.718 1.94C178.914 1.88999 179.532 1.74996 179.689 1.78997C179.846 1.82998 180.464 1.61994 180.817 1.65995C181.17 1.69995 182.2 1.62994 182.347 1.68995C182.494 1.74996 182.808 1.99 182.837 1.91999C182.866 1.84998 183.063 1.71996 183.131 1.94L183.239 1.98L183.416 2.04001C183.651 2.01001 184.171 1.97 184.573 1.94L184.808 1.78997L185.122 1.58994C185.348 1.69995 185.622 1.79997 185.72 1.79997C185.818 1.79997 186.093 1.68995 186.181 1.63994C186.269 1.58994 186.838 1.71996 187.152 1.78997C187.466 1.85998 188.358 1.61994 188.437 1.58994C188.515 1.55993 188.917 2.01001 188.947 1.87999C188.976 1.74996 189.251 1.45991 189.525 1.45991H189.761L190.075 1.48992C190.398 1.62994 190.869 1.70996 191.104 1.66995C191.34 1.62994 192.075 1.41991 192.262 1.3799C192.448 1.33989 192.909 1.52993 192.938 1.4099C192.968 1.28988 193.105 0.979831 193.183 0.989832L193.223 1.01984C193.536 1.27988 193.801 1.56993 194.331 1.26988L194.488 1.17986C194.792 1.23988 195.155 1.26988 195.292 1.24988C195.429 1.22987 195.87 1.3699 195.969 1.3799L196.047 1.3599L196.371 1.28988C196.724 1.20987 197.234 1.17987 197.508 1.21987L197.763 1.23988L197.959 1.25988C198.224 1.05984 198.518 0.989832 198.607 1.09985C198.695 1.20987 198.989 1.3599 199.117 1.24988C199.244 1.13986 199.774 0.909818 199.911 1.04984C200.048 1.18987 200.529 1.30989 200.941 1.33989L201.274 1.3899L201.598 1.43991C201.833 1.33989 202.235 1.24988 202.471 1.23988L202.677 1.13986L202.775 1.08985C202.932 1.11985 203.451 1.02984 203.932 0.899817L204.403 1.21987L204.648 1.3899C205.128 1.3599 205.54 1.20987 205.56 1.03984C205.579 0.869811 206.168 0.989832 206.315 1.04984C206.462 1.10985 207.041 1.15986 207.237 1.18987C207.433 1.21987 207.913 0.989832 207.953 1.00984C207.992 1.02984 208.168 1.15986 208.267 1.23988C208.365 1.31989 209.12 1.47992 209.012 1.3699C208.904 1.25988 208.924 1.12986 209.257 1.27988L209.62 0.929822C209.777 0.779796 210.297 0.889815 210.65 0.909818H210.905C211.101 1.08985 211.316 1.22987 211.375 1.23988C211.434 1.24988 211.925 1.25988 212.405 1.29989L212.739 0.929822L212.788 0.869811C213.258 1.02984 213.592 1.07985 213.533 0.969829C213.474 0.85981 213.396 0.579762 213.435 0.539755C213.474 0.499748 213.817 0.429736 214.131 0.389729C214.445 0.349722 215.308 0.619768 215.445 0.539755L215.514 0.56976L215.818 0.709784C216.181 0.68978 216.622 0.749791 216.789 0.839806C216.956 0.929822 217.583 0.419734 217.975 0.179693L218.358 0.319717L218.799 0.479744C219.064 0.269708 219.309 0.0996787 219.348 0.089677C219.388 0.0796753 219.545 0.0396684 219.672 -0.0403454C219.8 -0.120359 220.31 0.0996787 220.447 0.169691C220.584 0.239703 221.114 0.379727 221.006 0.169691C220.898 -0.0403454 221.506 0.139686 221.624 0.119682C221.741 0.0996787 222.183 0.139686 222.349 0.269708C222.516 0.39973 223.163 0.379727 223.124 0.319717C223.085 0.259706 223.644 0.139686 224.477 0.159689L224.781 0.349722L225.35 0.709784C225.399 0.329718 225.645 0.209698 225.899 0.439737L226.429 0.27971C226.988 0.10968 227.675 0.179693 228.302 0.429736C228.538 0.519751 228.881 0.719786 229.293 0.489746C229.479 0.389729 229.979 0.619768 230.313 0.749791C230.47 0.819803 229.911 0.969829 230.273 1.09985C230.371 1.13986 230.568 0.939824 230.715 0.959827C230.93 0.97983 231.274 1.03984 231.333 1.16986L231.538 1.56993C231.99 1.68995 232.588 1.85998 232.882 1.95C233.176 2.04001 234.108 2.20004 234.284 2.17004C234.461 2.14003 234.991 2.30006 235.118 2.25005C235.246 2.20004 235.501 2.17004 235.471 2.35007C235.442 2.5301 236.089 2.27005 236.207 2.24005C236.324 2.21004 236.766 2.24005 237.119 2.24005C237.472 2.24005 238.354 2.63011 238.443 2.60011C238.531 2.5701 238.845 2.5501 238.855 2.65012C238.864 2.75014 239.178 3.04019 239.541 2.97017C239.904 2.90016 241.012 3.31023 241.434 3.42025L241.571 3.87033C241.64 4.09037 242.267 4.12037 242.385 4.56045L242.444 4.76048C242.846 4.91051 243.248 5.06053 243.336 5.09054C243.425 5.12054 243.572 5.33058 243.483 5.49061L243.846 5.64063C243.709 5.88067 243.601 6.26074 243.611 6.49078L243.65 6.70082L243.729 7.15089C243.836 7.64098 243.993 8.05105 244.082 8.07105H244.258C244.356 8.08105 244.444 8.12106 244.454 8.17107C244.464 8.22108 244.268 8.3611 244.072 8.45112L243.915 8.55114C243.915 8.55114 243.915 8.69116 243.944 8.75117C243.954 8.78118 244.062 8.78118 244.121 8.77117C244.16 8.77117 244.18 8.70116 244.219 8.70116L244.425 8.67116C244.65 8.64115 244.837 8.68116 244.817 8.75117C244.798 8.82118 244.984 9.16124 245.239 9.35127L245.406 9.55131L245.513 9.68133C245.533 9.94138 245.298 10.0614 245.004 9.95138C244.709 9.84136 243.974 9.93137 244.219 10.4815C244.464 11.0316 244.513 12.5418 244.268 12.6118C244.023 12.6818 243.356 12.9119 243.444 12.9319C243.532 12.9519 243.856 13.1419 244.082 13.292L244.17 13.462C244.415 13.9721 244.572 13.1919 244.827 13.452L244.974 13.602C245.278 13.712 245.435 13.9421 245.337 14.1021C245.239 14.2621 245.543 15.1023 245.602 15.5023L245.406 15.8724C245.19 16.2725 245.592 16.9426 246.092 16.9826L246.514 17.0126C246.985 17.0926 247.19 17.1726 246.965 17.1826C246.739 17.1926 246.102 17.3426 246.102 17.4827C246.102 17.6227 246.327 18.0428 246.612 17.9928L246.877 17.9628L247.024 17.9428C247.181 17.9428 247.445 17.9728 247.602 18.0028C247.759 18.0328 248.544 17.9628 248.916 17.9728C249.289 17.9828 249.73 18.8129 249.681 18.8829L249.485 18.8529C249.093 18.8029 248.887 19.0629 249.044 19.333C249.142 19.523 249.24 19.7531 249.426 19.8531L249.829 20.0631C249.858 20.4232 249.956 20.6432 250.064 20.5432L250.172 20.5232C250.28 20.5032 250.446 20.5232 250.515 20.5832C250.574 20.6432 250.584 20.8032 250.525 20.8633C250.348 21.0833 250.103 21.2133 249.75 21.1733C249.681 21.1733 249.534 21.2933 249.525 21.3633C249.525 21.4434 249.603 21.5634 249.691 21.6034L249.976 21.7234C250.309 21.8334 250.299 22.0535 249.956 22.2235L249.652 22.2435H249.407C249.054 22.0735 248.76 22.1735 248.76 22.4735L248.711 22.6736L248.632 22.9636C248.289 23.0536 247.857 23.1437 247.651 23.1537C247.445 23.1637 247.504 23.7938 247.632 24.1338C247.759 24.4739 247.995 25.5741 247.789 25.6641C247.583 25.7541 247.769 26.3342 247.887 26.4342C248.004 26.5342 248.21 26.8843 248.044 26.9843L247.838 27.0543C247.661 27.1143 247.455 26.7843 247.269 27.0843L247.249 27.1243C247.083 27.0943 246.769 26.9943 246.553 26.9143C246.337 26.8343 245.513 26.9843 245.16 27.0543C244.807 27.1243 243.65 26.8043 243.366 26.6843C243.081 26.5642 242.042 26.6343 241.816 26.5942C241.591 26.5542 241.041 26.2642 240.973 26.3842C240.904 26.5042 240.767 26.9243 240.786 27.0843C240.806 27.2444 241.493 27.3444 241.65 27.3444L241.718 27.4044C241.865 27.5344 241.748 27.8545 242.179 27.8045H242.248C242.365 28.0345 242.63 28.0545 242.836 27.8545L242.885 28.3045V28.3946C243.15 28.4746 243.591 28.5346 243.876 28.5246L243.925 28.8046L243.964 29.0347C244.033 29.2947 243.964 29.4347 243.827 29.3447C243.689 29.2547 243.15 29.1947 243.062 29.2647C242.973 29.3347 242.562 29.4147 242.336 29.2847C242.11 29.1547 241.6 28.7246 241.522 28.8246L241.542 28.8746C241.669 29.1747 241.963 29.4847 241.914 29.7548L241.855 30.0648C241.502 30.4249 241.306 30.785 241.424 30.875C241.542 30.965 242.012 30.945 242.199 30.795L242.326 30.6249L242.405 30.5149C242.424 30.3549 242.473 30.2449 242.522 30.2549L242.542 30.2749L242.807 30.6149C243.121 30.4349 243.464 30.3349 243.562 30.3749C243.66 30.4149 243.631 30.715 243.268 30.935L243.503 31.2851L243.601 31.4351C243.856 31.3651 244.19 31.5751 244.337 31.8952C244.484 32.2152 244.67 32.5753 244.601 32.6353C244.533 32.6953 244.18 32.7153 243.974 32.5553L243.778 32.4152L243.748 32.3952C243.64 32.3952 243.503 32.4953 243.434 32.5953C243.366 32.6953 243.287 33.0354 243.474 33.0454C243.66 33.0554 244.18 33.1954 244.023 33.2954C243.866 33.3954 243.464 33.7755 243.532 33.8955C243.601 34.0155 243.866 34.3256 243.944 34.2356L244.023 34.2156C244.278 34.1555 244.65 34.4056 244.935 34.8857L245.053 35.0857C244.896 35.3158 244.719 35.5358 244.67 35.5858C244.621 35.6358 244.601 35.8358 244.758 35.9159H244.896C245.258 35.9159 245.376 36.0259 245.219 36.3059C245.18 36.3859 245.072 36.506 245.102 36.536L245.268 36.686C245.219 36.856 245.003 36.966 244.798 36.926L244.699 36.696L244.66 36.606C244.14 36.566 244.16 36.696 244.699 36.896L244.484 37.3061L244.376 37.5261C244.288 37.7762 244.297 38.0562 244.395 38.1362C244.494 38.2163 244.69 38.6463 244.552 38.8064C244.415 38.9664 243.758 39.1864 243.748 39.3364L243.817 39.4365L243.944 39.6365C244.052 39.8865 244.042 40.0166 243.944 39.9265C243.846 39.8365 243.395 39.7465 243.268 39.7865C243.14 39.8265 242.679 39.8265 242.522 39.7865C242.365 39.7465 241.914 39.8365 241.993 39.8965C242.071 39.9565 242.365 40.1966 242.493 40.2866C242.62 40.3766 243.042 40.1566 243.081 40.1566C243.121 40.1566 243.219 40.2566 243.189 40.4366C243.16 40.6167 243.836 40.4366 243.964 40.4066C244.091 40.3766 244.297 40.5366 244.072 40.6267C243.846 40.7167 243.238 40.8967 243.189 40.8067C243.14 40.7167 242.895 40.5867 242.817 40.5967C242.738 40.6067 242.444 41.1167 242.326 41.1067C242.208 41.0967 241.806 41.2968 241.708 41.5768L241.826 41.8569C241.934 42.1169 242.091 42.287 242.444 42.317H242.513C242.601 42.397 242.571 42.597 242.454 42.757C242.336 42.9171 241.767 43.2371 241.708 43.3171C241.65 43.3971 241.659 43.6672 241.571 43.6872C241.483 43.7072 241.414 43.8772 241.395 43.8972C241.375 43.9172 241.424 44.0573 241.561 44.1673C241.699 44.2773 241.993 44.7774 241.973 45.0774L241.826 45.2375C241.414 45.6775 241.512 45.9176 242.101 46.1876L242.552 46.3977C242.258 46.6977 241.924 47.0978 241.806 47.2878C241.689 47.4778 241.336 47.7079 241.659 47.7279L241.62 48.138L241.6 48.308C241.63 48.558 241.679 48.9281 241.708 49.1381L241.885 49.2782L242.091 49.4482C242.022 49.6482 241.895 50.0083 241.797 50.2483L242.003 50.4884L242.513 51.0885C242.081 51.3385 241.718 51.5586 241.699 51.5686C241.679 51.5786 241.993 52.1587 242.513 52.7488L242.895 53.3389L243.003 53.5089C242.787 53.4589 242.591 53.4089 242.562 53.3989C242.532 53.3889 242.336 53.4489 242.218 53.5289C242.101 53.6089 241.659 53.7989 241.551 53.8089C241.444 53.8189 240.963 53.899 240.737 53.999L240.512 54.089L240.247 54.199C239.943 54.159 239.178 54.259 238.551 54.419C237.923 54.5791 235.903 54.7091 235.55 54.7991L235.226 54.8391L234.892 54.8791C234.549 54.9591 233.667 55.0391 232.951 55.0592H231.95C231.617 55.1792 231.146 55.4792 230.901 55.7093L230.587 55.3192C230.548 55.2692 229.999 55.4392 229.999 55.4292C229.832 55.0191 229.508 55.7293 229.283 55.3492L229.204 55.2192C228.851 55.4292 228.43 55.5592 228.273 55.5092L228.243 55.5392L227.92 55.7793C227.508 55.7393 227.027 55.7793 226.861 55.8593C226.694 55.9393 226.017 55.7693 225.85 55.7993C225.684 55.8293 224.88 55.9393 224.458 55.9393C224.036 55.9393 222.889 56.2294 222.781 56.1293C222.673 56.0293 221.967 56.3094 221.643 56.4194L221.388 56.3594L220.957 56.2594C220.515 56.3294 219.937 56.3994 219.672 56.4294C219.407 56.4594 218.809 56.6194 218.76 56.5494C218.711 56.4794 218.25 56.5894 218.005 56.7694C217.76 56.9495 216.759 56.6894 216.534 56.7794L216.455 56.7294L216.102 56.4994C215.808 56.6794 215.239 56.7895 214.837 56.7494L214.514 56.8295L214.19 56.9195C213.886 56.8295 213.327 56.7694 212.954 56.7794L212.611 56.8195L212.287 56.8595C211.944 56.9595 211.434 56.9195 211.15 56.7694L210.767 56.9495L210.493 57.0795C210.091 57.0595 209.316 57.1195 208.776 57.2095L208.237 57.0795L207.874 56.9895C207.394 57.1195 206.874 57.2395 206.717 57.2595C206.56 57.2795 206.06 57.1395 205.913 57.1995C205.766 57.2595 205.266 57.2395 204.922 57.2295C204.579 57.2195 203.716 57.3896 203.687 57.3195C203.657 57.2495 203.559 57.2395 203.549 57.4496C203.54 57.6596 202.853 57.2795 202.716 57.2695C202.578 57.2595 201.961 57.2895 201.666 57.3295C201.372 57.3695 200.588 57.2595 200.382 57.2995C200.176 57.3395 199.411 57.2295 199.136 57.1895C198.862 57.1495 197.891 57.2095 197.597 57.1495C197.302 57.0895 196.528 57.4696 196.4 57.4896C196.273 57.5096 195.861 57.3896 195.704 57.4096C195.547 57.4296 195.086 57.3896 194.733 57.3696C194.38 57.3495 193.38 57.2595 193.262 57.2595C193.144 57.2595 192.83 57.3695 192.732 57.2395C192.634 57.1095 191.801 57.2595 191.536 57.2895C191.271 57.3195 190.29 57.3896 189.918 57.5796L189.457 57.2895L189.123 57.0795C188.574 57.0695 187.731 57.1495 187.25 57.2695L186.77 57.0895L186.701 57.0595C186.485 57.2795 186.103 57.3195 185.858 57.1595C185.612 56.9995 184.347 57.2995 183.798 57.3595C183.249 57.4196 181.768 57.0695 181.69 57.0595C181.611 57.0495 181.072 57.1395 180.562 57.2095L180.081 57.0595L179.797 56.9695C179.63 57.2695 179.326 57.4196 179.101 57.3095C178.875 57.1995 178.287 57.0295 178.149 57.1495C178.012 57.2695 177.482 57.5296 177.365 57.4096C177.247 57.2895 176.668 57.1095 176.198 57.1595L175.874 57.2895C175.511 57.4396 175.178 57.4096 174.903 57.2595L174.589 57.0995C174.344 57.2395 174.021 57.3095 173.883 57.2595C173.746 57.2095 173.226 57.0895 173.079 57.0695C172.932 57.0495 172.442 57.1595 172.275 57.2695C172.108 57.3796 171.539 57.2695 171.392 57.3095C171.245 57.3495 170.627 57.2995 170.441 57.2895C170.255 57.2795 169.745 57.1895 169.725 57.0795C169.705 56.9695 169.607 56.6494 169.529 56.6994C169.45 56.7494 169.254 56.7494 169.215 56.6494C169.176 56.5494 168.862 56.4794 168.705 56.5394L168.617 56.7194C168.548 56.8695 168.215 56.9295 168.009 57.0395C167.44 57.3796 167.42 57.3796 166.822 56.9795L166.724 56.9195C166.587 56.8495 166.381 56.8795 166.253 56.9695C166.126 57.0595 165.596 57.2395 165.42 57.1095C165.243 56.9795 164.724 56.6994 164.704 56.8095C164.684 56.9195 164.4 57.2595 164.135 57.2895C163.87 57.3195 162.527 57.1995 161.644 57.3696L160.791 57.0895L160.526 56.9995C160.075 57.2395 159.634 57.3395 159.555 57.2195C159.477 57.0995 159.065 57.3295 159.016 57.3696C158.967 57.4096 158.565 57.4196 158.163 57.4196C157.761 57.4196 156.603 57.2295 156.446 57.1895C156.29 57.1495 155.721 57.3596 155.534 57.4596C155.348 57.5596 154.416 57.5296 154.034 57.7896L153.583 57.4296L153.318 57.2195C153.004 57.3095 152.582 57.2995 152.396 57.2095C152.21 57.1195 151.651 57.5096 151.455 57.5396C151.259 57.5696 150.65 57.3896 150.631 57.2795C150.611 57.1695 150.327 56.9595 150.072 57.1595L149.886 57.3395L149.67 57.5396C149.425 57.4496 149.13 57.4196 149.013 57.4796C148.895 57.5396 148.532 57.6196 148.513 57.4996C148.493 57.3796 148.385 57.3395 148.316 57.6596L147.875 57.4896L147.65 57.3996C147.453 57.4496 147.189 57.5096 147.042 57.5396C146.894 57.5696 146.384 57.3695 146.218 57.3996C146.051 57.4296 145.463 57.3996 145.276 57.2895C145.09 57.1795 144.443 57.2395 144.158 57.1695L143.903 57.1195C143.795 57.0995 143.56 57.2495 143.54 57.2295C143.325 56.9895 143.217 57.1995 143.05 57.2695C142.972 57.2995 142.785 57.1295 142.638 57.0795C142.609 57.0795 142.481 57.1795 142.471 57.2395V57.2895C142.57 57.3495 142.619 57.4196 142.579 57.4596C142.54 57.4996 142.354 57.4696 142.226 57.4296C142.099 57.3896 141.559 57.4196 141.314 57.5096H141.089C140.736 57.5096 140.255 57.2895 140.069 57.4096L139.706 57.6496C139.412 57.5096 139.049 57.4096 138.892 57.4196C138.735 57.4296 138.225 57.6096 138.088 57.7096C137.95 57.8096 137.823 57.3796 137.803 57.3595C137.784 57.3395 137.46 57.3596 137.087 57.3896C136.715 57.4196 135.528 57.5396 135.263 57.5696C134.999 57.5996 134.243 56.9695 134.145 57.0595C134.047 57.1495 133.812 57.5896 133.4 57.6396C132.988 57.6896 131.419 57.2195 130.752 57.0495L130.173 57.5196L130.017 57.6496C129.615 57.5796 129.203 57.4696 129.095 57.4196C128.987 57.3695 128.555 57.4596 128.379 57.3696C128.202 57.2795 127.614 57.5096 127.526 57.5196C127.437 57.5296 126.918 57.4996 126.584 57.4596C126.251 57.4196 124.907 57.5296 124.309 57.6396L123.809 57.3095C123.809 57.3095 122.583 57.5596 122.573 57.5796C122.514 57.6296 122.455 57.7196 122.387 57.7296L122.083 57.7896C121.798 57.6596 121.592 57.4496 121.612 57.3395C121.632 57.2295 121.553 56.8995 121.435 56.8995C121.318 56.8995 121.073 56.9895 121.161 57.0895V57.1995L121.19 57.3495C121.19 57.5696 120.926 57.6996 120.621 57.6296H120.141C119.915 57.6796 119.474 57.7496 119.16 57.7696C118.846 57.7896 117.915 57.6196 117.728 57.6896C117.542 57.7596 116.924 57.5996 116.748 57.6896C116.571 57.7796 115.983 57.6296 115.885 57.6696H115.787C115.326 57.7396 114.904 57.7296 114.423 57.5896L114.002 57.4696C113.413 57.4796 112.776 57.4896 112.59 57.4796C112.403 57.4696 112.217 57.0895 111.991 57.3495L111.874 57.4896L111.805 57.5696C111.736 57.6596 111.423 57.7896 111.109 57.8596C110.795 57.9296 109.844 57.5896 109.677 57.5596C109.51 57.5296 109.196 57.5596 109.088 57.5096C108.981 57.4596 108.539 57.5096 108.402 57.5296C108.265 57.5496 107.666 57.5796 107.362 57.5496C107.058 57.5196 106.284 57.3295 106.274 57.2795C106.264 57.2295 106.088 57.3395 105.921 57.6296L105.411 57.3696C105.274 57.2995 104.891 57.6396 104.597 57.6696L104.342 57.6996C104.048 57.5896 103.567 57.6996 103.293 57.9597L102.871 57.6496L102.626 57.4796C102.233 57.3295 101.841 57.2895 101.772 57.3996C101.704 57.5096 101.351 57.7596 101.253 57.6296C101.155 57.4996 100.753 57.3796 100.556 57.5696L100.37 57.6596C100.262 57.7096 99.9484 57.6496 99.9484 57.6196L99.8993 57.1295C99.3894 56.9895 98.948 56.9995 98.9088 57.1595C98.8696 57.3195 98.5852 57.5996 98.3204 57.5496L98.1046 57.5996C97.9379 57.6396 97.8202 57.7796 97.8006 57.5296C97.781 57.2595 97.5457 57.1995 97.3789 57.3195C96.9082 57.6596 96.3688 57.4296 95.8687 57.4996L95.5254 57.5496C95.1429 57.5996 94.7801 57.6496 94.7114 57.6496H94.6526L94.2407 57.5796C93.6719 57.4896 93.3679 57.3596 93.5542 57.2995C93.7405 57.2395 93.3581 56.9195 93.3287 56.8095C93.2992 56.6994 93.0737 56.5994 93.0541 56.8195C93.0344 57.0395 92.8481 57.5896 92.6618 57.5096L92.5343 57.4096L92.3872 57.2995C92.2401 57.0695 91.9164 56.9995 91.6517 57.1395C91.3869 57.2795 90.671 57.3796 90.5827 57.2095C90.4944 57.0395 90.0629 56.7394 89.857 56.9595V57.6696C89.5137 57.6896 88.9645 57.6396 88.6409 57.5696C88.3173 57.4996 87.3562 57.6196 87.2875 57.5896C87.2189 57.5596 86.8953 57.4696 86.7187 57.4096C86.5422 57.3495 85.7773 57.4096 85.4046 57.5196L85.1594 57.4396L84.9241 57.3595C84.777 57.0495 84.4827 56.8795 84.2768 56.9695C84.0709 57.0595 83.6099 57.3695 83.6295 57.4496V57.5896C83.5707 57.6596 83.4726 57.7096 83.404 57.6896C83.3353 57.6696 83.0804 57.4796 82.9332 57.3295C82.7861 57.1795 82.1781 57.4896 82.08 57.4996C81.982 57.5096 81.5799 57.4496 81.3739 57.3996L81.3543 57.3195L81.2857 57.0595C81.5505 57.0595 81.9525 57.0395 82.1781 57.0095C82.4037 56.9795 82.5115 56.4494 82.286 56.4094C82.0604 56.3694 81.3935 56.4094 81.3935 56.5794L81.2955 56.7394C81.1778 56.9395 80.9817 57.2395 80.7953 57.2495C80.2952 57.2795 80.6874 56.8395 80.4815 56.6794L80.4521 56.6594C80.4521 56.6594 80.1971 56.7994 80.001 57.0395C79.8048 57.2795 78.7359 57.2695 78.4024 57.2895C78.069 57.3095 77.7061 56.7394 77.6081 56.9495C77.51 57.1595 78.2259 57.3195 78.2651 57.3495C78.3043 57.3796 78.3338 57.5696 78.2161 57.6896H78.0984L77.9513 57.7196C77.7748 57.6496 77.4021 57.3996 77.1177 57.1595L77.0491 56.3094C77.0491 56.1993 76.696 55.9893 76.6764 55.9993C75.8232 56.5794 76.1076 55.8793 76.0193 55.6092V55.5792C75.9212 55.5192 75.833 55.6292 75.8134 55.8293C75.7938 56.0293 75.5878 56.3994 75.4015 56.2394C75.2151 56.0793 74.9209 56.7995 74.8523 56.9395C74.7836 57.0795 74.4894 57.5096 74.3717 57.5296C74.2541 57.5496 73.597 57.5096 73.0968 57.5296L72.6457 57.5496H72.5476C72.4496 57.5996 72.3613 57.5696 72.3515 57.4896C72.3417 57.4096 72.3613 57.2295 72.3515 57.0795C72.3417 56.9295 72.7046 56.6194 72.9007 56.6494L73.0576 56.6794L73.2047 56.7094C73.3322 56.8095 73.6264 56.9495 73.852 57.0095L74.0775 57.0395C74.1854 57.0495 74.3717 56.9995 74.411 56.9395L74.5287 56.6894C74.6267 56.4094 74.8915 56.1693 75.0975 56.1693L75.1661 56.0893C75.323 55.8993 75.3132 55.5992 75.4995 55.4492L75.8526 55.1692C75.6467 54.9291 75.3819 54.7191 75.2544 54.6991C75.1269 54.6791 74.7346 54.8391 74.7346 55.1392C74.7346 55.4392 74.4796 56.1893 74.1854 56.1993L74.0089 56.3994C73.7931 56.6494 73.5872 56.6794 73.2636 56.4494L73.0968 56.3394L73.0282 56.3894ZM76.2155 54.149C75.9703 54.069 75.7643 54.029 75.7447 54.059C75.7251 54.089 75.7938 54.259 75.9311 54.369C76.0684 54.4791 76.8137 54.5391 77.206 54.379L77.5786 54.6791C77.5786 54.6791 77.7355 54.6391 77.7846 54.5891L77.9121 54.459C78.0788 54.259 78.0199 54.059 77.7748 54.019C77.5296 53.979 76.4606 54.229 76.2155 54.149ZM69.1054 54.5791C68.7719 54.6891 68.6052 54.9091 68.7327 55.0792C68.8602 55.2492 69.4683 54.8991 69.6154 54.8191C69.7625 54.7391 70.4686 54.6791 70.7235 54.6791C70.9785 54.6791 71.7042 54.5491 71.5866 54.379C71.4689 54.209 70.7824 54.359 70.6157 54.409C70.4489 54.459 69.9782 54.379 69.6546 54.319L69.3702 54.449L69.0956 54.5791H69.1054ZM240.188 26.6543C240.463 26.7443 240.581 26.6543 240.453 26.4642C240.326 26.2742 239.884 25.5641 239.669 25.194L239.266 25.6641L238.972 26.0141C238.649 25.8941 238.551 25.8441 238.766 25.9041C238.982 25.9641 239.914 26.5642 240.188 26.6543ZM126.28 54.6991C125.947 54.6991 125.623 54.7791 125.564 54.8591L125.584 54.8991L125.682 55.0792C125.584 55.2592 125.613 55.4592 125.741 55.5292C125.868 55.5992 126.339 55.3592 126.584 55.2992C126.829 55.2392 126.633 54.6891 126.29 54.6891L126.28 54.6991ZM244.366 26.3742C244.19 26.0942 244.091 26.0942 244.16 26.3742C244.229 26.6543 245.023 26.9543 245.258 26.9843L245.278 26.7043V26.5742C245.484 26.3142 245.258 26.2942 244.778 26.5342L244.611 26.4742L244.366 26.3842V26.3742ZM66.9184 54.309C66.3692 54.449 66.0848 54.5591 66.2908 54.5591C66.4967 54.5591 67.1244 54.9091 67.2911 54.9991C67.4578 55.0892 67.9482 55.2292 67.9482 55.0692C67.9482 54.9091 67.7226 54.5891 67.4382 54.7191L67.3794 54.6691L66.9184 54.309ZM91.0142 55.3392C90.8965 55.3192 90.9554 55.6192 91.1515 56.0093L91.4163 56.1393L91.7399 56.2994C92.0537 56.5094 92.446 56.6194 92.6127 56.5594L92.6618 56.4694L92.7206 56.3494C92.6912 56.1593 92.3872 56.0493 92.0341 56.0893L91.838 55.9993L91.6222 55.8993C91.4653 55.6593 91.1417 55.3692 91.024 55.3492L91.0142 55.3392ZM170.568 55.2892C170.735 55.2192 170.774 55.0692 170.647 54.9591C170.519 54.8491 170.166 54.5491 170.098 54.459C170.029 54.369 169.637 54.4691 169.715 54.7091C169.794 54.9491 170.402 55.3592 170.568 55.2892ZM83.1196 55.8393C83.0705 55.5592 83.0411 55.5292 83.0607 55.7693C83.0803 56.0093 82.9921 56.6794 83.198 56.6594C83.404 56.6394 83.1686 56.1193 83.1196 55.8393ZM7.96864 37.3861C8.17459 37.4361 8.29228 37.3161 8.22363 37.1161H8.17459C7.79212 37.0861 7.69405 36.916 7.73328 36.626L7.75289 36.486C7.69405 36.2859 7.51752 36.3459 7.37042 36.596C7.22331 36.846 7.7627 37.3361 7.96864 37.3761V37.3861ZM4.57543 42.1969C4.57543 42.0869 4.42832 41.9669 4.2616 41.9269L4.12431 41.8669C3.99682 41.8169 3.94778 41.6168 3.74183 41.7969C3.58492 41.9369 3.45743 42.0269 3.71241 42.1969C3.91836 42.337 3.52608 42.787 4.03604 42.757C4.22238 42.747 4.37929 42.427 4.5362 42.2469L4.57543 42.1969Z" fill="#009FE3"/>
<path d="M251.28 27.0351C251.398 27.1451 251.025 26.9451 250.446 26.585L249.75 26.705C249.642 26.725 249.436 26.575 249.358 26.465L249.191 26.235C249.034 25.9249 249.171 25.7449 249.495 25.8349H249.74L250.338 25.8149C250.054 25.6249 250.123 25.4848 250.485 25.5048L250.74 25.8249L250.927 26.0649C251.378 26.245 251.653 26.415 251.535 26.445C251.417 26.475 251.143 26.9251 251.27 27.0351H251.28Z" fill="#009FE3"/>
</g>
<defs>
<clipPath id="clip0_607_3250">
<rect width="251" height="58" fill="white" transform="translate(0.574219)"/>
</clipPath>
</defs>
</svg>
