<svg width="82" height="82" viewBox="0 0 82 82" fill="none" xmlns="http://www.w3.org/2000/svg">
<g clip-path="url(#clip0_129_12541)">
<path d="M41.0003 20.5C44.7743 20.5 47.8337 17.4406 47.8337 13.6667C47.8337 9.89272 44.7743 6.83334 41.0003 6.83334C37.2264 6.83334 34.167 9.89272 34.167 13.6667C34.167 17.4406 37.2264 20.5 41.0003 20.5Z" fill="#294BB6"/>
<path d="M54.2914 27.7092C52.9589 26.3767 50.6697 23.9167 46.228 23.9167C45.5105 23.9167 41.3764 23.9167 37.5497 23.9167C29.1447 23.8825 22.1405 17.7667 20.7397 9.7375C20.4664 8.06334 19.0655 6.83334 17.3914 6.83334C15.3072 6.83334 13.6672 8.67834 13.9747 10.7283C15.478 19.8167 22.1064 27.1625 30.7505 29.7592V71.75C30.7505 73.6292 32.288 75.1667 34.1672 75.1667C36.0464 75.1667 37.5839 73.6292 37.5839 71.75V54.6667H44.4172V71.75C44.4172 73.6292 45.9547 75.1667 47.8339 75.1667C49.713 75.1667 51.2505 73.6292 51.2505 71.75V34.3375L62.3205 45.4075C63.653 46.74 65.8055 46.74 67.138 45.4075C68.4705 44.075 68.4705 41.9225 67.138 40.59L54.2914 27.7092Z" fill="#294BB6"/>
</g>
<defs>
<clipPath id="clip0_129_12541">
<rect width="82" height="82" fill="white"/>
</clipPath>
</defs>
</svg>
