<svg width="15" height="10" viewBox="0 0 15 10" fill="none" xmlns="http://www.w3.org/2000/svg">
<path d="M6.70833 9.75H8.29167C8.72708 9.75 9.08333 9.39375 9.08333 8.95833C9.08333 8.52292 8.72708 8.16667 8.29167 8.16667H6.70833C6.27292 8.16667 5.91667 8.52292 5.91667 8.95833C5.91667 9.39375 6.27292 9.75 6.70833 9.75ZM0.375 1.04167C0.375 1.47708 0.73125 1.83333 1.16667 1.83333H13.8333C14.2688 1.83333 14.625 1.47708 14.625 1.04167C14.625 0.60625 14.2688 0.25 13.8333 0.25H1.16667C0.73125 0.25 0.375 0.60625 0.375 1.04167ZM3.54167 5.79167H11.4583C11.8938 5.79167 12.25 5.43542 12.25 5C12.25 4.56458 11.8938 4.20833 11.4583 4.20833H3.54167C3.10625 4.20833 2.75 4.56458 2.75 5C2.75 5.43542 3.10625 5.79167 3.54167 5.79167Z" fill="#1D71B8"/>
</svg>
