<svg width="82" height="82" viewBox="0 0 82 82" fill="none" xmlns="http://www.w3.org/2000/svg">
<g clip-path="url(#clip0_129_12911)">
<path d="M68.334 10.25H41.0007C39.1215 10.25 37.584 11.7875 37.584 13.6667V19.1675C37.584 19.1675 37.584 19.1675 37.6182 19.2017L54.7015 34.5767C56.854 36.49 58.084 39.2917 58.084 42.1958V44.4167H64.9173V51.25H58.084V58.0833H64.9173V64.9167H58.084V71.75H68.334C70.2132 71.75 71.7506 70.2125 71.7506 68.3333V13.6667C71.7506 11.7875 70.2132 10.25 68.334 10.25ZM51.2507 23.9167H44.4173V17.0833H51.2507V23.9167ZM64.9173 37.5833H58.084V30.75H64.9173V37.5833ZM64.9173 23.9167H58.084V17.0833H64.9173V23.9167Z" fill="#294BB6"/>
<path d="M51.25 68.3334V42.1959C51.25 41.2392 50.84 40.3167 50.1225 39.6676L33.0392 24.2926C32.39 23.6776 31.57 23.4042 30.75 23.4042C29.93 23.4042 29.11 23.7117 28.4608 24.2926L11.3775 39.6676C10.66 40.2826 10.25 41.2051 10.25 42.1959V68.3334C10.25 70.2126 11.7875 71.7501 13.6667 71.7501H20.5C22.3792 71.7501 23.9167 70.2126 23.9167 68.3334V54.6667H37.5833V68.3334C37.5833 70.2126 39.1208 71.7501 41 71.7501H47.8333C49.7125 71.7501 51.25 70.2126 51.25 68.3334Z" fill="#294BB6"/>
</g>
<defs>
<clipPath id="clip0_129_12911">
<rect width="82" height="82" fill="white"/>
</clipPath>
</defs>
</svg>
