<svg width="82" height="82" viewBox="0 0 82 82" fill="none" xmlns="http://www.w3.org/2000/svg">
<g clip-path="url(#clip0_129_12594)">
<path d="M40.9997 6.83339C22.1397 6.83339 6.83301 22.1401 6.83301 41.0001C6.83301 59.8601 22.1397 75.1667 40.9997 75.1667C59.8597 75.1667 75.1664 59.8601 75.1664 41.0001C75.1664 22.1401 59.8597 6.83339 40.9997 6.83339ZM37.583 68.0942C24.0872 66.4201 13.6663 54.9401 13.6663 41.0001C13.6663 38.8817 13.9397 36.8659 14.3838 34.8842L30.7497 51.2501V54.6667C30.7497 58.4251 33.8247 61.5001 37.583 61.5001V68.0942ZM61.158 59.4159C60.2697 56.6484 57.7413 54.6667 54.6663 54.6667H51.2497V44.4167C51.2497 42.5376 49.7122 41.0001 47.833 41.0001H27.333V34.1667H34.1663C36.0455 34.1667 37.583 32.6292 37.583 30.7501V23.9167H44.4163C48.1747 23.9167 51.2497 20.8417 51.2497 17.0834V15.6826C61.2605 19.7484 68.333 29.5542 68.333 41.0001C68.333 48.1067 65.5997 54.5642 61.158 59.4159Z" fill="#294BB6"/>
</g>
<defs>
<clipPath id="clip0_129_12594">
<rect width="82" height="82" fill="white"/>
</clipPath>
</defs>
</svg>
