<svg width="57" height="51" viewBox="0 0 57 51" fill="none" xmlns="http://www.w3.org/2000/svg">
<path d="M8.6976 0.310969L29.3873 21.8184C29.2473 21.8093 29.0973 21.8093 28.9473 21.8093C27.4284 21.8093 25.9312 21.9995 24.4861 22.3555L4.92877 2.3634L7.23763 0.265537C7.43763 0.0928956 7.70762 -0.0161408 7.97762 0.00203194C8.25761 0.0111183 8.51761 0.120155 8.6976 0.310969ZM1.23773 5.71736C0.867735 6.05356 0.847736 6.59874 1.19773 6.96219L18.5474 25.0441C18.9174 24.7806 19.3074 24.5262 19.7074 24.2899C20.5743 23.7772 21.4899 23.3505 22.4351 22.9938L3.51239 3.65048L1.23773 5.71736ZM50.6569 0.265537C50.4569 0.0928956 50.1869 -0.00705443 49.9069 0.00203194C49.6369 0.0111183 49.3669 0.129241 49.1869 0.320055L42.297 7.58007L30.2272 19.9375L31.1472 20.8916L32.2472 22.1001C32.8666 22.2095 33.4711 22.3597 34.0676 22.531L52.9705 2.36776L50.6569 0.265537ZM56.6568 5.71736L54.3896 3.6573L36.0374 23.2333C36.7655 23.5396 37.4802 23.8784 38.1671 24.2808C38.5671 24.5171 38.9571 24.7624 39.3371 25.035L56.6968 6.96219C57.0468 6.59874 57.0268 6.06264 56.6568 5.71736ZM43.398 3.63658L46.848 0.00203194H11.058L14.5537 3.63658H43.398ZM38.1492 9.08841L40.8025 6.37094L41.6731 5.45386H16.3017L19.7974 9.08841H38.1492ZM35.9471 37.2562C35.9471 40.7634 32.8066 43.6166 28.9473 43.6166C25.0879 43.6166 21.9474 40.7634 21.9474 37.2562C21.9474 33.7489 25.0879 30.8957 28.9473 30.8957C32.8066 30.8957 35.9471 33.7489 35.9471 37.2562ZM37.0819 25.8091C35.1601 24.6746 33.0351 23.9732 30.7715 23.7247C30.1933 23.6586 29.5967 23.6266 28.9473 23.6266C26.0459 23.6266 23.2257 24.384 20.7921 25.8174C16.5061 28.3468 13.9475 32.6229 13.9475 37.2562C13.9475 44.7715 20.6759 50.8857 28.9473 50.8857C37.2186 50.8857 43.947 44.7715 43.947 37.2562C43.947 32.6074 41.3797 28.3273 37.0819 25.8091ZM28.9473 45.4339C23.9844 45.4339 19.9474 41.7652 19.9474 37.2562C19.9474 32.7471 23.9844 29.0784 28.9473 29.0784C33.9101 29.0784 37.9471 32.7471 37.9471 37.2562C37.9471 41.7652 33.9101 45.4339 28.9473 45.4339Z" fill="white"/>
<path d="M26.429 39.493C26.6783 39.295 26.792 39.2033 26.77 39.218C27.4887 38.624 28.0533 38.1363 28.464 37.755C28.882 37.3737 29.234 36.974 29.52 36.556C29.806 36.138 29.949 35.731 29.949 35.335C29.949 35.0343 29.8793 34.7997 29.74 34.631C29.6007 34.4623 29.3917 34.378 29.113 34.378C28.8343 34.378 28.6143 34.4843 28.453 34.697C28.299 34.9023 28.222 35.1957 28.222 35.577H26.407C26.4217 34.9537 26.5537 34.433 26.803 34.015C27.0597 33.597 27.3933 33.289 27.804 33.091C28.222 32.893 28.684 32.794 29.19 32.794C30.0627 32.794 30.719 33.0177 31.159 33.465C31.6063 33.9123 31.83 34.4953 31.83 35.214C31.83 35.9987 31.5623 36.7283 31.027 37.403C30.4917 38.0703 29.8097 38.723 28.981 39.361H31.951V40.89H26.429V39.493Z" fill="#1474FF"/>
</svg>
