<svg width="56" height="51" viewBox="0 0 56 51" fill="none" xmlns="http://www.w3.org/2000/svg">
<path d="M7.75034 0.310908L28.44 21.8184C28.3 21.8093 28.15 21.8093 28 21.8093C26.4811 21.8093 24.9839 21.9994 23.5389 22.3554L3.9815 2.36334L6.29036 0.265476C6.49036 0.0928346 6.76035 -0.0162018 7.03035 0.0019709C7.31035 0.0110573 7.57034 0.120094 7.75034 0.310908ZM0.290464 5.7173C-0.0795301 6.0535 -0.0995297 6.59868 0.250464 6.96213L17.6002 25.044C17.9702 24.7805 18.3602 24.5261 18.7602 24.2898C19.627 23.7771 20.5426 23.3504 21.4878 22.9938L2.56513 3.65042L0.290464 5.7173ZM49.7096 0.265476C49.5096 0.0928346 49.2396 -0.00711547 48.9596 0.0019709C48.6897 0.0110573 48.4197 0.12918 48.2397 0.319994L41.3498 7.58001L29.28 19.9375L30.2 20.8915L31.2999 22.1C31.9193 22.2094 32.5238 22.3596 33.1203 22.5309L52.0232 2.3677L49.7096 0.265476ZM55.7095 5.7173L53.4424 3.65724L35.0902 23.2332C35.8183 23.5395 36.533 23.8783 37.2198 24.2808C37.6198 24.517 38.0098 24.7623 38.3898 25.0349L55.7495 6.96213C56.0995 6.59868 56.0795 6.06258 55.7095 5.7173ZM42.4508 3.63652L45.9007 0.0019709H10.1107L13.6064 3.63652H42.4508ZM37.2019 9.08834L39.8552 6.37088L40.7258 5.45379H15.3544L18.8502 9.08834H37.2019ZM34.9999 37.2561C34.9999 40.7634 31.8593 43.6166 28 43.6166C24.1407 43.6166 21.0001 40.7634 21.0001 37.2561C21.0001 33.7489 24.1407 30.8956 28 30.8956C31.8593 30.8956 34.9999 33.7489 34.9999 37.2561ZM36.1347 25.809C34.2128 24.6746 32.0878 23.9731 29.8243 23.7247C29.2461 23.6585 28.6494 23.6265 28 23.6265C25.0986 23.6265 22.2784 24.3839 19.8448 25.8174C15.5588 28.3467 13.0003 32.6229 13.0003 37.2561C13.0003 44.7714 19.7286 50.8857 28 50.8857C36.2714 50.8857 42.9997 44.7714 42.9997 37.2561C42.9997 32.6073 40.4324 28.3272 36.1347 25.809ZM28 45.4338C23.0372 45.4338 19.0002 41.7651 19.0002 37.2561C19.0002 32.7471 23.0372 29.0784 28 29.0784C32.9628 29.0784 36.9999 32.7471 36.9999 37.2561C36.9999 41.7651 32.9628 45.4338 28 45.4338Z" fill="white"/>
<path d="M25.561 35.236C25.5903 34.4513 25.847 33.8463 26.331 33.421C26.815 32.9957 27.4713 32.783 28.3 32.783C28.85 32.783 29.3193 32.8783 29.708 33.069C30.104 33.2597 30.401 33.52 30.599 33.85C30.8043 34.18 30.907 34.5503 30.907 34.961C30.907 35.445 30.786 35.841 30.544 36.149C30.302 36.4497 30.0197 36.655 29.697 36.765V36.809C30.115 36.9483 30.445 37.1793 30.687 37.502C30.929 37.8247 31.05 38.239 31.05 38.745C31.05 39.1997 30.9437 39.603 30.731 39.955C30.5257 40.2997 30.2213 40.571 29.818 40.769C29.422 40.967 28.949 41.066 28.399 41.066C27.519 41.066 26.815 40.8497 26.287 40.417C25.7663 39.9843 25.4913 39.3317 25.462 38.459H27.288C27.2953 38.7817 27.387 39.0383 27.563 39.229C27.739 39.4123 27.9957 39.504 28.333 39.504C28.619 39.504 28.839 39.4233 28.993 39.262C29.1543 39.0933 29.235 38.8733 29.235 38.602C29.235 38.25 29.1213 37.997 28.894 37.843C28.674 37.6817 28.3183 37.601 27.827 37.601H27.475V36.072H27.827C28.201 36.072 28.5017 36.0097 28.729 35.885C28.9637 35.753 29.081 35.522 29.081 35.192C29.081 34.928 29.0077 34.7227 28.861 34.576C28.7143 34.4293 28.5127 34.356 28.256 34.356C27.9773 34.356 27.7683 34.4403 27.629 34.609C27.497 34.7777 27.42 34.9867 27.398 35.236H25.561Z" fill="#1474FF"/>
</svg>
