<svg width="211" height="12" viewBox="0 0 211 12" fill="none" xmlns="http://www.w3.org/2000/svg">
<path d="M191.234 0.48478C191.359 0.60589 191.569 0.504965 191.711 0.28293L191.728 0.313207C191.904 0.585705 192.054 0.20219 192.121 0.272837C192.356 0.515057 192.523 0.494872 192.783 0.28293C192.85 0.232467 193.168 0.535242 193.394 0.585705L193.562 0.626075C193.771 0.545335 194.081 0.494872 194.249 0.535242C194.416 0.575613 195.103 0.716908 195.413 0.797648L195.656 0.555428C195.656 0.555428 195.765 0.52515 195.815 0.535242C196.1 0.64626 196.385 0.858203 196.669 0.858203H196.895C197.113 0.676538 197.272 0.817833 197.239 1.17107L197.683 0.757278L198.051 0.414132C198.411 0.575613 198.906 0.626075 199.149 0.535242C199.391 0.44441 200.12 0.888481 200.38 0.868295C200.639 0.84811 201.51 1.17107 201.77 1.23163L201.753 0.84811C201.753 0.84811 201.912 0.757278 201.946 0.777463L202.281 1.03987C202.691 0.959128 203.152 1.00959 203.294 1.15089C203.437 1.29218 203.973 0.989406 204.107 1.06005C204.241 1.1307 204.743 1.24172 204.919 1.1307C205.095 1.01968 206.058 1.06005 206.611 1.08024L207.089 1.32246C207.239 1.4032 207.541 1.16098 207.775 1.1307L207.951 1.11052C208.152 1.17107 208.387 1.18116 208.479 1.11052H208.487L208.923 1.5344C209.442 1.31237 209.928 1.36283 210.003 1.63533C210.079 1.90782 210.498 2.57393 210.598 2.55375C210.699 2.53356 210.983 2.55375 211 2.62439C211.017 2.69504 210.891 2.98772 210.724 3.09874C210.556 3.20976 210.539 4.08781 210.263 4.55206L210.355 5.12734L210.38 5.25854C210.372 5.46039 210.305 5.5815 210.238 5.52094C210.171 5.46039 209.978 5.4503 209.911 5.60169C210.389 5.83381 209.827 6.21733 210.054 6.47973C210.079 6.51001 210.079 6.60084 210.054 6.63112L209.693 7.01464C209.677 7.30732 209.291 7.63028 208.831 7.73121L208.42 7.35778L208.353 7.29723C208.085 7.42843 207.658 7.54954 207.399 7.55963C207.139 7.56973 206.268 7.48899 206.033 7.54954H205.589C205.355 7.50917 205.078 7.45871 204.978 7.45871C204.877 7.45871 204.492 7.42843 204.367 7.4688C204.241 7.50917 203.42 7.54954 202.817 7.54954C202.214 7.54954 200.346 7.52936 199.994 7.47889C199.643 7.42843 198.721 7.78167 198.638 7.78167H198.562L198.11 7.83213C197.624 7.73121 197.038 7.71102 196.803 7.78167C196.569 7.85232 195.84 7.63028 195.647 7.66056C195.455 7.69084 194.785 7.75139 194.559 7.69084C194.333 7.63028 193.227 7.77158 192.699 7.78167H192.205C191.711 7.78167 191.225 7.78167 190.731 7.78167C190.429 7.78167 189.952 7.89269 189.86 7.76148C189.634 7.43852 189.341 7.89269 189.173 7.6101C189.14 7.55963 188.964 7.54954 188.863 7.56973C188.637 7.6101 188.302 7.79176 188.21 7.71102L187.883 7.41834C187.64 7.63028 187.305 7.73121 187.138 7.65047C186.97 7.56973 186.61 7.52936 186.417 7.45871C186.225 7.38806 185.622 7.66056 185.454 7.54954C185.287 7.43852 184.692 7.81195 184.499 7.85232C184.307 7.89269 183.603 7.53945 183.251 7.4688L182.875 7.7413L182.607 7.93306C182.087 7.84222 181.568 7.72111 181.459 7.66056C181.35 7.6 180.856 7.51926 180.588 7.4688C180.32 7.41834 179.29 7.90278 178.821 8.11472L178.486 7.55963C178.486 7.55963 178.226 7.49908 178.167 7.55963C177.807 7.90278 177.389 7.32751 177.02 7.64037C176.903 7.7413 176.677 7.78167 176.517 7.76148C176.208 7.72111 175.898 7.56973 175.588 7.56973H175.32C175.027 7.67065 174.65 7.73121 174.482 7.70093C174.315 7.67065 173.712 7.66056 173.569 7.57982C173.427 7.49908 172.874 7.80185 172.69 7.88259C172.505 7.96333 172.011 7.62019 171.835 7.70093C171.66 7.78167 170.855 7.72111 170.537 7.66056H170.244C169.959 7.66056 169.675 7.76148 169.39 7.76148H168.862C168.284 7.67065 167.346 7.6101 166.777 7.63028L166.299 7.79176L165.88 7.93306C165.453 7.83213 164.708 7.76148 164.214 7.78167H159.682C159.23 7.78167 158.778 7.76148 158.325 7.78167H158.041C157.731 7.8725 157.438 7.95324 157.379 7.96333C157.32 7.97343 156.902 7.91287 156.558 7.84222C156.215 7.77158 154.297 7.94315 154.154 7.89269C154.012 7.84222 153.635 7.85232 153.493 7.83213C153.35 7.81195 152.655 7.98352 152.287 8.0037H146.39C146.022 8.0037 144.908 8.04407 143.928 8.08444C142.948 8.12481 140.058 8.36703 139.69 8.51842L139.581 8.4175L139.296 8.16518C139.103 8.32666 138.718 8.31657 138.442 8.15509L138.09 8.4175C137.906 8.55879 137.504 8.44777 137.202 8.44777H136.708C136.172 8.44777 135.544 8.48814 135.309 8.5487C135.075 8.60925 134.262 8.36703 134.019 8.19546L133.843 8.45787L133.592 8.84138C133.391 8.62944 133.006 8.48814 132.729 8.52851C132.453 8.56888 131.557 8.63953 131.339 8.62944C131.121 8.61935 130.284 8.77073 129.89 8.70009L129.53 8.66981L129.153 8.63953C128.734 8.65972 128.215 8.72027 127.997 8.79092C127.779 8.86157 127.134 8.90194 126.799 9.06342L126.406 8.91203C126.079 8.79092 125.66 8.88175 125.283 8.88175H124.907C124.488 8.88175 123.977 8.98268 123.759 9.0836H123.365C123.156 8.98268 122.243 8.92212 121.347 8.94231C120.451 8.96249 117.963 9.26527 117.812 9.4974L117.544 9.17444C117.486 9.10379 117.117 9.28545 116.891 9.31573L116.665 9.34601C116.414 9.34601 116.037 9.20471 115.819 9.04323C115.601 8.88175 114.822 9.31573 114.579 9.31573C114.336 9.31573 113.474 9.31573 113.222 9.31573C112.971 9.31573 112.083 9.38638 111.799 9.45703H111.539C111.296 9.45703 111.045 9.32582 110.81 9.33592L110.341 9.36619C109.83 9.34601 109.043 9.33592 108.599 9.34601C108.155 9.3561 106.823 9.58823 106.547 9.51758H106.296L105.936 9.47721C105.542 9.52767 105.048 9.52767 104.847 9.47721C104.646 9.42675 103.959 9.7598 103.691 9.79008C103.423 9.82036 102.426 9.79008 102.116 9.79008C101.806 9.79008 100.458 9.79008 99.813 9.85063C99.1681 9.91119 96.915 9.98184 96.245 9.99193C95.5749 10.002 93.7155 10.0323 93.5815 10.113C93.4475 10.1938 92.8277 9.98184 92.6518 9.96165C92.4759 9.94147 91.8142 10.2241 91.496 10.2442C91.1777 10.2644 89.9046 10.2442 89.3853 10.2442C88.866 10.2442 87.0904 10.2442 86.5878 10.3048C86.0853 10.3654 83.9411 10.4259 82.9444 10.4259H81.0934C80.0548 10.4259 78.9827 10.4259 78.7063 10.436L78.5053 10.6378C78.3127 10.8296 78.1451 10.214 77.8771 10.5975L77.8269 10.6782C77.584 10.6278 77.2322 10.658 77.0479 10.7388C76.8637 10.8195 76.1517 10.5268 75.7329 10.6378H75.3477L72.3994 10.658C69.158 10.658 66.1679 10.5773 65.7575 10.4865L65.4392 10.8296L65.389 10.8801C65.255 10.8599 64.9535 10.8094 64.7106 10.7691C64.4677 10.7287 63.7809 10.7388 63.7055 10.8195C63.6301 10.9003 63.2616 10.7186 63.1611 10.7691C63.0606 10.8195 62.5831 10.8498 62.3486 10.8296L62.1308 10.7993L61.1006 10.87H60.8745C60.6316 10.87 60.3887 10.8094 60.3385 10.7085C60.2882 10.6076 59.8275 10.7993 59.6098 10.8094L59.4088 10.7791C59.3082 10.7691 59.1826 10.6379 59.1324 10.658L58.3618 11.0718C57.4656 10.9507 55.9831 10.8599 55.0702 10.87H52.1638C51.6278 10.8902 50.9828 10.87 50.7232 10.8094C50.4635 10.7489 49.5506 11.2131 49.1486 11.3746L48.8805 10.9204C48.847 10.87 48.6376 10.8397 48.5706 10.8801L48.1937 11.1425C47.7666 11.0315 47.0714 10.9911 46.6358 11.0516L46.2422 11.092C45.7899 11.1324 45.3376 11.092 44.8853 11.092H39.2569C38.8046 11.092 38.1429 11.0516 37.7995 10.9911C37.4561 10.9305 36.4762 11.2535 36.3505 11.1929C36.2249 11.1324 35.4543 11.0718 34.9183 11.0416C34.3822 11.0113 32.8327 11.2737 32.6485 11.2636C32.4642 11.2535 31.8695 11.2434 31.7355 11.1425C31.6015 11.0416 30.9817 11.2939 30.7974 11.3241C30.6132 11.3544 30.0353 11.1324 29.8007 11.203C29.5662 11.2737 28.7789 11.3241 28.5611 11.3544C28.3434 11.3847 27.6314 11.1627 27.4723 11.203C27.3132 11.2434 26.5342 11.2838 26.1154 11.2838C25.6967 11.2838 24.0048 11.2333 23.2761 11.1526L22.6563 11.5159L22.5474 11.5765C22.3715 11.5361 21.9276 11.5159 21.5591 11.5361L21.3246 11.3948L20.9393 11.1627C20.6629 11.3443 20.2273 11.4453 19.9845 11.4049L19.7081 11.5058L19.4065 11.6067C19.0129 11.5563 18.5606 11.5462 18.3931 11.5865C18.2256 11.6269 17.0111 11.304 15.9725 11.2232L15.1098 11.7177L14.7999 11.8994C14.4565 11.8187 13.9875 11.748 13.7613 11.7581C13.5352 11.7682 12.7479 11.7682 12.5217 11.7884C12.2956 11.8086 11.7679 11.6875 11.6758 11.7177C11.5836 11.748 11.0644 11.7682 10.7712 11.7581C10.4781 11.748 9.51486 11.7278 9.28034 11.7077C9.04582 11.6875 8.32551 11.748 8.12449 11.6875C7.92348 11.6269 7.45444 11.9297 7.39581 11.8691C7.33718 11.8086 7.06078 11.6572 6.9854 11.7379C6.91002 11.8187 6.44098 11.9701 6.19809 11.9701H5.97195C5.55316 11.9701 5.14275 11.9701 4.72397 11.9701H4.49783C4.39732 11.7884 4.27168 11.6471 4.23818 11.6471C4.20468 11.6471 4.07904 11.7278 4.06229 11.8187C4.04554 11.9095 3.45924 11.9095 3.06559 11.849H2.42904C2.10238 11.8389 1.88462 11.8086 1.94325 11.7884C2.00188 11.7682 2.12751 11.5865 2.027 11.4553C1.92649 11.3241 1.87624 10.8195 1.91812 10.658C1.96 10.4966 1.9935 10.0121 1.85949 10.0121C1.72548 10.0121 1.42395 10.0626 1.44908 10.1231C1.47421 10.1837 1.49096 10.3654 1.42395 10.3855C1.35695 10.4057 1.14756 10.2846 1.0303 10.1736C0.913038 10.0626 0.318365 9.81026 0.201106 9.67906C0.0838462 9.54786 -0.125546 9.01295 0.100598 8.9524C0.326741 8.89184 0.594762 9.58823 0.7539 9.72952H0.946541C1.01355 9.72952 1.0973 9.61851 1.13918 9.53777L1.16431 9.4974C1.12243 9.41666 1.03867 9.36619 0.980043 9.39647C0.921414 9.42675 0.728773 9.41666 0.728773 9.31573C0.728773 9.2148 0.921414 8.88175 1.15593 8.8212C1.39045 8.76064 2.06051 8.44777 2.06051 8.31657C2.06051 8.18537 2.14426 7.76148 2.24477 7.91287C2.34528 8.06426 2.74731 8.30648 2.90645 8.12481L2.9567 7.95324C3.03208 7.73121 3.07396 7.78167 3.22472 7.88259L3.33361 7.95324C3.50112 7.95324 3.95341 7.97343 4.33031 7.97343C4.70722 7.97343 5.62017 7.6101 5.53641 7.56973C5.45265 7.52936 5.73743 7.27704 6.35723 7.09538L7.02728 7.38806C7.15292 7.44862 7.28693 7.49908 7.42094 7.51926H7.52145C7.68896 7.47889 7.73921 7.31741 7.64708 7.18621C7.55495 7.05501 7.38743 6.67149 7.50469 6.63112H7.6052C7.72246 6.6614 7.86485 6.80269 7.92348 6.77242L8.30038 6.55038C8.5349 6.81279 8.79455 7.03482 8.88668 7.04491C8.97881 7.05501 9.34734 7.04491 9.26359 6.9339C9.17983 6.82288 9.26359 6.60084 9.44785 6.42927C9.63212 6.2577 10.3273 6.22742 10.4529 6.23751C10.5786 6.24761 11.1062 6.21733 11.2905 6.23751C11.4748 6.2577 12.0443 6.21733 12.304 6.29807C12.5636 6.37881 13.0913 5.81363 13.2337 5.83381C13.376 5.854 13.6441 6.17696 13.6692 6.21733C13.6943 6.2577 13.8032 6.30816 13.8451 6.23751V5.57141C14.289 5.66224 14.8753 5.854 15.1601 6.00539L15.5118 5.80353L15.8301 5.62187C16.274 5.56132 16.7766 5.4503 16.9608 5.35946C17.1451 5.26863 17.5806 5.64206 17.6644 5.60169L17.6895 5.55122L17.7398 5.4503C17.8403 5.42002 18.0999 5.4503 18.3344 5.51085H18.8537C19.1804 5.42002 19.5489 5.32919 19.6829 5.29891C19.8169 5.26863 20.4032 5.23835 20.6545 5.20808C20.9058 5.1778 21.7936 5.11724 22.0616 5.15761C22.3296 5.19798 23.1923 4.88512 23.4604 4.85484C23.7284 4.82456 24.4822 4.97595 24.6078 4.88512C24.7335 4.79428 25.2109 4.97595 25.3281 4.88512C25.4454 4.79428 25.8558 4.97595 25.9312 4.9053C26.0066 4.83465 26.2746 4.70345 26.3667 4.78419C26.4588 4.86493 26.7939 5.02641 26.9446 4.97595C27.0954 4.92549 27.6901 4.88512 27.933 4.9053C28.1759 4.92549 28.8794 4.84475 29.0553 4.85484C29.2312 4.86493 29.7924 4.79428 29.9264 4.73373C30.0604 4.67317 30.5881 4.59243 30.8309 4.54197C31.0738 4.49151 31.8025 4.87502 31.9533 4.93558C32.1041 4.99613 32.2883 4.52179 32.3721 4.48142L32.414 4.5016L32.7657 4.69336C33.1259 4.55206 33.4525 4.42086 33.486 4.40068H33.5112C33.7122 4.48142 33.93 4.65299 34.0891 4.60253L34.2817 4.55206C34.4492 4.59243 34.667 4.57225 34.7675 4.49151C34.868 4.41077 35.3454 4.49151 35.5632 4.57225L35.7642 4.61262L35.8982 4.6429C36.0574 4.61262 36.3673 4.56216 36.585 4.54197C36.8028 4.52179 37.5901 4.54197 37.8749 4.71354L38.2099 4.42086C38.4026 4.24929 38.7962 4.53188 39.0475 4.25938C39.0726 4.2291 39.2485 4.36031 39.3658 4.40068L39.8683 4.54197C40.4211 4.46123 40.9823 4.31994 41.1079 4.21901C41.2335 4.11808 41.6942 4.29975 41.7947 4.17864C41.8952 4.05753 42.2972 4.36031 42.3559 4.39058C42.4145 4.42086 42.7244 4.44105 42.9506 4.49151C43.1767 4.54197 44.0143 4.29975 44.4163 4.25938L44.7094 4.55206L44.7513 4.59243C44.877 4.62271 45.0612 4.54197 45.1617 4.43095C45.2622 4.31994 45.5386 4.21901 45.7061 4.18873C45.8737 4.15846 46.7029 4.2392 47.1468 4.33003L47.4985 3.9667C47.5907 3.87586 47.8922 4.00707 48.043 3.93642L48.3947 3.77494C48.6963 3.94651 49.048 4.0979 49.1653 4.11808C49.2826 4.13827 49.7516 4.02725 49.9191 4.08781L50.0699 4.16855C50.2625 4.27957 50.3546 3.74466 50.6059 4.08781C50.631 4.11809 50.8823 3.95661 51.0331 3.94651H51.2425C51.4686 4.00707 51.7283 4.07772 51.8036 4.10799C51.879 4.13827 52.3816 4.06762 52.6831 4.08781C52.9846 4.10799 53.7719 3.76485 53.8557 3.80522C53.9394 3.84559 54.3415 4.07771 54.5509 4.24929L54.7603 3.90614L55.0785 3.38133C55.5476 3.60337 56.1422 3.8254 56.4103 3.89605C56.6783 3.9667 57.5577 3.70429 57.7587 3.61346C57.9598 3.52263 58.5209 3.51253 58.7219 3.46207L58.856 3.5529L58.9983 3.65383C59.124 3.81531 59.3585 3.81531 59.526 3.65383L59.66 3.52263L59.6852 3.50244C59.7689 3.47216 59.9113 3.50244 60.0118 3.59327C60.1123 3.68411 60.4725 3.8254 60.573 3.73457C60.6735 3.64374 61.5362 3.64374 61.7037 3.6942C61.8712 3.74466 62.2732 3.71438 62.4324 3.75475C62.5915 3.79512 62.9684 3.6942 63.1024 3.70429C63.2364 3.71438 63.7306 3.64374 63.9065 3.54281C64.0824 3.44189 64.8194 3.74466 65.1712 3.80522L65.3974 3.48226C65.3974 3.48226 65.5397 3.47216 65.6151 3.48226L66.0758 3.5529C66.5783 3.62355 67.1898 3.57309 67.4243 3.44189C67.6588 3.31068 68.5382 3.67401 68.8314 3.66392L69.0743 3.60337L69.3004 3.54281C69.5517 3.54281 69.9537 3.47216 70.1966 3.41161C70.4395 3.35105 71.0928 3.70429 71.1766 3.72448L71.2352 3.6942L71.8969 3.40152C72.6674 3.44189 73.4548 3.47216 73.6474 3.47216C73.84 3.47216 74.5603 3.53272 74.8619 3.75475L75.1215 3.2905L75.2388 3.08865C75.5571 3.18957 75.9005 3.36115 75.9926 3.47216C76.0847 3.58318 76.5705 3.2905 76.7045 3.26022C76.8385 3.22994 77.2489 3.46207 77.3829 3.48226L77.4416 3.43179L77.7599 3.1492C78.0698 3.31068 78.4969 3.48226 78.7147 3.52263C78.9325 3.563 79.5523 3.39142 79.703 3.31068C79.8538 3.22994 80.3731 3.40152 80.4568 3.37124C80.5406 3.34096 80.817 3.18957 80.9091 3.09874C81.0012 3.00791 81.3279 3.1593 81.4117 3.04828L81.6629 3.16939L81.9477 3.31068C82.3665 3.22994 82.9277 3.10883 83.1957 3.03819C83.4637 2.96754 84.1673 3.1492 84.2929 3.11893C84.4185 3.08865 84.9043 3.1593 85.1221 3.22994L85.3315 3.25013H85.4069C85.5241 3.11893 85.6414 3.11893 85.6665 3.25013C85.6916 3.38133 85.9178 3.70429 86.0769 3.60337C86.236 3.50244 86.7637 3.20976 86.8977 3.13911C87.0317 3.06846 87.9782 3.05837 88.1457 3.09874C88.3132 3.13911 88.8493 2.86661 89.0586 2.83634C89.268 2.80606 89.9716 2.84643 90.1559 2.92717C90.3401 3.00791 91.2447 2.89689 91.7137 2.8868L92.0069 2.70513L92.2665 2.54365C92.434 2.67486 92.6267 2.84643 92.7104 2.91708C92.7942 2.98772 93.4977 2.85652 93.8579 2.73541C94.2181 2.6143 95.332 2.65467 95.4828 2.70513C95.6335 2.7556 96.1947 2.76569 96.4041 2.72532C96.6135 2.68495 97.3506 2.62439 97.5683 2.64458C97.7861 2.66476 98.3724 2.49319 98.4896 2.43264C98.6069 2.37208 98.9503 2.59412 98.9922 2.6143H99.0173C99.2183 2.53356 99.4026 2.41245 99.6036 2.39227C99.7795 2.37208 99.9805 2.53356 100.148 2.50328L100.408 2.46291C100.701 2.43264 101.086 2.38217 101.27 2.33171C101.455 2.28125 101.89 2.51338 101.932 2.42254L101.991 2.35189L102.033 2.30143C102.108 2.27115 102.409 2.30143 102.694 2.36199C102.979 2.42254 104.252 2.25097 104.47 2.31152L104.646 2.40236L104.864 2.51338C105.039 2.39227 105.358 2.36199 105.559 2.43264L105.701 2.38217L105.961 2.29134C106.212 2.10967 106.547 2.00875 106.689 2.0693C106.832 2.12986 107.393 2.10967 107.577 2.03903C107.762 1.96838 108.138 1.98856 108.289 1.95829C108.44 1.92801 108.875 2.00875 109.009 2.05921C109.144 2.10967 109.537 2.00875 109.587 2.0794C109.638 2.15004 109.973 2.27116 110.207 2.20051C110.442 2.12986 111.815 2.16014 112.284 2.13995C112.753 2.11977 113.641 1.83718 113.817 1.78671L114.052 1.84727L114.504 1.96838C115.04 1.95829 115.651 1.94819 115.852 1.94819L116.053 1.85736L116.313 1.73625C116.656 1.73625 117.084 1.75644 117.251 1.8069C117.419 1.85736 118.013 1.75644 118.164 1.78671L118.298 1.81699L118.424 1.84727C118.558 1.87755 119.027 1.84727 119.462 1.78671L119.848 1.71607L120.174 1.65551C120.543 1.60505 120.869 1.55459 120.903 1.55459C120.936 1.55459 121.163 1.61514 121.364 1.65551C121.565 1.69588 122.21 1.73625 122.377 1.79681C122.545 1.85736 122.963 2.04912 123.022 1.94819C123.081 1.84727 123.374 1.72616 123.491 1.72616C123.608 1.72616 124.061 1.48394 124.312 1.46375C124.563 1.44357 125.577 1.43348 125.979 1.4032C126.381 1.37292 127.595 1.50412 127.779 1.54449C127.964 1.58486 128.491 1.33255 128.617 1.37292C128.743 1.41329 128.969 1.41329 129.052 1.43348C129.136 1.45366 129.714 1.34264 130.2 1.22153L130.644 1.272L130.971 1.31237C131.239 1.17107 131.666 1.14079 131.925 1.23163L132.16 1.25181L132.403 1.272C132.671 1.18116 133.031 1.21144 133.207 1.35274C133.383 1.49403 134.145 0.999498 134.547 0.918758L134.882 1.18116C134.882 1.18116 135.033 1.15089 135.075 1.10042L135.133 1.01968C135.167 0.908666 135.309 0.787555 135.443 0.737093C135.577 0.68663 136.046 0.898573 136.222 0.959128C136.398 1.01968 137.051 0.989406 137.219 1.03987C137.386 1.09033 137.755 1.00959 137.889 0.989406C138.023 0.969221 138.601 1.04996 138.835 1.10042C139.07 1.15089 139.916 0.938943 140.184 0.999498L140.293 0.908666C140.636 0.60589 140.753 1.12061 140.963 1.03987L141.18 0.949036C141.39 0.76737 141.717 0.595798 141.901 0.555428C142.085 0.515058 142.789 0.60589 142.964 0.64626C143.14 0.68663 143.794 0.666445 143.97 0.60589C144.145 0.545335 144.774 0.666445 144.941 0.747185C145.109 0.827925 145.754 0.747185 146.089 0.666445L146.44 0.80774C146.683 0.908666 147.043 0.898573 147.236 0.575613L147.956 0.44441C148.71 0.737093 149.489 0.676538 150.226 0.48478C150.511 0.414132 150.771 0.888481 151.055 0.434317C151.139 0.293022 151.617 0.36367 151.91 0.383855H152.077C152.253 0.48478 152.463 0.535242 152.546 0.494872C152.63 0.454502 152.839 0.353577 153.007 0.24256C153.174 0.131542 153.635 0.535242 153.786 0.504965C153.937 0.474687 154.322 0.293022 154.397 0.272837C154.473 0.252652 154.816 0.454502 154.984 0.56552H155.143C155.302 0.56552 155.453 0.424225 155.62 0.373762L155.897 0.293022C156.181 0.40404 156.483 0.515057 156.567 0.535242C156.65 0.555427 156.86 0.474687 156.96 0.414132C157.061 0.353577 157.421 0.494872 157.505 0.474687L157.572 0.424225C157.664 0.36367 157.739 0.20219 157.815 0.20219C158.007 0.222375 158.2 0.36367 158.384 0.353577C158.619 0.333392 158.845 0.182004 159.088 0.151727L159.297 0.121449C159.523 0.171912 159.867 0.141634 160.042 0.0608943L160.227 0.212282L160.344 0.313207C160.545 0.333392 160.955 0.36367 161.24 0.393947C161.525 0.424225 162.413 0.212282 162.605 0.313207C162.798 0.414132 163.862 0.272837 164.54 0.424225L165.177 0.141634C165.361 0.0608943 165.663 0.0508018 165.838 0.141634L166.148 0.293022C166.441 0.202189 166.818 0.0306167 166.994 -0.0904934H167.153C167.313 -0.0904934 167.472 0.0508018 167.622 0.131542L167.706 0.182004C167.79 0.252652 168.301 0.343485 168.854 0.393947C169.406 0.44441 170.788 -0.0602159 170.822 -0.0400308C170.855 -0.0198458 170.923 0.0709868 170.973 0.111357C171.023 0.151727 171.45 0.101264 171.693 0.0608943C171.936 0.0205242 172.79 -0.0602159 173.025 -0.0299383C173.259 0.00033921 174.005 0.272837 174.197 0.36367C174.39 0.454502 174.993 0.222375 175.144 0.343485C175.295 0.464595 175.973 0.0508018 176.275 -0.100586L176.618 0.222375L176.769 0.36367C177.221 0.232467 177.933 0.111357 178.352 0.101264L178.729 0.121449L179.122 0.141634C179.541 0.24256 180.111 0.171912 180.387 -0.0198458L180.747 0.28293C181.032 0.515057 181.35 -0.151048 181.727 0.171912C182.045 0.44441 182.313 0.383855 182.59 0.111357C182.607 0.0911718 182.665 0.101264 182.699 0.111357L182.958 0.222375C183.243 0.262745 183.561 0.3233 183.67 0.353577C183.779 0.383855 184.29 0.182004 184.533 0.111357H184.742L185.178 0.141634C185.655 0.141634 186.443 0.111357 186.937 0.0911718L187.389 0.111357H187.674C187.984 0.212282 188.361 0.303115 188.52 0.333392C188.679 0.36367 189.064 0.222375 189.181 0.182004C189.299 0.141634 189.692 0.333392 189.801 0.353577L189.818 0.3233L190.053 -0.0904934C190.321 0.131542 191.099 0.252652 191.225 0.373762L191.234 0.48478Z" fill="#009FE3"/>
</svg>
