<svg width="456" height="13" viewBox="0 0 456 13" fill="none" xmlns="http://www.w3.org/2000/svg">
<g clip-path="url(#clip0_398_19878)">
<path d="M412.895 1.13908C413.166 1.26019 413.618 1.15926 413.925 0.937227L413.961 0.967504C414.34 1.24 414.665 0.856486 414.81 0.927134C415.315 1.16935 415.677 1.14917 416.236 0.937227C416.381 0.886764 417.067 1.18954 417.555 1.24L417.916 1.28037C418.368 1.19963 419.036 1.14917 419.397 1.18954C419.758 1.22991 421.239 1.3712 421.908 1.45194L422.431 1.20972C422.431 1.20972 422.666 1.17945 422.775 1.18954C423.389 1.30056 424.003 1.5125 424.617 1.5125H425.105C425.574 1.33083 425.917 1.47213 425.845 1.82537L426.802 1.41157L427.597 1.06843C428.374 1.22991 429.439 1.28037 429.963 1.18954C430.487 1.09871 432.058 1.54278 432.618 1.52259C433.178 1.50241 435.056 1.82537 435.616 1.88592L435.58 1.50241C435.58 1.50241 435.923 1.41157 435.995 1.43176L436.718 1.69417C437.603 1.61343 438.596 1.66389 438.903 1.80518C439.21 1.94648 440.366 1.6437 440.655 1.71435C440.944 1.785 442.028 1.89602 442.407 1.785C442.787 1.67398 444.864 1.71435 446.056 1.73454L447.085 1.97676C447.41 2.0575 448.06 1.81528 448.566 1.785L448.945 1.76481C449.379 1.82537 449.885 1.83546 450.083 1.76481H450.101L451.041 2.1887C452.16 1.96666 453.208 2.01713 453.37 2.28962C453.533 2.56212 454.436 3.22823 454.653 3.20804C454.87 3.18786 455.484 3.20804 455.52 3.27869C455.556 3.34934 455.285 3.64202 454.924 3.75304C454.562 3.86406 454.526 4.7421 453.93 5.20636L454.129 5.78163L454.183 5.91284C454.165 6.11469 454.021 6.2358 453.876 6.17524C453.732 6.11469 453.316 6.10459 453.172 6.25598C454.201 6.48811 452.991 6.87162 453.479 7.13403C453.533 7.16431 453.533 7.25514 453.479 7.28542L452.702 7.66893C452.666 7.96162 451.835 8.28458 450.842 8.3855L449.957 8.01208L449.812 7.95152C449.234 8.08273 448.313 8.20384 447.753 8.21393C447.193 8.22402 445.315 8.14328 444.809 8.20384H443.852C443.346 8.16347 442.75 8.113 442.534 8.113C442.317 8.113 441.486 8.08273 441.215 8.1231C440.944 8.16347 439.174 8.20384 437.874 8.20384C436.573 8.20384 432.546 8.18365 431.787 8.13319C431.029 8.08273 429.042 8.43597 428.861 8.43597H428.699L427.723 8.48643C426.676 8.3855 425.412 8.36532 424.906 8.43597C424.4 8.50661 422.829 8.28458 422.413 8.31485C421.998 8.34513 420.553 8.40569 420.065 8.34513C419.578 8.28458 417.194 8.42587 416.056 8.43597H414.99C413.925 8.43597 412.877 8.43597 411.811 8.43597C411.161 8.43597 410.132 8.54698 409.933 8.41578C409.445 8.09282 408.813 8.54698 408.452 8.26439C408.38 8.21393 408 8.20384 407.784 8.22402C407.296 8.26439 406.574 8.44606 406.375 8.36532L405.671 8.07263C405.147 8.28458 404.424 8.3855 404.063 8.30476C403.702 8.22402 402.925 8.18365 402.51 8.113C402.094 8.04236 400.794 8.31485 400.433 8.20384C400.072 8.09282 398.789 8.46624 398.374 8.50661C397.958 8.54698 396.441 8.19374 395.683 8.1231L394.87 8.3956L394.292 8.58735C393.172 8.49652 392.052 8.37541 391.818 8.31485C391.583 8.2543 390.517 8.17356 389.939 8.1231C389.361 8.07263 387.14 8.55708 386.128 8.76902L385.406 8.21393C385.406 8.21393 384.846 8.15337 384.719 8.21393C383.943 8.55707 383.04 7.9818 382.245 8.29467C381.992 8.3956 381.505 8.43597 381.161 8.41578C380.493 8.37541 379.825 8.22402 379.157 8.22402H378.579C377.947 8.32495 377.134 8.3855 376.773 8.35523C376.411 8.32495 375.111 8.31486 374.804 8.23411C374.497 8.15337 373.305 8.45615 372.907 8.53689C372.51 8.61763 371.444 8.27448 371.065 8.35523C370.686 8.43597 368.952 8.37541 368.266 8.31485H367.633C367.019 8.31485 366.405 8.41578 365.791 8.41578H364.653C363.407 8.32495 361.384 8.26439 360.156 8.28458L359.127 8.44606L358.224 8.58735C357.302 8.48643 355.695 8.41578 354.629 8.43597H344.858C343.883 8.43597 342.908 8.41578 341.932 8.43597H341.318C340.65 8.5268 340.018 8.60754 339.891 8.61763C339.765 8.62772 338.862 8.56717 338.121 8.49652C337.381 8.42587 333.245 8.59745 332.938 8.54698C332.631 8.49652 331.818 8.50661 331.511 8.48643C331.204 8.46624 329.705 8.63781 328.91 8.658H316.195C315.4 8.658 312.998 8.69837 310.885 8.73874C308.772 8.77911 302.541 9.02133 301.746 9.17272L301.511 9.07179L300.897 8.81948C300.482 8.98096 299.651 8.97087 299.055 8.80939L298.296 9.07179C297.899 9.21309 297.032 9.10207 296.382 9.10207H295.316C294.16 9.10207 292.806 9.14244 292.3 9.203C291.794 9.26355 290.042 9.02133 289.518 8.84976L289.139 9.11216L288.597 9.49568C288.164 9.28374 287.333 9.14244 286.737 9.18281C286.141 9.22318 284.208 9.29383 283.739 9.28374C283.269 9.27364 281.463 9.42503 280.614 9.35438L279.838 9.32411L279.025 9.29383C278.122 9.31401 277.002 9.37457 276.532 9.44522C276.063 9.51586 274.672 9.55623 273.95 9.71771L273.101 9.56633C272.396 9.44522 271.493 9.53605 270.681 9.53605H269.868C268.965 9.53605 267.863 9.63697 267.393 9.7379H266.544C266.093 9.63697 264.124 9.57642 262.192 9.5966C260.259 9.61679 254.895 9.91957 254.57 10.1517L253.992 9.82873C253.865 9.75809 253.071 9.93975 252.583 9.97003L252.095 10.0003C251.554 10.0003 250.741 9.85901 250.271 9.69753C249.802 9.53605 248.122 9.97003 247.598 9.97003C247.074 9.97003 245.214 9.97003 244.672 9.97003C244.13 9.97003 242.216 10.0407 241.602 10.1113H241.042C240.518 10.1113 239.976 9.98012 239.471 9.99021L238.459 10.0205C237.357 10.0003 235.66 9.99021 234.702 10.0003C233.745 10.0104 230.873 10.2425 230.277 10.1719H229.736L228.959 10.1315C228.11 10.182 227.044 10.182 226.611 10.1315C226.177 10.081 224.696 10.4141 224.118 10.4444C223.541 10.4747 221.391 10.4444 220.723 10.4444C220.055 10.4444 217.147 10.4444 215.756 10.5049C214.365 10.5655 209.507 10.6361 208.062 10.6462C206.617 10.6563 202.607 10.6866 202.319 10.7673C202.03 10.8481 200.693 10.6361 200.314 10.6159C199.934 10.5958 198.508 10.8784 197.821 10.8985C197.135 10.9187 194.39 10.8985 193.27 10.8985C192.15 10.8985 188.321 10.8985 187.237 10.9591C186.154 11.0196 181.53 11.0802 179.381 11.0802H175.389C173.15 11.0802 170.838 11.0802 170.242 11.0903L169.808 11.2921C169.393 11.4839 169.032 10.8683 168.454 11.2518L168.345 11.3325C167.821 11.2821 167.063 11.3123 166.666 11.3931C166.268 11.4738 164.733 11.1811 163.83 11.2921H162.999L156.642 11.3123C149.652 11.3123 143.204 11.2316 142.319 11.1408L141.633 11.4839L141.524 11.5344C141.235 11.5142 140.585 11.4637 140.061 11.4233C139.537 11.383 138.056 11.3931 137.894 11.4738C137.731 11.5546 136.937 11.3729 136.72 11.4233C136.503 11.4738 135.474 11.5041 134.968 11.4839L134.498 11.4536L132.277 11.5243H131.789C131.265 11.5243 130.742 11.4637 130.633 11.3628C130.525 11.2619 129.532 11.4536 129.062 11.4637L128.628 11.4334C128.412 11.4234 128.141 11.2921 128.032 11.3123L126.371 11.7261C124.438 11.605 121.241 11.5142 119.273 11.5243H113.005C111.85 11.5445 110.459 11.5243 109.899 11.4637C109.339 11.4032 107.37 11.8674 106.503 12.0289L105.925 11.5747C105.853 11.5243 105.402 11.494 105.257 11.5344L104.444 11.7968C103.523 11.6858 102.024 11.6454 101.085 11.7059L100.236 11.7463C99.2608 11.7867 98.2855 11.7463 97.3102 11.7463H85.173C84.1977 11.7463 82.7708 11.7059 82.0303 11.6454C81.2898 11.5848 79.1766 11.9078 78.9057 11.8472C78.6348 11.7867 76.9732 11.7261 75.8172 11.6958C74.6613 11.6656 71.32 11.928 70.9226 11.9179C70.5253 11.9078 69.2429 11.8977 68.9539 11.7968C68.665 11.6958 67.3284 11.9482 66.9311 11.9784C66.5337 12.0087 65.2875 11.7867 64.7818 11.8573C64.2761 11.928 62.5783 11.9784 62.1087 12.0087C61.6391 12.039 60.1039 11.817 59.7608 11.8573C59.4176 11.8977 57.7379 11.9381 56.8348 11.9381C55.9318 11.9381 52.2834 11.8876 50.7121 11.8069L49.3755 12.1702L49.1407 12.2308C48.7614 12.1904 47.8042 12.1702 47.0095 12.1904L46.5038 12.0491L45.6729 11.817C45.0769 11.9986 44.1377 12.0995 43.614 12.0592L43.0179 12.1601L42.3677 12.261C41.5189 12.2106 40.5435 12.2005 40.1823 12.2408C39.8211 12.2812 37.2022 11.9583 34.9626 11.8775L33.1023 12.372L32.434 12.5537C31.6935 12.473 30.6821 12.4023 30.1944 12.4124C29.7068 12.4225 28.009 12.4225 27.5214 12.4427C27.0337 12.4629 25.8958 12.3418 25.6972 12.372C25.4985 12.4023 24.3787 12.4225 23.7465 12.4124C23.1144 12.4023 21.0373 12.3821 20.5316 12.362C20.0259 12.3418 18.4726 12.4023 18.0392 12.3418C17.6057 12.2812 16.5943 12.584 16.4678 12.5234C16.3414 12.4629 15.7454 12.3115 15.5828 12.3922C15.4203 12.473 14.4089 12.6244 13.8851 12.6244H13.3974C12.4944 12.6244 11.6094 12.6244 10.7063 12.6244H10.2186C10.0019 12.4427 9.73098 12.3014 9.65874 12.3014C9.58649 12.3014 9.31557 12.3821 9.27945 12.473C9.24333 12.5638 7.97904 12.5638 7.13016 12.5032H5.7575C5.05311 12.4932 4.58351 12.4629 4.70994 12.4427C4.83637 12.4225 5.10729 12.2408 4.89056 12.1096C4.67382 11.9784 4.56545 11.4738 4.65576 11.3123C4.74607 11.1509 4.81831 10.6664 4.52933 10.6664C4.24035 10.6664 3.59014 10.7169 3.64433 10.7774C3.69851 10.838 3.73463 11.0196 3.59014 11.0398C3.44565 11.06 2.99412 10.9389 2.74126 10.8279C2.4884 10.7169 1.20605 10.4646 0.953195 10.3334C0.700337 10.2022 0.248805 9.66725 0.73646 9.6067C1.22411 9.54614 1.80208 10.2425 2.14524 10.3838H2.56065C2.70514 10.3838 2.88575 10.2728 2.97606 10.1921L3.03024 10.1517C2.93994 10.071 2.75932 10.0205 2.63289 10.0508C2.50647 10.081 2.09106 10.071 2.09106 9.97003C2.09106 9.8691 2.50647 9.53605 3.01218 9.47549C3.5179 9.41494 4.9628 9.10207 4.9628 8.97087C4.9628 8.83967 5.14341 8.41578 5.36015 8.56717C5.57689 8.71856 6.44383 8.96078 6.78699 8.77911L6.89536 8.60754C7.05791 8.3855 7.14822 8.43596 7.47332 8.53689L7.70812 8.60754C8.06934 8.60754 9.04465 8.62772 9.85741 8.62772C10.6702 8.62772 12.6389 8.26439 12.4582 8.22402C12.2776 8.18365 12.8917 7.93134 14.2282 7.74967L15.6731 8.04236C15.9441 8.10291 16.233 8.15337 16.522 8.17356H16.7388C17.1 8.13319 17.2084 7.97171 17.0097 7.84051C16.811 7.7093 16.4498 7.32579 16.7026 7.28542H16.9194C17.1722 7.3157 17.4793 7.45699 17.6057 7.42671L18.4185 7.20468C18.9242 7.46708 19.4841 7.68912 19.6828 7.69921C19.8814 7.7093 20.6761 7.69921 20.4955 7.58819C20.3149 7.47718 20.4955 7.25514 20.8929 7.08357C21.2902 6.91199 22.7893 6.88172 23.0602 6.89181C23.3311 6.9019 24.469 6.87162 24.8663 6.89181C25.2637 6.91199 26.4919 6.87162 27.0518 6.95236C27.6117 7.0331 28.7495 6.46792 29.0566 6.48811C29.3636 6.50829 29.9416 6.83125 29.9957 6.87162C30.0499 6.91199 30.2847 6.96246 30.375 6.89181V6.2257C31.3323 6.31654 32.5966 6.50829 33.2107 6.65968L33.9692 6.45783L34.6556 6.27617C35.6128 6.21561 36.6965 6.10459 37.0938 6.01376C37.4912 5.92293 38.4304 6.29635 38.611 6.25598L38.6652 6.20552L38.7735 6.10459C38.9903 6.07432 39.5502 6.10459 40.0559 6.16515H41.1757C41.8801 6.07432 42.6748 5.98348 42.9638 5.95321C43.2527 5.92293 44.517 5.89265 45.0589 5.86237C45.6007 5.8321 47.5152 5.77154 48.0932 5.81191C48.6711 5.85228 50.5314 5.53941 51.1094 5.50914C51.6874 5.47886 53.3129 5.63025 53.5838 5.53941C53.8547 5.44858 54.8842 5.63025 55.1371 5.53941C55.3899 5.44858 56.2749 5.63025 56.4375 5.5596C56.6 5.48895 57.178 5.35775 57.3767 5.43849C57.5753 5.51923 58.2978 5.68071 58.6229 5.63025C58.948 5.57978 60.2303 5.53941 60.7541 5.5596C61.2779 5.57978 62.795 5.49904 63.1743 5.50914C63.5536 5.51923 64.7637 5.44858 65.0527 5.38803C65.3417 5.32747 66.4796 5.24673 67.0033 5.19627C67.5271 5.1458 69.0984 5.52932 69.4235 5.58988C69.7486 5.65043 70.146 5.17608 70.3266 5.13571L70.4169 5.1559L71.1755 5.34766C71.9521 5.20636 72.6565 5.07516 72.7288 5.05497H72.7829C73.2164 5.13571 73.686 5.30729 74.0292 5.25682L74.4446 5.20636C74.8058 5.24673 75.2754 5.22654 75.4921 5.1458C75.7089 5.06506 76.7384 5.14581 77.208 5.22655L77.6414 5.26692L77.9304 5.29719C78.2736 5.26692 78.9418 5.21645 79.4114 5.19627C79.881 5.17608 81.5788 5.19627 82.1929 5.36784L82.9153 5.07516C83.3307 4.90358 84.1796 5.18617 84.7215 4.91368C84.7756 4.8834 85.1549 5.0146 85.4078 5.05497L86.4915 5.19627C87.6835 5.11553 88.8936 4.97423 89.1645 4.87331C89.4355 4.77238 90.4288 4.95405 90.6456 4.83294C90.8623 4.71183 91.7292 5.0146 91.8557 5.04488C91.9821 5.07516 92.6504 5.09534 93.138 5.1458C93.6257 5.19627 95.4318 4.95405 96.2987 4.91368L96.9309 5.20636L97.0212 5.24673C97.2921 5.27701 97.6895 5.19627 97.9062 5.08525C98.1229 4.97423 98.719 4.87331 99.0802 4.84303C99.4414 4.81275 101.229 4.89349 102.187 4.98432L102.945 4.62099C103.144 4.53016 103.794 4.66136 104.119 4.59072L104.878 4.42924C105.528 4.60081 106.287 4.7522 106.539 4.77238C106.792 4.79257 107.804 4.68155 108.165 4.7421L108.49 4.82284C108.906 4.93386 109.104 4.39896 109.646 4.7421C109.7 4.77238 110.242 4.6109 110.567 4.60081H111.019C111.506 4.66136 112.066 4.73201 112.229 4.76229C112.391 4.79257 113.475 4.72192 114.125 4.7421C114.775 4.76229 116.473 4.41914 116.654 4.45951C116.834 4.49988 117.701 4.73201 118.153 4.90358L118.604 4.56044L119.291 4.03563C120.302 4.25766 121.585 4.4797 122.163 4.55035C122.74 4.62099 124.637 4.35859 125.07 4.26776C125.504 4.17692 126.714 4.16683 127.147 4.11637L127.436 4.2072L127.743 4.30813C128.014 4.46961 128.52 4.46961 128.881 4.30813L129.17 4.17692L129.224 4.15674C129.405 4.12646 129.712 4.15674 129.929 4.24757C130.146 4.3384 130.922 4.4797 131.139 4.38887C131.356 4.29803 133.216 4.29803 133.577 4.3485C133.938 4.39896 134.805 4.36868 135.149 4.40905C135.492 4.44942 136.304 4.3485 136.593 4.35859C136.882 4.36868 137.948 4.29803 138.327 4.19711C138.707 4.09618 140.296 4.39896 141.055 4.45951L141.542 4.13655C141.542 4.13655 141.849 4.12646 142.012 4.13655L143.005 4.2072C144.089 4.27785 145.407 4.22739 145.913 4.09618C146.419 3.96498 148.315 4.32831 148.947 4.31822L149.471 4.25766L149.959 4.19711C150.501 4.19711 151.368 4.12646 151.891 4.06591C152.415 4.00535 153.824 4.35859 154.005 4.37877L154.131 4.3485L155.558 4.05581C157.219 4.09618 158.917 4.12646 159.333 4.12646C159.748 4.12646 161.301 4.18702 161.952 4.40905L162.511 3.9448L162.764 3.74295C163.451 3.84387 164.191 4.01544 164.39 4.12646C164.588 4.23748 165.636 3.9448 165.925 3.91452C166.214 3.88424 167.099 4.11637 167.388 4.13655L167.514 4.08609L168.201 3.8035C168.869 3.96498 169.79 4.13655 170.26 4.17692C170.729 4.21729 172.066 4.04572 172.391 3.96498C172.716 3.88424 173.836 4.05581 174.016 4.02554C174.197 3.99526 174.793 3.84387 174.992 3.75304C175.19 3.66221 175.895 3.81359 176.075 3.70258L176.617 3.82369L177.231 3.96498C178.134 3.88424 179.345 3.76313 179.923 3.69248C180.5 3.62184 182.018 3.8035 182.289 3.77322C182.559 3.74295 183.607 3.81359 184.077 3.88424L184.528 3.90443H184.691C184.944 3.77322 185.196 3.77322 185.251 3.90443C185.305 4.03563 185.792 4.35859 186.136 4.25766C186.479 4.15674 187.617 3.86406 187.906 3.79341C188.195 3.72276 190.236 3.71267 190.597 3.75304C190.958 3.79341 192.114 3.52091 192.565 3.49063C193.017 3.46036 194.534 3.50073 194.931 3.58147C195.329 3.66221 197.279 3.55119 198.291 3.5411L198.923 3.35943L199.483 3.19795C199.844 3.32915 200.26 3.50073 200.44 3.57137C200.621 3.64202 202.138 3.51082 202.915 3.38971C203.691 3.2686 206.093 3.30897 206.418 3.35943C206.744 3.40989 207.954 3.41999 208.405 3.37962C208.857 3.33925 210.446 3.27869 210.916 3.29887C211.385 3.31906 212.65 3.14749 212.902 3.08693C213.155 3.02638 213.896 3.24841 213.986 3.2686H214.04C214.474 3.18786 214.871 3.06675 215.305 3.04656C215.684 3.02638 216.117 3.18786 216.479 3.15758L217.038 3.11721C217.671 3.08693 218.501 3.03647 218.899 2.98601C219.296 2.93554 220.235 3.16767 220.326 3.07684L220.452 3.00619L220.542 2.95573C220.705 2.92545 221.355 2.95573 221.969 3.01628C222.583 3.07684 225.329 2.90527 225.798 2.96582L226.177 3.05665L226.647 3.16767C227.026 3.04656 227.713 3.01628 228.146 3.08693L228.453 3.03647L229.013 2.94564C229.555 2.76397 230.277 2.66305 230.584 2.7236C230.891 2.78416 232.102 2.76397 232.499 2.69332C232.896 2.62268 233.709 2.64286 234.034 2.61258C234.359 2.58231 235.298 2.66305 235.587 2.71351C235.876 2.76397 236.725 2.66305 236.834 2.73369C236.942 2.80434 237.664 2.92545 238.17 2.8548C238.676 2.78416 241.638 2.81443 242.649 2.79425C243.661 2.77406 245.575 2.49147 245.955 2.44101L246.46 2.50157L247.436 2.62268C248.592 2.61258 249.91 2.60249 250.343 2.60249L250.777 2.51166L251.337 2.39055C252.077 2.39055 252.999 2.41073 253.36 2.4612C253.721 2.51166 255.003 2.41073 255.328 2.44101L255.617 2.47129L255.888 2.50157C256.177 2.53184 257.189 2.50157 258.128 2.44101L258.959 2.37036L259.663 2.30981C260.458 2.25935 261.162 2.20888 261.234 2.20888C261.307 2.20888 261.794 2.26944 262.228 2.30981C262.661 2.35018 264.052 2.39055 264.413 2.4511C264.774 2.51166 265.678 2.70342 265.804 2.60249C265.93 2.50157 266.563 2.38046 266.815 2.38046C267.068 2.38046 268.044 2.13824 268.585 2.11805C269.127 2.09787 271.313 2.08777 272.18 2.0575C273.047 2.02722 275.665 2.15842 276.063 2.19879C276.46 2.23916 277.598 1.98685 277.869 2.02722C278.14 2.06759 278.627 2.06759 278.808 2.08777C278.989 2.10796 280.235 1.99694 281.282 1.87583L282.24 1.92629L282.944 1.96666C283.522 1.82537 284.443 1.79509 285.003 1.88592L285.509 1.90611L286.033 1.92629C286.611 1.83546 287.387 1.86574 287.766 2.00703C288.146 2.14833 289.789 1.6538 290.656 1.57305L291.379 1.83546C291.379 1.83546 291.704 1.80518 291.794 1.75472L291.921 1.67398C291.993 1.56296 292.3 1.44185 292.589 1.39139C292.878 1.34093 293.889 1.55287 294.269 1.61342C294.648 1.67398 296.057 1.6437 296.418 1.69417C296.779 1.74463 297.574 1.66389 297.863 1.6437C298.152 1.62352 299.398 1.70426 299.904 1.75472C300.409 1.80518 302.234 1.59324 302.812 1.6538L303.046 1.56296C303.787 1.26019 304.04 1.77491 304.491 1.69417L304.961 1.60333C305.412 1.42167 306.117 1.25009 306.514 1.20972C306.911 1.16935 308.429 1.26019 308.808 1.30056C309.187 1.34093 310.596 1.32074 310.975 1.26019C311.355 1.19963 312.709 1.32074 313.07 1.40148C313.432 1.48222 314.822 1.40148 315.545 1.32074L316.303 1.46204C316.827 1.56296 317.604 1.55287 318.019 1.22991L319.572 1.09871C321.198 1.39139 322.878 1.33083 324.467 1.13908C325.081 1.06843 325.641 1.54278 326.255 1.08861C326.436 0.947319 327.465 1.01797 328.097 1.03815H328.459C328.838 1.13908 329.289 1.18954 329.47 1.14917C329.651 1.1088 330.102 1.00787 330.463 0.896856C330.825 0.785839 331.818 1.18954 332.143 1.15926C332.468 1.12898 333.299 0.947319 333.462 0.927134C333.624 0.906949 334.365 1.1088 334.726 1.21982H335.069C335.412 1.21982 335.737 1.07852 336.098 1.02806L336.695 0.947319C337.309 1.05834 337.959 1.16935 338.139 1.18954C338.32 1.20972 338.772 1.12898 338.988 1.06843C339.205 1.00787 339.982 1.14917 340.162 1.12898L340.307 1.07852C340.505 1.01797 340.668 0.856486 340.831 0.856486C341.246 0.876671 341.661 1.01797 342.059 1.00787C342.564 0.987689 343.052 0.836301 343.576 0.806024L344.027 0.775746C344.515 0.826209 345.256 0.795931 345.635 0.715191L346.032 0.866579L346.285 0.967504C346.719 0.987689 347.604 1.01797 348.218 1.04824C348.832 1.07852 350.746 0.866579 351.162 0.967504C351.577 1.06843 353.871 0.927134 355.334 1.07852L356.706 0.795931C357.104 0.715191 357.754 0.705099 358.133 0.795931L358.802 0.947319C359.434 0.856486 360.246 0.684914 360.626 0.563803H360.969C361.312 0.563803 361.655 0.705099 361.98 0.785839L362.161 0.836301C362.342 0.906949 363.443 0.997782 364.635 1.04824C365.827 1.09871 368.807 0.594081 368.88 0.614266C368.952 0.634451 369.096 0.725284 369.205 0.765654C369.313 0.806024 370.234 0.755561 370.758 0.715191C371.282 0.674821 373.124 0.594081 373.63 0.624359C374.136 0.654636 375.743 0.927134 376.158 1.01797C376.574 1.1088 377.874 0.876671 378.199 0.997782C378.524 1.11889 379.987 0.705099 380.638 0.553711L381.378 0.876671L381.703 1.01797C382.679 0.886764 384.214 0.765654 385.117 0.755561L385.93 0.775746L386.778 0.795931C387.682 0.896856 388.91 0.826209 389.506 0.634451L390.282 0.937227C390.896 1.16935 391.583 0.503248 392.396 0.826209C393.082 1.09871 393.66 1.03815 394.256 0.765654C394.292 0.745469 394.418 0.755561 394.491 0.765654L395.051 0.876671C395.665 0.917041 396.351 0.977597 396.586 1.00787C396.821 1.03815 397.922 0.836301 398.446 0.765654H398.898L399.837 0.795931C400.866 0.795931 402.564 0.765654 403.63 0.745469L404.605 0.765654H405.219C405.887 0.866579 406.7 0.957412 407.043 0.987689C407.386 1.01797 408.217 0.876671 408.47 0.836301C408.723 0.795931 409.572 0.987689 409.807 1.00787L409.843 0.977597L410.348 0.563803C410.926 0.785839 412.606 0.906949 412.877 1.02806L412.895 1.13908Z" fill="#294BB6"/>
</g>
<defs>
<clipPath id="clip0_398_19878">
<rect width="455" height="12" fill="white" transform="translate(0.519531 0.654297)"/>
</clipPath>
</defs>
</svg>
