<svg width="24" height="24" viewBox="0 0 24 24" fill="none" xmlns="http://www.w3.org/2000/svg">
<g clip-path="url(#clip0_795_2104)">
<path d="M6 18.5H18C18.2739 18.5 18.5 18.7261 18.5 19C18.4998 19.2737 18.2738 19.5 18 19.5H6C5.72623 19.5 5.50015 19.2737 5.5 19C5.5 18.7261 5.72614 18.5 6 18.5ZM11.6533 4.05371C11.8481 3.85897 12.1617 3.85897 12.3564 4.05371L16.9463 8.64355C17.2596 8.95695 17.0367 9.5 16.5898 9.5H14.5V15C14.4998 15.2737 14.2738 15.5 14 15.5H10C9.72623 15.5 9.50015 15.2737 9.5 15V9.5H7.41016C6.97404 9.5 6.7428 8.96451 7.06348 8.64355L11.6533 4.05371Z" fill="white" stroke="#F2F5F7"/>
</g>
<defs>
<clipPath id="clip0_795_2104">
<rect width="24" height="24" fill="white"/>
</clipPath>
</defs>
</svg>
