<svg width="40" height="40" viewBox="0 0 40 40" fill="none" xmlns="http://www.w3.org/2000/svg">
<circle cx="20" cy="20" r="19" fill="#1474FF" stroke="#F2F5F7" stroke-width="2"/>
<mask id="mask0_92_11811" style="mask-type:alpha" maskUnits="userSpaceOnUse" x="0" y="0" width="40" height="40">
<circle cx="19.9998" cy="20" r="19.3333" fill="#1474FF"/>
</mask>
<g mask="url(#mask0_92_11811)">
<path d="M32.8886 39.4484V36.2262C32.8886 34.517 32.2096 32.8778 31.0011 31.6693C29.7925 30.4607 28.1533 29.7817 26.4442 29.7817H13.5553C11.8461 29.7817 10.2069 30.4607 8.99837 31.6693C7.78981 32.8778 7.11084 34.517 7.11084 36.2262V39.4484" fill="white"/>
<path d="M32.8886 39.4484V36.2262C32.8886 34.517 32.2096 32.8778 31.0011 31.6693C29.7925 30.4607 28.1533 29.7817 26.4442 29.7817H13.5553C11.8461 29.7817 10.2069 30.4607 8.99837 31.6693C7.78981 32.8778 7.11084 34.517 7.11084 36.2262V39.4484" stroke="white" stroke-width="1.5" stroke-linecap="round" stroke-linejoin="round"/>
<path d="M19.9996 24.9485C23.5588 24.9485 26.4441 22.0632 26.4441 18.504C26.4441 14.9448 23.5588 12.0596 19.9996 12.0596C16.4405 12.0596 13.5552 14.9448 13.5552 18.504C13.5552 22.0632 16.4405 24.9485 19.9996 24.9485Z" fill="white" stroke="white" stroke-width="1.5" stroke-linecap="round" stroke-linejoin="round"/>
</g>
</svg>
