<svg width="329" height="469" viewBox="0 0 329 469" fill="none" xmlns="http://www.w3.org/2000/svg">
<path d="M268.761 115.099C265.599 114.636 262.418 114.385 259.295 114.385C212.276 114.385 178.636 165.954 166.356 188.143C163.734 192.866 164.178 198.668 167.455 202.929C170.231 206.515 174.549 208.462 179.08 208.115C183.629 207.768 187.658 205.184 189.894 201.194C202.213 179.159 227.602 142.184 259.43 142.184C261.165 142.184 262.919 142.319 264.635 142.589C290.602 146.483 304.772 193.097 299.894 258.565C293.34 346.569 254.09 440.78 206.107 440.78C136.649 440.78 50.8233 333.749 31.8924 249.389C25.8198 222.323 24.374 187.333 52.0571 174.243C55.8934 172.431 60.1539 171.525 64.6842 171.525C97.5145 171.525 139.136 216.404 160.399 259.78C174.703 288.947 173.527 305.295 169.768 307.203C169.094 307.55 168.245 307.724 167.243 307.724C156.929 307.724 133.757 289.872 113.342 266.18C108.484 260.551 100.098 259.702 94.2566 264.291C91.2299 266.643 89.3792 270.035 88.9937 273.852C88.6081 277.67 89.7841 281.39 92.2902 284.301C108.676 303.367 140.273 335.349 167.879 335.349C173.065 335.349 177.942 334.212 182.357 331.956C204.604 320.659 205.722 289.101 185.345 247.538C160.669 197.203 109.91 143.688 64.4914 143.688C55.9898 143.688 47.816 145.519 40.1819 149.124C5.63581 165.453 -6.93341 203.218 4.78758 255.461C26.3018 351.388 123.443 468.54 206.107 468.54C279.209 468.54 321.158 346.954 327.597 260.608C333.901 175.959 311.905 121.557 268.761 115.079V115.099Z" fill="#009FE3"/>
<path d="M247.343 80.1283C250.389 80.8031 253.473 81.1308 256.5 81.1308C267.257 81.1308 277.571 76.9668 285.282 69.2748C295.152 59.4045 299.22 45.216 296.135 31.3166C292.839 16.4918 280.674 4.30816 265.85 1.01163C251.969 -2.07284 237.781 1.99481 227.891 11.8651C218.021 21.7354 213.953 35.924 217.038 49.8234C220.334 64.6481 232.499 76.8318 247.343 80.1091V80.1283Z" fill="#009FE3"/>
<path d="M39.2757 112.014C42.3409 112.689 45.4061 113.017 48.4328 113.017C59.1899 113.017 69.5229 108.853 77.2148 101.141C87.0851 91.271 91.1527 77.0824 88.0682 63.2023C84.7717 48.3776 72.6073 36.1939 57.7826 32.8974C43.9025 29.8129 29.7139 33.8806 19.8436 43.7509C9.97326 53.6212 5.90562 67.8097 8.99009 81.6899C12.2866 96.5146 24.451 108.698 39.2757 111.995V112.014Z" fill="#009FE3"/>
</svg>
